<svg xmlns="http://www.w3.org/2000/svg" version="1.1" xmlns:xlink="http://www.w3.org/1999/xlink" xmlns:svgjs="http://svgjs.dev/svgjs" viewBox="0 0 800 800"><defs><linearGradient x1="50%" y1="0%" x2="50%" y2="100%" id="ssscribble-grad"><stop stop-color="hsl(0, 0%, 32.7%)" stop-opacity="1" offset="0%"></stop><stop stop-color="hsl(0, 0%, 42.7%)" stop-opacity="1" offset="100%"></stop></linearGradient></defs><g fill="none" stroke-width="3.25" stroke="url(#ssscribble-grad)" stroke-linecap="round"><path d="M951.39 368.68C853.55 386.07 777.2 408.22 752.96 434.92 789.56 461.69 869.04 493.05 957.42 528.55 1034.73 597.88 909.8 675.08 744.19 740.19 722.88 771.35 844.74 755.37 950.01 688.14 926.81 617.94 788.11 585.7 647.74 647.71 585.7 788.07 617.92 926.79 688.1 950.02 755.34 844.77 771.34 722.89 740.21 744.16 675.12 909.76 597.94 1034.72 528.61 957.44 493.11 869.08 461.76 789.58 434.98 752.96 408.28 777.17 386.14 853.49 368.74 951.33 351.34 1028.76 339.11 1051.59 331.92 1011.96 323.79 879.14 336.11 859.89 347.85 1013.36 318.69 909.16 245.39 739.41 124.52 670.96 -40.36 803.56 78.47 775.11 114.16 587.01 -27.32 508.5 -180.39 489.98 -184.59 504.22 8.08 552.51 -167.48 566.02 -249.82 553.98 -229.02 543.97 -154.44 530.14 -56.6 512.75 20.79 495.35 45.36 474.79 9.14 450.92 -72.37 426.6 -162.97 398.17 -225.78 365.17 -192.98 296.14 -15.53 208.1 84.58 111.88 5.85 37.34 -132.67 -1.45 -164.87 23.41 -54.16 92.45 103.36 173.35 191.76 191.76 173.35 103.36 92.45 -54.16 23.41 -164.87 -1.45 -132.67 37.34 5.85 111.88 84.58 208.1 -15.53 296.14 -192.98 365.17 -225.78 398.17 -162.97 426.6 -72.37 450.92 9.14 474.79 45.36 495.35 20.79 512.75 -56.6 537.06 -191.73 566.03 -167.48 568.32 -30.1 564.9 60.64 540.16 -44.48 504.24 -184.59 489.99 -180.39 508.5 -27.32 586.99 114.16 775.08 78.46 803.58 -40.36 670.97 124.53 739.39 245.39 909.13 318.69 1013.37 347.84 869.52 329.91 1040.2 345.17 951.39 368.68Q951.39 368.68 951.39 368.68" opacity="0.49"></path><path d="M927.39 497.26C758.73 530.4 755.75 576.48 907.88 628.58 970.5 689.36 719.07 661.29 878.87 569.8 929.75 547.42 853.76 592.33 715.04 715 569.89 891.74 661.25 719.08 710.5 760.68 705.96 929.08 672.77 1011.88 628.62 907.91 576.52 755.76 530.45 758.69 497.32 927.33 464.18 1028.93 445.55 920.57 435.15 753.29 416.81 735.54 389.71 872.53 336.82 982.51 257.44 938.14 148.29 780.07 33.03 658.06 -41.7 709.03 149.86 830.29 82.83 679.69 -74.47 560.25 -178.18 479 -123.83 438.05 20.28 428.98 84.18 433.61 -32.6 433.28 -197.53 436.77 -201.26 423.49 -32.6 390.36 68.94 357.22 -32.74 305.8 -187.21 239.82 -192.13 177.66 -36.27 112.74 97.97 64.38 77.86 47.89 -50.49 74.56 -137.98 142.93 -100.98 206.5 35.31 230.87 168.64 168.64 230.87 35.31 206.5 -100.98 142.93 -137.98 74.56 -50.49 47.89 77.86 64.38 97.97 112.74 -36.27 177.66 -192.13 239.82 -187.21 305.8 -32.74 357.22 68.94 390.36 -32.6 423.49 -201.26 436.78 -197.53 433.29 -32.61 433.63 84.18 428.99 20.27 438.05 -123.83 478.99 -178.18 560.23 -74.47 679.67 82.82 830.28 149.85 709.05 -41.71 658.05 33.04 780.05 148.31 938.13 257.45 982.52 336.83 872.56 389.71 735.56 416.79 753.28 435.12 920.54 445.51 1028.94 464.13 927.39 497.26Q927.39 497.26 927.39 497.26" opacity="0.31"></path><path d="M903.34 548.69C740.45 580.17 721.96 608.63 857.1 627.95 980.13 639.87 941.54 630.95 787.62 596.64 666.34 558.62 680.11 517.98 786.72 506.46 886.36 552 885.88 657.02 792.32 792.32 657.02 885.88 552 886.36 506.46 786.72 517.98 680.11 558.62 666.34 596.64 787.62 630.95 941.54 639.87 980.13 627.95 857.1 608.63 721.96 580.17 740.45 548.69 903.34 517.21 1004.9 484.2 914.28 444.15 748.88 396.7 697.77 330.51 804.71 241.65 933.76 149.08 948.83 56.59 828.26 -3.44 681.61 23.49 633.88 181.32 825.33 30.48 766.05 -108.9 661.92 -150.9 556.24 -52.7 473.18 78.14 410.33 98.81 372.58 -36.36 346.7 -183.65 328.72 -171.54 307.09 -8.65 275.61 92.9 244.13 8.66 204.29 -144.58 162.91 -183.55 129.41 -58.69 109.88 93.42 118.17 85.4 173.59 -70.92 244.31 101.07 101.1 244.3 -70.9 173.61 85.39 118.18 93.45 109.88 -58.65 129.41 -183.53 162.9 -144.61 204.28 8.62 244.12 92.9 275.6 -8.6 307.08 -171.5 328.71 -183.68 346.7 -36.4 372.58 98.8 410.31 78.16 473.16 -52.68 556.21 -150.9 661.89 -108.92 766.03 30.44 825.33 181.31 633.88 23.51 681.59 -3.45 828.22 56.57 948.81 149.04 933.77 241.62 804.74 330.48 697.77 396.68 748.85 444.13 914.24 484.19 1004.9 517.2 903.39 548.68Q903.34 548.69 903.34 548.69" opacity="0.38"></path><path d="M879.34 482.16C706.44 519.05 941.95 508.51 818.72 469.71 674.71 458.47 628.61 470.09 692.28 525.94 804.19 621.79 866.35 742.46 840.91 840.91 742.46 866.35 621.79 804.19 525.94 692.28 470.09 628.61 458.47 674.71 469.71 818.72 508.51 941.95 519.05 706.44 482.16 879.34 452.33 980.24 408.25 907.01 349.29 747.85 288.56 668.59 213.47 739.34 133.4 870.47 70.48 935.76 32.99 869.23 42.87 730.32 131.69 597.81 167.57 754.23 -24.15 790.43 -118.87 744.71 -99.52 664.83 22.62 579.32 125.97 491.87 105.03 422.45 -40.53 370.98 -167.74 325.18 -141.31 289.35 15.34 259.53 -19.91 209.07 141.62 292.21 13.88 307.36 -73.56 255.59 -66.22 152.03 23.84 23.87 152 -66.2 255.57 -73.56 307.36 13.85 307.6 121.71 276.84 161.52 243.01 74.4 199.66 -122.46 218.49 82.64 259.52 15.39 289.34 -141.27 325.17 -167.76 370.96 -40.57 422.42 105 491.84 125.98 579.29 22.65 664.8 -99.5 744.69 -118.88 790.43 -24.18 754.25 167.55 597.8 131.71 730.28 42.88 869.2 32.99 935.75 70.47 870.5 133.38 739.37 213.44 668.59 288.53 747.81 349.27 906.97 408.23 980.25 452.32 879.39 482.15Q879.34 482.16 879.34 482.16" opacity="0.13"></path><path d="M855.39 350.44C683.02 384.8 913.16 396.05 847.19 409.8 702.13 445.88 608.2 511.95 615.02 609.89 749.28 757.58 757.62 749.3 609.94 615.03 511.99 608.19 445.9 702.1 409.81 847.15 396.03 913.16 384.76 682.99 350.39 855.33 322.22 954.98 279.63 898.49 226.63 749.39 152.83 664.37 89.32 893.61 153.7 786.26 213.87 651.28 261.64 564 256.8 552.67 181.76 606.97 55.57 680.17 -61.61 731.74 -97.75 751.21 -29.08 727.64 95.32 677.85 161.41 609.53 103.84 541.33 -44.12 483.88 -149.63 426.37 -110.6 383.03 39.39 354.86 113.59 320.86 -116.13 332.22 46.12 360.21 166.3 361.2 183.75 338.4 109.6 275.53 3.95 180.56 -49.91 66.91 -24.3 -24.3 66.91 -49.91 180.56 3.95 275.53 109.6 338.4 183.75 361.2 166.3 360.21 46.12 332.22 -116.13 320.86 113.59 354.86 39.39 383.03 -110.6 426.36 -149.63 483.87 -44.12 541.31 103.84 609.52 161.41 677.84 95.3 727.64 -29.1 751.22 -97.76 731.77 -61.61 680.2 55.59 607 181.77 552.69 256.81 564 261.62 651.26 213.83 786.24 153.66 893.62 89.29 664.39 152.85 749.36 226.66 898.47 279.67 955 322.27 855.39 350.44Q855.39 350.44 855.39 350.44" opacity="0.61"></path><path d="M831.34 258.04C688.44 284.55 633.4 306.52 706.27 328.39 838.94 356.01 910.37 394.21 866.52 451.34 740.28 522.02 618.79 610.93 569.89 704.02 608.06 772.53 692.92 799.95 766.96 766.96 799.95 692.92 772.53 608.06 704.02 569.89 610.93 618.79 522.02 740.28 451.34 866.52 394.21 910.37 356.01 838.94 328.39 706.27 306.52 633.4 284.55 688.44 258.04 831.34 231.53 929.14 201.73 888.52 173.61 752.7 151.24 636.98 141.21 631.12 152.41 722.62 177.14 836.92 222.39 880.96 274.63 829.74 302.28 713.25 291.64 595.92 223.9 526.4 115.12 519.3 -1.16 560.19 -66.94 615.27 3.21 683.67 140.04 654.68 -46.12 595.51 -129.22 550.49 -79.55 512.52 63.34 486.01 161.14 459.49 125.89 445.7 0.31 440.73 -105.18 431.2 -95.95 420.38 14.97 396.4 148.71 352.29 216.51 281.68 192.9 185.9 61.06 50.48 50.46 61.04 185.87 192.88 281.65 216.52 352.27 148.73 396.39 15 420.38 -95.93 431.2 -105.19 440.73 0.27 445.7 125.86 459.49 161.16 486 63.39 512.5 -79.51 550.47 -129.23 595.5 -46.16 654.67 140.02 683.69 3.22 615.29 -66.94 560.21 -1.17 519.31 115.1 526.4 223.89 595.89 291.64 713.22 302.27 829.72 274.62 880.96 222.39 836.95 177.14 722.65 152.4 631.14 141.21 636.96 151.23 752.66 173.6 888.49 201.73 929.16 231.52 831.39 258.03Q831.34 258.04 831.34 258.04" opacity="0.15"></path><path d="M807.39 278.23C671.95 303.08 608.48 336.23 659.6 379.42 781.36 425.76 873.34 486.26 871.49 559.68 779.1 630.72 653.69 699.81 563.46 748.3 543.25 761.13 588.67 730.67 660.85 660.88 730.64 588.7 761.12 543.25 748.32 563.43 699.84 653.65 630.77 779.06 559.73 871.47 486.32 873.34 425.82 781.39 379.47 659.62 336.27 608.47 303.13 671.9 278.27 807.33 253.42 902.7 238.04 876.82 234.36 756.8 233.84 633.64 249.13 594.01 279.48 651.27 307.44 760.62 335.59 840.33 345.76 844.2 320.26 772.52 254.1 661.45 151.74 559.77 9.54 486.34 82.34 564.67 208.07 613.51 191.7 632.02 85.58 631.2 -45.76 616.95 -106.47 597.79 -48.04 573.76 87.39 548.91 182.72 524.05 161.84 499.56 51.39 471.84 -62.15 439.23 -87.6 394.85 -12.11 333.28 115.45 262.79 217.44 179.03 247.16 95.92 201.34 37.74 119.73 17.53 50.63 50.63 17.52 119.73 37.75 201.34 95.93 247.16 179.04 217.43 262.81 115.45 333.3 -12.11 394.87 -87.61 439.25 -62.16 471.85 51.38 499.56 161.83 524.05 182.71 548.91 87.38 573.76 -48.05 597.8 -106.48 616.96 -45.77 631.22 85.58 632.06 191.69 613.56 208.06 564.72 82.32 486.34 9.54 559.75 151.76 661.43 254.12 772.5 320.26 844.2 345.74 840.35 335.55 760.66 307.39 651.31 279.42 594.03 249.07 633.62 233.79 756.76 234.31 876.81 237.99 902.72 253.38 807.39 278.23Q807.39 278.23 807.39 278.23" opacity="0.27"></path><path d="M783.34 395.03C655.74 418.22 585.92 454.33 616.19 501.56 721.81 547.79 824.16 601.47 858.59 654.71 808.32 694.81 700.92 717.55 592.19 710.58 522.72 677.6 514.18 618.57 552.19 552.19 618.57 514.18 677.6 522.72 710.58 592.19 717.55 700.92 694.81 808.32 654.71 858.59 601.47 824.16 547.79 721.81 501.56 616.19 454.33 585.92 418.22 655.74 395.03 783.34 371.83 875.69 362.65 863.26 366.13 760.78 374.36 603.8 385.31 724.98 334.86 820.72 266.13 804.77 173.8 730.41 77.02 632.13 8.61 535.65 -10.35 469.72 34.96 439 119.54 439.81 206.14 459.23 239.4 481.72 187.96 509.41 72.42 525.77 -42.14 528.13 -81.37 528.69 -16.25 516.89 111.34 493.69 203.69 470.5 195.96 437.02 102.43 392.71 -12.18 346.62 -65.8 288.06 -29 220.18 75.67 157.49 190.72 99.86 263.49 63.28 271.69 58.24 224.83 90.86 156.95 156.93 90.88 224.81 58.24 271.69 63.27 263.5 99.84 190.75 157.46 75.71 220.15 -28.97 288.03 -65.8 346.59 -12.2 392.69 102.39 437 195.94 470.49 203.71 493.68 111.39 516.88 -16.2 528.69 -81.36 528.13 -42.17 525.79 72.38 509.43 187.94 481.74 239.39 459.25 206.15 439.82 119.55 438.99 34.96 469.7 -10.36 535.63 8.6 632.1 77.01 730.39 173.79 804.76 266.12 820.73 334.85 664.4 379.83 869.47 367.23 783.39 395.02Q783.34 395.03 783.34 395.03" opacity="0.84"></path><path d="M759.34 515.75C639.9 537.29 565.7 565.78 576.67 597.85 713.83 639.07 782.69 655.98 643.43 604.39 518.36 532.74 532.74 518.36 604.39 643.43 655.98 782.69 639.07 713.83 597.85 576.67 565.78 565.7 537.29 639.9 515.75 759.34 494.21 848.11 480.64 847.63 472.09 763.64 460.11 646.03 446.08 560.3 422.46 544.36 385.68 599.06 330.38 686.46 255.51 760.23 175.15 794.01 95.24 771.27 37.38 706.71 20.35 617.39 51.9 530.56 126 462.57 206.12 415.07 260.22 391.59 251.71 383.33 174.5 387.71 59.41 393.41 -34.65 393.17 -53.92 394.71 15.9 385.68 135.34 364.14 224.11 342.61 227.99 309.58 152.32 267.43 43.02 227.04 -30.45 182.16 -30.6 140.45 39.88 111.38 146.59 99.37 242.79 113.67 299 148.45 301.79 204.35 265.46 265.45 204.38 301.79 148.47 299.01 113.68 242.82 99.38 146.63 111.37 39.91 140.44 -30.58 182.14 -30.46 227.02 42.99 267.4 152.28 309.56 227.98 342.59 224.13 364.13 135.39 385.68 15.94 394.71 -53.91 393.18 -34.67 393.42 59.37 387.72 174.47 383.34 251.69 391.59 260.22 415.06 206.13 462.55 126.01 530.53 51.9 617.36 20.35 706.68 37.38 771.25 95.23 794.02 175.14 760.25 255.5 686.49 330.37 599.08 385.68 544.37 422.46 560.28 446.08 646 460.1 763.61 472.09 847.61 480.63 848.13 494.2 759.39 515.74Q759.34 515.75 759.34 515.75" opacity="0.85"></path><path d="M735.34 544.65C619.35 584.74 790.78 538.47 698.67 481.48 602.39 454.18 517.89 443.42 463.41 463.41 443.42 517.89 454.18 602.39 481.48 698.67 521.23 774.76 555.7 806.79 578.01 776.96 596.84 652.63 572.64 586.06 544.65 735.34 524.77 819.97 502.16 829.82 474.99 764.53 444.94 658.22 405.43 562.62 353.81 516.81 297.05 533.87 229.83 597.24 159.44 673.27 101.49 737.67 62.19 762.72 56.12 745.9 84.54 694.09 145.47 622.41 221.04 548.55 276.43 476.64 290.63 419.9 246.23 378.97 154.6 348.42 48.74 327.86 -22.71 311.43 -24.19 298.19 48.35 282.91 159.34 263.03 243.97 243.15 257.85 219.61 200.22 195.35 59.45 166.48 58.31 173.22 195.64 226.48 305.05 291.26 291.28 305.07 226.5 195.67 169.85 58.88 231.37 250.92 263.02 159.39 282.91 48.4 298.19 -24.18 311.43 -22.72 327.85 48.71 348.41 154.56 378.95 246.21 419.88 290.63 476.61 276.43 548.52 221.05 622.38 145.47 694.07 84.54 745.89 56.12 762.73 62.19 737.69 101.48 673.3 159.43 597.27 229.82 533.89 297.04 516.8 353.8 562.59 405.42 658.18 444.93 764.49 474.99 829.81 502.15 819.99 524.76 735.39 544.64Q735.34 544.65 735.34 544.65" opacity="0.39"></path><path d="M711.39 458.79C581.47 477.19 772.81 419.83 738.32 402.95 666 413.76 581.71 446.78 505.88 505.85 446.81 581.67 413.77 665.96 402.94 738.29 411.17 776.63 428.44 768.99 445.75 713.01 477.14 581.46 426.69 800.51 376.25 762.54 339.1 671.58 292.87 575.01 240.23 508.22 191.33 489.73 144.05 519.16 107.73 577.35 90.47 647.37 97.34 701.34 132.53 726.6 184.47 722.84 247.15 690.63 300.49 641.47 319.83 579.95 295.84 518.9 226.48 465.23 132.18 414.03 42.45 373.16 -5.92 341.63 7.74 312.15 81.1 288.79 183.39 270.56 263.32 252.33 285.42 240.1 245.24 235.21 161.31 232.36 75.11 240.08 21.7 259.69 16.59 281.76 62.38 312.8 139.56 346.24 228.55 367.31 304.12 373.37 353.26 353.25 373.37 304.12 367.31 228.55 346.23 139.55 312.79 62.38 281.74 16.58 259.66 21.69 240.05 75.11 232.33 161.31 235.18 245.24 240.08 285.41 252.31 263.31 270.53 183.38 288.76 81.09 312.12 7.73 341.6 -5.93 373.12 42.45 413.99 132.18 465.19 226.48 518.85 295.83 579.91 319.82 641.44 300.48 690.61 247.12 722.84 184.44 726.61 132.5 701.37 97.32 647.41 90.46 577.39 107.74 519.19 144.07 489.74 191.36 508.21 240.27 574.99 292.92 671.55 339.15 762.52 376.3 809.73 412.91 791.32 440.57 711.39 458.79Q711.39 458.79 711.39 458.79" opacity="0.34"></path><path d="M687.33 326.25C518.69 359.39 509.83 360.33 640.14 352.34 749.53 374.57 709.48 445.82 581.53 581.57 445.79 709.5 374.56 749.52 352.35 640.11 360.36 509.82 359.43 518.73 326.29 687.39 262.06 735.2 140.05 509.52 242.12 649.8 326.64 694.88 331.54 652.31 197.86 577.02 43.26 483.81 38.69 413.86 207.33 380.72 308.93 347.58 214.92 354.4 74.61 390.18 49.02 408.05 169.13 398.91 310.35 310.39 398.89 169.16 408.07 49.04 390.22 74.59 354.44 214.89 347.63 308.94 380.77 207.39 413.89 38.73 483.83 43.24 577.03 197.83 673.59 329.09 509.51 140.07 516.86 165.5 681.45 230.91 788.93 293.11 687.38 326.24Q687.33 326.25 687.33 326.25" opacity="0.46"></path><path d="M663.34 252.26C506.68 282.08 469.76 310 564.87 354.95 691.02 422.39 720.71 530.27 652.33 652.33 530.27 720.71 422.39 691.02 354.95 564.87 310 469.76 282.08 506.68 252.26 663.34 222.43 764.25 193.53 691.4 186.8 538.86 175.81 552.98 301.87 472.8 140.81 463.77 64.83 432.59 117.06 358.9 234.56 234.56 358.9 117.06 432.59 64.83 463.77 140.81 469.2 271.49 476.4 332.25 506.23 231.34 536.04 74.68 585.66 49.85 631.92 166.81 545.1 289.35 727.81 207.98 663.39 252.25Q663.34 252.26 663.34 252.26" opacity="0.33"></path><path d="M639.34 295.41C496.44 321.92 438.32 371.17 493.93 445.46 647.66 570.03 570.03 647.66 445.46 493.93 371.17 438.32 321.92 496.44 295.41 639.34 268.9 737.14 267.65 696.3 295.99 568.54 328.38 446.89 379.49 406.14 410.66 435.5 378.86 507.97 275.81 565.28 140.1 586.12 65.06 591.59 112.44 573.92 255.34 547.41 353.14 520.9 323.05 488.06 214.71 436.65 112.5 369.88 99.87 271.19 163.97 163.97 271.19 99.87 369.87 112.49 436.65 214.69 488.05 323.02 520.89 353.15 547.4 255.39 573.91 112.47 591.59 65.06 586.13 140.08 565.3 275.79 508 378.85 435.52 410.66 406.15 379.48 446.87 328.37 568.5 295.99 696.28 267.64 737.15 268.89 639.39 295.4Q639.34 295.41 639.34 295.41" opacity="0.70"></path><path d="M615.34 421.52C487.74 444.72 416.01 492.98 433.6 555.89 520.08 609.21 607.94 651.55 651.85 651.85 651.55 607.94 609.21 520.08 555.89 433.6 492.98 416.01 444.72 487.74 421.52 615.34 398.33 707.69 402.39 694.43 425.1 599.25 438.23 478.81 444.37 397.02 414.26 372.2 339.95 396.07 227.49 436.78 124.01 464.49 89.42 492.29 151.74 494.85 279.34 471.65 371.69 448.45 367.83 401.7 289.66 333.7 157.62 227.34 227.34 157.61 333.69 289.64 401.69 367.82 448.45 371.71 471.64 279.39 494.85 151.78 492.3 89.42 464.51 123.99 436.81 227.46 396.09 339.93 372.2 414.25 397.01 444.36 478.78 438.22 599.22 425.1 694.41 402.38 707.71 398.32 615.39 421.51Q615.34 421.52 615.34 421.52" opacity="0.35"></path><path d="M591.34 530.56C441.57 564.67 471.51 614.55 566.79 566.79 589.61 456.54 505.97 680.23 492.6 624.32 472.35 525.36 432.6 431.09 363.14 369.16 231.26 338.96 157.6 358.27 303.34 339.05 387.97 319.17 404.55 279.97 358.95 231.35 274.57 191.52 201.39 162.26 165.51 165.51 162.26 201.39 191.52 274.57 231.35 358.95 279.97 404.55 319.17 387.97 339.05 303.34 358.29 157.6 338.97 231.26 369.14 363.14 431.07 432.6 525.33 472.35 624.29 492.6 684.48 501.25 675.99 510.67 591.39 530.55Q591.34 530.56 591.34 530.56" opacity="0.19"></path><path d="M567.34 536.02C388.51 560.26 560.26 388.51 536.02 567.34 502.88 668.94 425.1 563.18 285.33 420.65 165.18 320.36 158.7 287.93 327.34 254.8 428.94 221.66 350.04 194.08 250.95 250.95 194.08 350.04 221.66 428.94 254.8 327.34 287.93 158.7 320.36 165.18 420.65 285.33 563.17 425.09 668.94 502.88 567.39 536.01Q567.34 536.02 567.34 536.02" opacity="0.14"></path><path d="M543.34 433.58C400.45 460.09 336.42 422.95 355.52 355.52 422.95 336.42 460.09 400.45 433.58 543.34 407.07 641.14 321.93 599.66 219.76 498.55 165.91 384.25 208.45 312.23 351.34 285.72 439.15 271.22 271.22 439.15 285.72 351.34 312.23 208.45 384.25 165.91 498.55 219.76 599.66 321.93 641.14 407.07 543.34 433.58Q543.34 433.58 543.34 433.58" opacity="0.80"></path><path d="M519.34 304.5C408.36 324.38 328.95 312.04 302.21 302.21 312.04 328.95 324.38 408.36 304.5 519.34 284.61 603.98 236.27 609.67 200.39 563.83 201.07 490.21 264.36 427.18 375.34 407.3 470.88 400.93 400.93 470.88 407.3 375.34 427.18 264.36 490.21 201.07 563.83 200.39 609.67 236.27 603.98 284.61 519.34 304.5Q519.34 304.5 519.34 304.5" opacity="0.13"></path><path d="M495.34 251.17C352.48 277.67 277.67 352.48 251.17 495.34 224.66 593.14 256.48 549.58 399.34 523.08 497.14 496.57 496.57 497.14 523.08 399.34 549.58 256.48 593.14 224.66 495.34 251.17Q495.34 251.17 495.34 251.17" opacity="0.25"></path></g></svg>