<?xml version="1.0" encoding="UTF-8" standalone="no"?>
<!-- Created with Inkscape (http://www.inkscape.org/) -->

<svg
   version="1.1"
   id="svg1"
   width="1000"
   height="666.66669"
   viewBox="0 0 1000 666.66669"
   sodipodi:docname="9058421.eps"
   xmlns:inkscape="http://www.inkscape.org/namespaces/inkscape"
   xmlns:sodipodi="http://sodipodi.sourceforge.net/DTD/sodipodi-0.dtd"
   xmlns="http://www.w3.org/2000/svg"
   xmlns:svg="http://www.w3.org/2000/svg">
  <defs
     id="defs1" />
  <sodipodi:namedview
     id="namedview1"
     pagecolor="#ffffff"
     bordercolor="#000000"
     borderopacity="0.25"
     inkscape:showpageshadow="2"
     inkscape:pageopacity="0.0"
     inkscape:pagecheckerboard="0"
     inkscape:deskcolor="#d1d1d1">
    <inkscape:page
       x="0"
       y="0"
       inkscape:label="1"
       id="page1"
       width="1000"
       height="666.66669"
       margin="0"
       bleed="0" />
  </sodipodi:namedview>
  <g
     id="g1"
     inkscape:groupmode="layer"
     inkscape:label="1">
    <g
       id="group-R5">
      <path
         id="path2"
         d="M 7500,5000 H 0 V 0 h 7500 v 5000"
         style="fill:#ffffff;fill-opacity:1;fill-rule:nonzero;stroke:none"
         transform="matrix(0.13333333,0,0,-0.13333333,0,666.66667)" />
      <path
         id="path3"
         d="m 268.238,1228.53 c 0.168,0.86 0.34,1.72 0.516,2.58 -1.52,0.13 -3.035,0.35 -4.539,0.29 -0.176,-0.01 -0.289,-1.57 -0.426,-2.41 1.481,-0.16 2.965,-0.31 4.449,-0.46 z m 121.735,276.77 -0.485,-0.44 c 0,0 0.489,0.44 0.485,0.44 z M 282.777,1246.15 c 0,0 -0.39,0.39 -0.394,0.38 z M 534.809,1088.6 c -34.746,12.39 -64.813,32.89 -95.145,57.64 4.777,-18.06 4.832,-18 28.774,-38.63 11.859,-10.21 23.492,-20.68 35.57,-31.36 -31.25,-12.35 -31.356,-12.47 -52.934,8.01 -9.105,8.65 -17.121,18.51 -26.617,26.67 -8.988,7.73 -15.727,4.98 -16.613,-6.88 -1.012,-13.56 -1.028,-27.34 0.191,-40.87 2.926,-32.54 2.707,-64.969 -0.808,-97.399 -0.672,-6.23 -0.516,-12.832 -2.61,-18.582 -3.215,-8.867 -7.879,-18.48 -18.5,-19.347 -10.937,-0.891 -13.004,8.339 -14.101,17.136 -0.395,3.141 -1.774,8.082 -4.614,7.262 -24.605,-7.121 -16.172,12.301 -16.14,21.559 0.066,21.961 1.48,44.051 4.402,65.811 1.617,12.08 0.641,22.63 -4.945,33.39 -12.809,-0.32 -14.293,-13.74 -24.805,-20.15 -1.074,11.71 2.539,20.85 6.996,29.92 4.059,8.26 -0.078,13.96 -6.422,18.79 l 0.465,-0.42 c 8.766,13.56 22.289,24.51 25.219,46.07 -26.899,-26.19 -53.852,-46.86 -69.777,-77.65 l 0.527,0.46 c -4.082,-0.88 -8.649,-0.89 -12.156,-2.82 -9.707,-5.34 -18.278,-18.56 -29.453,-1.14 -1.766,2.75 -9.61,-3.02 -14.813,0.46 -0.34,9 8.125,11.13 12.695,16.29 14.149,15.93 32.836,27.72 36.926,52.09 2.106,12.51 19.254,18.65 26.215,38.58 -29.879,-20.73 -43.32,-51.87 -72.469,-65.87 4.199,27.53 22.074,47.78 31.5,78.02 -40.234,-17.06 -56.82,-54.82 -89.914,-71.35 26.445,33.77 57.91,63.28 83.086,100.11 -23.996,7.65 -30.918,-16.41 -47.469,-17.82 -0.004,-0.01 0.41,-0.43 0.41,-0.43 6.829,11.36 13.813,22.62 20.43,34.11 5.742,9.96 12.051,20.25 -2.144,28.86 l 0.203,-0.21 c 17.969,45.35 58.898,72.73 86.566,110.51 5.403,7.38 14.531,12.35 14.813,23.25 -8.7,5.73 -11.61,-2.81 -15.012,-6.38 -13.727,-14.36 -26.914,-29.26 -39.77,-44.42 -10.847,-12.79 -23.621,-20.53 -40.902,-19.05 l 0.461,-0.42 c 17.586,22.84 34.281,46.29 48.898,71.16 4.282,7.27 5.758,13.57 -4.628,16.69 l 0.324,-0.4 c 12.23,18.49 29.344,35.18 20.027,61.06 -1.808,5.04 4.317,8.94 6.984,13.28 6.461,10.53 11.192,21.62 10.418,35.05 -14.128,-3.26 -18.171,-19.59 -32.335,-19.46 l 0.429,-0.43 c 27.567,41.24 60.258,79.07 82.637,129.2 21.906,-37.03 53.816,-61.58 67.898,-99.08 l 0.387,0.29 c -5.492,4.44 -10.984,8.89 -20.476,16.57 5.277,-28.48 14.8,-50.25 25.234,-72.11 10.266,-21.51 33.305,-36.35 35.695,-68.15 -26.019,19.25 -34.523,47.17 -56.051,63.17 -2.554,7.21 -4.621,14.86 -14.679,16.6 -0.778,-9.54 5.504,-14.68 9.996,-20.68 12.328,-28.41 35.765,-50.47 45.762,-80.21 0.007,0 0.398,0.37 0.398,0.37 -2.105,-0.12 -4.207,-0.25 -6.309,-0.36 l 0.317,0.35 c -0.817,-10.98 6.535,-19.9 7.672,-30.37 -1.028,-0.96 -2.047,-1.91 -3.067,-2.87 -25.168,37.91 -50.336,75.82 -77.718,117.07 -6.672,-16.7 0.496,-26.65 5.761,-35.46 25.723,-43.13 52.528,-85.59 78.653,-128.47 8.914,-14.64 22.058,-25.14 34.207,-36.56 8.531,-8.03 17.562,-15.24 16.945,-28.49 l 0.363,0.38 c -19.484,5.08 -30.887,23.65 -52.64,32.67 2.886,-14.94 11.339,-22.24 18.336,-30.42 13.441,-15.72 30.816,-28.03 40.644,-46.88 l 0.051,0.05 c -13.317,-9.18 -7.965,-18.9 -1.203,-29.11 9.023,-13.62 23.918,-22.6 32.414,-39.72 -14,-2.9 -21.149,5.46 -28.239,11.83 -6.07,5.45 -10.546,4.97 -15.839,0.03 l 0.558,0.46 c -22.957,10.58 -37.461,32.7 -59.949,44 -3.547,1.79 -6.184,5.48 -13.199,1.84 25.902,-39.33 66.867,-62.95 97.59,-96.54 l 0.418,-0.15"
         style="fill:#000000;fill-opacity:1;fill-rule:nonzero;stroke:none"
         transform="matrix(0.13333333,0,0,-0.13333333,0,666.66667)" />
      <path
         id="path4"
         d="m 7261.98,1068.19 c 0.91,0.47 1.82,0.94 2.73,1.39 -1.06,1.47 -2.07,2.96 -3.28,4.32 -0.06,0.08 -1.63,-0.89 -2.5,-1.37 1.02,-1.45 2.03,-2.91 3.05,-4.34 z m -14.08,304.1 c 7.12,-18.91 23.98,-32.47 34.19,-49.7 2.86,-4.83 10.37,-12.7 4.24,-14.71 -34.6,-11.34 -5.31,-25.91 -3.62,-38.91 -1.28,-1.11 -2.54,-2.23 -3.82,-3.34 -4.01,1.1 -8,2.21 -12,3.31 -1.78,3.84 -4.68,9.05 -9.26,4.95 -4.59,-4.09 1.26,-6.68 5.54,-8.27 6.56,-18.23 23.33,-30.86 32.71,-47.55 l 0.48,0.42 c -13.71,-19.62 2.14,-33.7 13.67,-46.32 11.37,-12.44 27.58,-21.35 41.66,-31.8 0,-0.01 0.46,0.43 0.46,0.43 -3.95,-4.79 -7.82,-9.4 -3.41,-15.83 4.61,-6.73 13.09,-13.91 4,-21.78 -8.55,-7.41 -16.97,0.55 -25.46,2.53 -17.93,4.17 -39.13,-2.36 -54.75,20.85 -3.21,-20.19 8.43,-25.14 15.61,-32.42 19.3,-19.57 11.04,-45.73 -15.94,-53.2 -6.55,-1.8 -10.62,0.96 -13.82,3.75 -11.87,10.38 -27.08,11.16 -42.61,14.75 -8.75,-19.91 -0.02,-38.49 0.88,-56.76 0.93,-18.952 0.12,-37.639 -2.37,-56.229 -2.08,-15.473 -8.97,-29.262 -25.19,-38.07 -18.92,-10.27 -30.95,-5.59 -29.74,14.3 1.49,24.668 -5.38,49.02 -0.31,73.868 3.47,17.051 -2.52,34.091 -5.45,49.281 -15.24,4.23 -14.01,-11.96 -24.83,-10.27 -7.68,14.74 1.37,29.55 -0.01,47.22 -28.58,-12.22 -34.3,-41.87 -58.35,-55.04 -8.81,12.43 11.15,19.4 4.11,30.87 -14.82,-0.83 -19.92,-15.25 -34.68,-17.52 -4.11,6.48 12.35,13.19 2.65,19.13 -7.39,4.52 -14.31,-4.84 -24.63,-2.58 -15.92,40.91 23.72,64.01 42.77,97.03 -33.52,1.68 -38.41,-35.21 -70.1,-36.33 7.54,25.93 44.85,31.26 46.48,51.61 1.75,21.87 13.12,37.82 27.74,61.85 -32.06,-11.04 -42.66,-37.29 -68.87,-41.97 l 0.35,0.01 c 16.31,19.75 32.65,39.48 48.9,59.27 4.6,5.6 10.76,11.56 5.35,18.78 -5.88,7.84 -13.82,2.76 -21.22,1.11 -7.17,-1.6 -11.55,-10.18 -21.21,-6.52 22.91,34.26 56.04,62.97 72.59,105.96 -29.5,-6.35 -39.77,-35.14 -68.33,-30.78 l 0.52,-0.27 c 29.64,24.62 55.22,52.07 74.48,84.06 3.19,5.28 6.5,9.95 1.45,17.98 -19.77,-3.49 -32.64,-21.41 -53.33,-23.39 l 0.35,-0.29 c 9.23,9.91 18.9,19.54 27.58,29.82 7.89,9.37 15.49,19.29 7.94,32.32 -15.81,-0.51 -23.7,-13.41 -40.46,-20.84 21.91,33.23 54.65,55.55 70.46,88.62 -13.55,8.8 -23.32,-1.75 -34.19,-2.62 l 0.43,-0.4 c 4.94,5.45 8.8,12.29 14.99,16.12 30.4,18.84 49.18,44.94 62.03,75.17 1.85,4.33 3.65,9 6.89,12.46 10.78,11.48 32.33,7.96 35.56,-6.68 3.91,-17.74 13.7,-32.85 22.47,-48.43 16.07,-28.5 33.68,-56.46 34.59,-89.45 0.21,-7.33 2.26,-13.86 5.14,-20.37 13.36,-30.13 13.42,-30.11 -23.86,-26.85 3.71,-16.02 16.71,-26.47 28.23,-37.41 11.55,-10.97 26.45,-19.21 33.53,-33.79 -8.92,-8.21 -14.1,-0.1 -20.15,3.03 -17.01,8.8 -10.64,-8.22 -16.45,-11.78 -1.34,-0.11 -2.68,-0.2 -4.02,-0.29 0.47,-0.7 0.95,-1.4 1.42,-2.1"
         style="fill:#000000;fill-opacity:1;fill-rule:nonzero;stroke:none"
         transform="matrix(0.13333333,0,0,-0.13333333,0,666.66667)" />
      <path
         id="path5"
         d="m 6582.22,1125.17 c 1.51,2.59 0.78,4.29 -2.24,4.78 -1.02,0.17 -2.3,0.09 -3.15,-0.39 -2.28,-1.32 -2.66,-3.67 -0.42,-4.89 1.42,-0.78 3.84,0.27 5.81,0.5 z m 293.5,13.22 c -5.96,-7.92 -14.75,-10.25 -23.66,-13.42 -16.59,-5.92 -16.75,-11.1 -3.73,-23.6 11.9,-11.42 28.96,-13.74 43.12,-23.86 -12.89,-12.95 -37.67,-3.55 -42.45,-26.69 -0.66,-3.16 -8.31,0.49 -12.48,2.47 -9.36,4.41 -18.77,8.74 -29.73,9.17 -1.83,-11.13 9.77,-14.97 12.05,-23.53 l 0.37,0.39 c -10.64,-0.01 -19.08,9.63 -30.21,7.15 -7.39,-7.08 6.7,-12.13 0.62,-19.71 -2.37,-0.43 -5.78,-1.86 -8.99,-1.49 -36.07,4.21 -40.25,0.97 -40.49,-35.598 -0.18,-25.871 1.35,-51.75 1.19,-77.613 -0.11,-17.61 -0.02,-35.957 -18.26,-46.707 -4.8,-2.832 -9.02,-8.653 -15.61,-4.883 -5.89,3.371 -6.69,9.703 -5.98,15.492 4.79,38.769 -0.19,77.469 -0.46,116.18 -0.08,11.489 2.53,23.459 -3.59,34.449 -11.35,3.16 -11.33,-10.67 -19.79,-12.61 -13.06,2.11 -4.71,25.17 -20.52,23.38 -10.2,-1.15 -19.94,-6.5 -29.85,-10.08 -16.69,-6.04 -33.61,-10.9 -51.67,-9.18 -7.33,0.7 -13.89,3.06 -16.64,10.8 -2.79,7.87 0.39,13.35 7.04,17.84 4.84,3.27 10.35,6.64 13.31,11.37 6.25,10 10.46,21.2 -8.79,20.07 -9.53,-0.56 -12.62,3.33 -12.85,11.88 -0.24,8.15 -0.29,16.38 -1.51,24.41 -2.03,13.23 1.33,22.4 14.88,27.51 7.55,2.84 14.04,8.43 21.19,12.45 12.26,6.89 17.07,15.27 7.61,28.25 -7.99,10.99 -5.24,20.24 2.27,31.85 10.61,16.39 13.97,34.12 9.46,55.98 -3.08,14.94 9.26,34.29 17.73,50.04 8.03,14.96 15.88,30.34 31.61,40.76 10.81,7.16 11.12,18.51 -5.94,21.2 -13.49,2.13 -12.86,10.45 -5.76,17.17 15.46,14.62 8.51,38.31 24.51,53.27 13.32,12.44 24.62,27.05 30.59,46.14 4.95,15.79 31.54,13.93 42.67,-2.85 14.35,-21.61 28.71,-42.5 57.43,-50.86 -6.45,-9.55 -22.62,-9.6 -17.72,-25.47 3.16,-10.27 -6.51,-22.96 3.68,-33.28 2.47,-2.52 5.48,-4.77 7.18,-7.75 6.3,-11.01 12.15,-22.29 18.16,-33.48 -13.92,-4.22 -9.4,-22.35 -14.56,-25.78 -19.98,-13.24 -6.91,-20.62 2.43,-28.22 14.58,-11.84 30.11,-22.56 45.45,-33.45 4.75,-3.38 10.4,-5.59 10.82,-12.82 -4.61,-9.4 -11.84,-3.55 -18.04,-2.67 -12.97,1.82 -23.2,1.63 -13.86,-15.86 0.56,-1.04 1.38,-2.02 1.6,-3.12 2.04,-10.17 -16.8,-18.88 -1.73,-30.25 10.31,-7.79 22.07,-6.87 33.72,-7.81 3.13,-0.25 6.13,-2.14 9.78,-3.51 -6.61,-20.47 -31.79,-8.28 -40.55,-25.63 9.68,-18.59 31.07,-10.47 45.4,-18.35 l -0.45,0.46"
         style="fill:#000000;fill-opacity:1;fill-rule:nonzero;stroke:none"
         transform="matrix(0.13333333,0,0,-0.13333333,0,666.66667)" />
      <path
         id="path6"
         d="m 3887.9,1120.19 c 1.13,1.94 0.59,3.2 -1.67,3.57 -0.76,0.13 -1.72,0.07 -2.36,-0.29 -1.69,-0.98 -1.98,-2.73 -0.31,-3.65 1.07,-0.58 2.88,0.19 4.34,0.37 z m 219.3,9.88 c -4.47,-5.92 -11.03,-7.66 -17.69,-10.03 -12.39,-4.42 -12.52,-8.29 -2.78,-17.62 8.89,-8.54 21.64,-10.27 32.22,-17.84 -9.63,-9.67 -28.15,-2.64 -31.72,-19.93 -0.49,-2.37 -6.21,0.36 -9.32,1.83 -7,3.3 -14.03,6.54 -22.22,6.85 -1.37,-8.31 7.3,-11.18 9,-17.57 0.01,0 0.28,0.3 0.28,0.3 -7.95,-0.01 -14.26,7.19 -22.57,5.33 -5.52,-5.28 5,-9.06 0.46,-14.73 -1.78,-0.31 -4.32,-1.38 -6.72,-1.11 -26.94,3.15 -30.07,0.72 -30.25,-26.59 -0.13,-19.331 1.01,-38.659 0.89,-57.991 -0.08,-13.16 -0.01,-26.86 -13.65,-34.899 -3.58,-2.109 -6.72,-6.461 -11.65,-3.64 -4.4,2.519 -5.01,7.242 -4.47,11.57 3.58,28.961 -0.14,57.879 -0.35,86.81 -0.06,8.58 1.9,17.52 -2.68,25.73 -8.47,2.36 -8.46,-7.97 -14.79,-9.42 -9.76,1.58 -3.52,18.8 -15.32,17.46 -7.62,-0.85 -14.91,-4.85 -22.3,-7.52 -12.48,-4.52 -25.11,-8.15 -38.61,-6.86 -5.48,0.52 -10.38,2.28 -12.43,8.07 -2.08,5.88 0.29,9.98 5.25,13.33 3.61,2.44 7.74,4.96 9.94,8.49 4.68,7.47 7.82,15.84 -6.56,14.99 -7.12,-0.41 -9.42,2.49 -9.6,8.88 -0.18,6.09 -0.21,12.24 -1.13,18.23 -1.52,9.89 0.99,16.75 11.12,20.56 5.65,2.12 10.49,6.3 15.83,9.31 9.17,5.15 12.75,11.4 5.69,21.11 -5.96,8.19 -3.91,15.12 1.69,23.79 7.93,12.24 10.44,25.49 7.07,41.82 -2.3,11.17 6.92,25.62 13.25,37.4 6,11.17 11.86,22.66 23.62,30.45 8.08,5.35 8.3,13.82 -4.44,15.84 -10.07,1.59 -9.61,7.8 -4.31,12.82 11.55,10.93 6.37,28.62 18.32,39.8 9.95,9.3 18.39,20.22 22.85,34.47 3.69,11.8 23.57,10.41 31.89,-2.12 10.71,-16.15 21.45,-31.76 42.91,-38.01 -4.83,-7.12 -16.91,-7.17 -13.26,-19.03 2.38,-7.66 -4.85,-17.15 2.76,-24.87 1.85,-1.87 4.1,-3.55 5.37,-5.78 4.7,-8.23 9.07,-16.66 13.56,-25.01 -10.4,-3.16 -7.02,-16.71 -10.88,-19.26 -14.92,-9.9 -5.15,-15.42 1.82,-21.09 10.9,-8.85 22.5,-16.86 33.96,-24.99 3.55,-2.52 7.77,-4.18 8.08,-9.58 -3.44,-7.03 -8.85,-2.65 -13.48,-1.99 -9.68,1.35 -17.33,1.22 -10.35,-11.86 0.41,-0.77 1.03,-1.5 1.2,-2.32 1.52,-7.61 -12.55,-14.11 -1.29,-22.6 7.7,-5.82 16.48,-5.14 25.18,-5.84 2.35,-0.19 4.58,-1.6 7.31,-2.63 -4.94,-15.29 -23.74,-6.18 -30.3,-19.14 7.24,-13.89 23.22,-7.83 33.93,-13.71 l -0.33,0.34"
         style="fill:#000000;fill-opacity:1;fill-rule:nonzero;stroke:none"
         transform="matrix(0.13333333,0,0,-0.13333333,0,666.66667)" />
      <path
         id="path7"
         d="m 4496.74,1087.23 c 1.03,1.8 0.54,2.97 -1.55,3.31 -0.71,0.11 -1.6,0.06 -2.18,-0.28 -1.57,-0.9 -1.84,-2.52 -0.29,-3.37 0.98,-0.54 2.65,0.18 4.02,0.34 z m 202.74,9.14 c -4.12,-5.47 -10.19,-7.09 -16.35,-9.28 -11.46,-4.09 -11.57,-7.65 -2.57,-16.29 8.22,-7.9 20.01,-9.5 29.79,-16.48 -8.9,-8.95 -26.02,-2.46 -29.33,-18.44 -0.45,-2.18 -5.74,0.35 -8.62,1.69 -6.46,3.06 -12.97,6.05 -20.53,6.34 -1.27,-7.68 6.74,-10.33 8.32,-16.25 l 0.26,0.27 c -7.35,-0.01 -13.18,6.65 -20.87,4.94 -5.12,-4.89 4.62,-8.37 0.42,-13.61 -1.64,-0.3 -3.99,-1.29 -6.2,-1.03 -24.92,2.91 -27.81,0.66 -27.98,-24.589 -0.12,-17.871 0.94,-35.743 0.82,-53.621 -0.08,-12.161 -0.01,-24.84 -12.62,-32.258 -3.31,-1.953 -6.22,-5.981 -10.77,-3.371 -4.07,2.32 -4.63,6.699 -4.13,10.699 3.31,26.781 -0.14,53.512 -0.32,80.262 -0.06,7.928 1.76,16.198 -2.48,23.788 -7.83,2.18 -7.82,-7.37 -13.67,-8.71 -9.03,1.45 -3.26,17.38 -14.17,16.15 -7.05,-0.79 -13.78,-4.49 -20.62,-6.97 -11.54,-4.17 -23.22,-7.52 -35.69,-6.33 -5.07,0.47 -9.6,2.11 -11.5,7.46 -1.93,5.44 0.27,9.22 4.86,12.32 3.34,2.26 7.15,4.59 9.19,7.85 4.32,6.91 7.23,14.64 -6.07,13.87 -6.58,-0.39 -8.71,2.29 -8.87,8.2 -0.16,5.63 -0.2,11.32 -1.05,16.86 -1.4,9.15 0.92,15.48 10.28,19 5.22,1.97 9.7,5.83 14.64,8.61 8.47,4.76 11.79,10.54 5.27,19.52 -5.53,7.58 -3.63,13.97 1.56,21.99 7.32,11.33 9.65,23.57 6.53,38.67 -2.13,10.32 6.39,23.69 12.24,34.57 5.55,10.33 10.97,20.96 21.84,28.16 7.46,4.95 7.68,12.78 -4.1,14.64 -9.31,1.48 -8.88,7.22 -3.98,11.86 10.67,10.11 5.88,26.46 16.93,36.8 9.2,8.6 17,18.69 21.13,31.87 3.42,10.91 21.79,9.63 29.48,-1.96 9.91,-14.93 19.83,-29.37 39.67,-35.15 -4.46,-6.58 -15.63,-6.62 -12.24,-17.59 2.19,-7.09 -4.49,-15.85 2.54,-22.99 1.71,-1.73 3.79,-3.28 4.96,-5.35 4.34,-7.6 8.39,-15.4 12.55,-23.12 -9.62,-2.92 -6.5,-15.45 -10.06,-17.8 -13.8,-9.15 -4.78,-14.26 1.68,-19.5 10.07,-8.19 20.8,-15.59 31.39,-23.11 3.29,-2.33 7.19,-3.87 7.48,-8.86 -3.19,-6.5 -8.18,-2.45 -12.48,-1.84 -8.95,1.26 -16.01,1.12 -9.56,-10.96 0.39,-0.71 0.95,-1.4 1.11,-2.16 1.4,-7.02 -11.6,-13.04 -1.19,-20.89 7.12,-5.38 15.24,-4.74 23.28,-5.39 2.17,-0.17 4.24,-1.49 6.76,-2.43 -4.57,-14.14 -21.96,-5.72 -28.01,-17.69 6.68,-12.86 21.45,-7.25 31.36,-12.69 l -0.31,0.32"
         style="fill:#000000;fill-opacity:1;fill-rule:nonzero;stroke:none"
         transform="matrix(0.13333333,0,0,-0.13333333,0,666.66667)" />
      <path
         id="path8"
         d="m 575.344,1153.79 c 1.238,2.13 0.636,3.53 -1.844,3.94 -0.84,0.14 -1.895,0.08 -2.594,-0.33 -1.867,-1.09 -2.179,-3.01 -0.34,-4.02 1.168,-0.63 3.157,0.22 4.778,0.41 z m 241.316,10.87 c -4.906,-6.5 -12.133,-8.42 -19.457,-11.03 -13.644,-4.87 -13.773,-9.12 -3.066,-19.4 9.781,-9.39 23.812,-11.3 35.457,-19.62 -10.606,-10.65 -30.977,-2.92 -34.91,-21.94 -0.539,-2.6 -6.829,0.4 -10.254,2.02 -7.703,3.63 -15.442,7.19 -24.45,7.54 -1.507,-9.14 8.032,-12.3 9.903,-19.34 0.004,0.01 0.312,0.33 0.312,0.33 -8.75,-0.01 -15.691,7.91 -24.836,5.87 -6.082,-5.82 5.504,-9.97 0.504,-16.2 -1.953,-0.36 -4.754,-1.54 -7.386,-1.23 -29.661,3.46 -33.094,0.79 -33.297,-29.27 -0.145,-21.26 1.113,-42.538 0.98,-63.808 -0.09,-14.48 -0.015,-29.57 -15.015,-38.41 -3.942,-2.32 -7.411,-7.113 -12.829,-4 -4.843,2.769 -5.503,7.976 -4.918,12.726 3.942,31.883 -0.16,63.692 -0.378,95.532 -0.067,9.44 2.085,19.29 -2.957,28.31 -9.321,2.61 -9.309,-8.77 -16.274,-10.36 -10.73,1.73 -3.871,20.69 -16.863,19.22 -8.387,-0.94 -16.395,-5.34 -24.539,-8.28 -13.731,-4.98 -27.641,-8.97 -42.481,-7.55 -6.027,0.57 -11.426,2.51 -13.683,8.87 -2.293,6.48 0.32,10.98 5.785,14.67 3.972,2.69 8.504,5.46 10.937,9.36 5.141,8.21 8.61,17.42 -7.222,16.49 -7.836,-0.46 -10.371,2.74 -10.571,9.77 -0.187,6.7 -0.226,13.46 -1.234,20.06 -1.672,10.88 1.094,18.42 12.234,22.62 6.211,2.34 11.543,6.94 17.422,10.25 10.082,5.66 14.031,12.54 6.266,23.22 -6.574,9.03 -4.313,16.64 1.859,26.18 8.723,13.49 11.489,28.06 7.778,46.04 -2.539,12.28 7.609,28.19 14.57,41.14 6.605,12.29 13.058,24.94 25.992,33.5 8.887,5.89 9.141,15.22 -4.883,17.44 -11.086,1.75 -10.578,8.59 -4.742,14.11 12.711,12.03 7.004,31.5 20.16,43.8 10.949,10.23 20.235,22.24 25.149,37.93 4.066,12.98 25.937,11.46 35.086,-2.34 11.789,-17.76 23.609,-34.94 47.222,-41.82 -5.316,-7.84 -18.605,-7.89 -14.578,-20.93 2.602,-8.44 -5.344,-18.88 3.027,-27.38 2.036,-2.06 4.504,-3.91 5.903,-6.35 5.176,-9.07 9.984,-18.34 14.93,-27.53 -11.446,-3.48 -7.727,-18.38 -11.969,-21.19 -16.426,-10.89 -5.68,-16.97 2,-23.21 11.992,-9.74 24.758,-18.55 37.367,-27.51 3.906,-2.77 8.555,-4.6 8.891,-10.54 -3.782,-7.73 -9.731,-2.91 -14.832,-2.19 -10.661,1.49 -19.067,1.34 -11.387,-13.04 0.453,-0.85 1.129,-1.66 1.312,-2.57 1.68,-8.37 -13.808,-15.51 -1.422,-24.87 8.485,-6.4 18.141,-5.64 27.723,-6.42 2.567,-0.2 5.031,-1.76 8.035,-2.89 -5.433,-16.82 -26.133,-6.8 -33.336,-21.06 7.957,-15.29 25.539,-8.62 37.325,-15.1 l -0.36,0.38"
         style="fill:#000000;fill-opacity:1;fill-rule:nonzero;stroke:none"
         transform="matrix(0.13333333,0,0,-0.13333333,0,666.66667)" />
      <path
         id="path9"
         d="m 3483.57,3425.4 c -0.01,-0.01 -0.01,-0.01 -0.01,-0.01 v 0 0 c -0.02,-0.16 -0.06,-0.31 -0.1,-0.46 0.15,0.02 0.31,0.05 0.47,0.06 l -0.36,0.41"
         style="fill:#000000;fill-opacity:1;fill-rule:nonzero;stroke:none"
         transform="matrix(0.13333333,0,0,-0.13333333,0,666.66667)" />
      <path
         id="path10"
         d="m 5600.95,2657.57 c -11.95,9.98 -22.92,21.16 -35.14,30.76 -46.25,36.4 -74.69,84.59 -97.95,137.82 -14.85,33.98 -43.28,60.27 -64.14,91.05 -36.48,53.8 -65.55,111.86 -96.01,169.09 -2.81,5.29 -4.72,11.13 -1.36,20.77 17.99,-14.77 29.82,-32.01 41.04,-49.03 37.69,-57.2 79.57,-110.89 123.68,-163.35 50.17,-59.66 92.62,-125.02 121.95,-198.09 6.33,-15.78 15.66,-30.36 23.77,-45.78 -9.26,-4.2 -11.8,3.39 -15.84,6.76 z m -628.84,51.02 c 3.25,6.83 9.76,6.08 15.81,5.87 1.72,-0.06 3.42,-0.51 9.42,-1.47 10.18,-0.81 22.69,5.06 35.06,11.3 7.22,3.63 14.88,6.82 21.54,0.24 5.88,-5.83 2.31,-12.76 -0.22,-19.29 -8.78,-22.73 2.51,-40.25 15.7,-56.75 12.42,-15.53 25.75,-30.33 38.61,-45.51 2.79,-3.29 5.46,-6.71 7.95,-10.23 3.38,-4.78 9.14,-10.15 2.8,-15.59 -4.46,-3.84 -9.48,0.13 -13.66,3.59 -8.01,6.61 -17.08,12.1 -24.31,19.43 -29.21,29.65 -64.05,52.63 -94.43,80.86 -3.17,2.95 -6.63,5.61 -9.56,8.76 -4.95,5.32 -8.22,11.43 -4.71,18.79 z m -472.1,392.24 c 22.26,-45.01 46.83,-88.73 72.1,-132.1 17.93,-30.76 28.82,-64.73 42.74,-97.32 19.53,-45.68 49.87,-84.93 74.71,-127.43 11.34,-19.39 20.72,-39.91 31.03,-59.9 2.4,-4.67 5.14,-9.25 -0.34,-16.18 -53.68,45.97 -106.99,90.85 -136.15,155.43 -26.45,58.58 -66.84,109.08 -92.94,167.69 -11.64,26.16 -22.69,52.45 -27.95,80.63 -3,16.05 -5.42,32.76 2.84,48.28 5.73,10.73 12.48,11.74 19.95,2.68 5.46,-6.62 10.2,-14.07 14.01,-21.78 z M 4417.12,3291 c -4.72,-3.17 -6.54,-0.86 -7.9,1.2 -23.56,35.8 -57.08,59.99 -94.29,79.28 -33.92,17.6 -61.11,41.6 -80.91,74.47 -8.43,14.01 -18.77,26.89 -30.15,38.88 -14.95,15.76 -27.41,33.67 -38.17,52.35 -28.63,49.66 -62.47,95.21 -105.94,138.89 21.05,4.58 32.73,-6.44 41.44,-16.92 43.05,-51.72 98.5,-92.67 132.37,-152.29 53.34,-50.38 98.61,-108.89 156.02,-155.18 2.7,-2.16 4.91,-5.21 7.91,-6.69 24.9,-12.27 21.27,-33.71 19.62,-53.99 z m -638.37,-64.92 c -24.1,-32.16 -51.46,-61 -83.85,-84.45 -19.32,-14 -35.52,-30.4 -48.7,-49.77 -27.97,-41.06 -65.73,-73.59 -96.54,-112.12 -9.51,-11.89 -23.77,-8.08 -35.73,-11.43 -6.62,-1.86 -10.83,10.19 -5.32,18.07 6.44,9.17 13.56,18.27 21.99,25.55 11.34,9.79 18.55,21.69 25.81,34.55 17.03,30.18 37.87,58 58.45,85.88 16.97,22.98 34.59,45.5 50.92,68.91 21.65,31.06 33.79,66.09 39.89,103.29 2.24,13.61 3.99,27.29 6.41,40.86 0.73,4.13 1.91,9.12 4.72,11.77 11.81,11.19 16.85,25.87 22.68,40.29 1.61,3.97 3.84,7.79 6.33,11.29 4.57,6.45 11.15,7.78 18.48,5.96 7.47,-1.85 8.7,-8.08 8.61,-14.23 -0.14,-9.51 -1.15,-19.01 -2.16,-33.75 -3.95,-16.08 -0.53,-35.97 10.36,-54.88 3.41,-5.93 5.77,-12.67 7.53,-19.31 6.25,-23.47 5.84,-45.49 -9.88,-66.48 z m -74.43,-1170.43 c 14.22,15.71 28.57,30.46 52.8,26.81 3.79,-0.58 8.46,1.82 12.16,3.86 26.2,14.43 50.09,67.19 45.27,96.78 -10.44,64.11 -26.05,126.97 -43.23,189.55 -6.67,24.3 -8.32,49.57 -7.68,74.78 0.67,25.85 -11.75,46.43 -30.94,59.87 -11.77,8.23 -27.66,12.29 -40.74,20.31 -4.39,2.7 -9.46,4.43 -14.36,14.95 29.07,-0.42 54.3,0.64 72.7,-22.71 4.29,-5.44 8.36,-11.26 13.54,-15.74 11.2,-9.73 25.62,-7.27 32.83,5.49 3.38,5.98 7.08,12.62 7.6,19.2 1.6,20.3 12.79,35.32 24.26,50.75 8.23,11.07 14.91,23.32 22.1,35.15 12.08,19.91 25.86,26 48.04,20.09 7.48,-1.98 15.13,-4.59 21.67,-8.59 48.74,-29.83 101.37,-52.6 149.44,-83.74 58.81,-38.13 118.56,-74.61 173.62,-118.44 33.77,-26.89 71.21,-49.13 106.83,-73.69 25.06,-17.27 25.56,-20.27 15.74,-49.41 -4.52,-13.38 -12,-24.93 -19.71,-36.4 -67.52,-100.37 -146.6,-190.68 -236.86,-271.18 -41.39,-36.92 -79.88,-76.81 -118.36,-116.63 -56.04,-57.99 -115.36,-111.97 -180.61,-159.54 -21.61,-15.76 -40.16,-35.7 -61.63,-51.68 -41.64,-30.98 -84.48,-60.35 -126.56,-90.75 -11.2,-8.09 -21.82,-17.09 -32.04,-26.41 -6.45,-5.86 -12.27,-8.36 -20.84,-4.49 -22.88,10.34 -47.57,16.03 -70.12,27.4 -18.97,9.57 -34.64,21.39 -45.01,41.13 -11.67,22.22 -23.45,44.34 -34.42,66.94 -5.74,11.84 -7.33,22.33 -0.64,34.37 13.97,25.15 6.71,52.08 4.9,78.4 -3.18,46.59 -12.94,92.48 -13.95,139.36 -0.47,21.52 -19.78,33.62 -34.8,37.75 -37.14,10.23 -66.16,33.51 -98.45,51.49 -19.68,10.95 -38.99,22.57 -58.38,34.02 -22.6,13.35 -44.97,14.38 -69.22,2.86 -31.41,-14.92 -66.12,-19.97 -99.3,-29.63 -5.86,-1.71 -12.18,-1.9 -17.83,0.94 -5.69,2.85 -10.12,7.67 -10.13,14.11 0,5.85 5.24,8.66 10.31,10.34 9.84,3.29 19.83,6.12 29.66,9.4 30.35,10.14 60.7,20.34 91,30.63 10.89,3.71 19.21,11.6 28.36,18.08 15.7,11.11 26.18,12.5 39.01,-0.25 28.24,-28.11 63.79,-44.02 97.49,-63.45 29.17,-16.82 55.17,-38.98 78.24,-63.44 38.91,-41.26 38.12,-42.13 91.78,-55.7 11.73,-2.97 23.8,-5.14 35.84,-6.26 30.26,-2.8 45.3,7.56 54.16,36.58 4.04,13.23 7.26,26.73 11.28,39.97 2.5,8.25 5.06,16.63 8.9,24.31 10.75,21.47 20.67,26.19 44.03,22.02 4.26,-0.76 8.49,-1.85 12.64,-3.09 19.37,-5.81 36.04,-1.45 49.61,13.53 z m -798.17,366.78 c -40.66,-40.33 -71.35,-88.65 -90.94,-143.18 -7.42,-20.65 -5.93,-40.77 3.91,-60.41 5.03,-10.04 10.2,-20.09 14.17,-30.56 1.74,-4.58 1.28,-10.67 -4.31,-13.67 -4.42,-2.36 -8.37,-0.23 -11.74,2.82 -14.07,12.7 -29.63,23.86 -44.53,35.21 -33.9,25.85 -65.18,57.21 -109.51,66.51 -8.31,1.74 -16.77,4.57 -23.19,11.05 -11.88,11.98 -8.7,24.48 7.94,28.13 10.96,2.42 22.59,5.14 33.46,3.87 27.28,-3.19 49.29,9.15 70.16,22.72 17.42,11.31 35,22.24 52.93,32.7 6.7,3.91 12.98,8.73 18.84,13.83 57.45,49.9 113.48,101.23 161.72,160.44 13.67,16.78 28.2,32.87 42.08,49.49 6.29,7.53 12.82,14.21 23.5,14.13 6.95,-0.05 11.78,-2.65 11.88,-10.53 0.11,-6.67 -4.01,-11.12 -8.06,-15.73 -49.12,-55.87 -95.26,-114.23 -148.31,-166.82 z m 401.09,-183.37 c 7.2,6.15 15.14,11.43 22.5,17.43 24.91,20.28 46.6,43.51 64.92,70 9.3,13.45 18.21,27.42 32.64,36.44 4.17,2.6 7.11,8.55 13.18,4.9 5.29,-3.19 4.35,-8.87 4.31,-15.06 -11.88,-35.65 -5.87,-74.5 -14.12,-111.91 -4.93,-22.34 -2.84,-46.24 -3.79,-69.45 -0.22,-5.16 0.65,-10.43 -0.07,-15.49 -1.01,-7.04 -3.9,-13.43 -11.37,-16.03 -8.07,-2.82 -12.63,2.14 -17.44,7.64 -14.87,17.03 -27.54,35.23 -35.61,56.62 -10.22,27.13 -14.56,28.55 -38.54,13.19 -7.36,-4.71 -14.1,-7.89 -20.67,-0.55 -7.65,8.57 -3.08,16.16 4.06,22.27 z m 77.61,588.7 c 16.51,26.22 33.22,52.31 50.22,78.21 10.23,15.59 28.36,9.58 42.01,14.55 4.93,0.02 9.24,-0.47 11.05,-5.38 1.68,-4.55 0.08,-8.58 -3.12,-11.77 -11.6,-11.5 -23.41,-22.73 -34.34,-35 -15.99,-17.94 -34.47,-33.59 -49.64,-52.42 -3.55,-4.38 -8.19,-11 -14.88,-6.63 -7.22,4.72 -5.09,12.41 -1.3,18.44 z M 4647.9,2396.07 c 2.21,10.45 -0.71,26.4 12.39,28.21 10.28,1.43 13.29,-13.97 18.94,-22.18 25.64,-37.24 45.67,-77.68 63.8,-118.9 18.51,-42.12 39.35,-82.99 62.26,-122.77 21.27,-36.92 36.16,-76.71 54.65,-114.85 39.71,-81.86 93.33,-153.59 159.48,-216.06 18.25,-17.23 35.54,-35.45 53.18,-53.3 1.75,-1.76 2.84,-4.16 4.11,-6.07 -0.91,-1.9 -1.24,-3.91 -2.4,-4.71 -1.15,-0.78 -3.68,-1.06 -4.64,-0.32 -4.07,3.15 -8.55,6.22 -11.53,10.3 -20.8,28.56 -49.42,47.99 -77.46,68.42 -50.91,37.09 -92.03,82.25 -121.8,138.92 -39.48,75.13 -77.17,151.02 -112.5,228.14 -1.45,3.15 -2.43,6.71 -4.58,9.31 -36.6,44.33 -60.08,96.97 -91.87,144.29 -7.92,11.79 -4.26,21.03 -2.03,31.57 z m -22.27,-1052.15 c -0.15,-0.13 -1.1,0.71 -1.67,1.1 0.81,0.93 1.62,1.86 2.43,2.78 0.52,-0.43 1.05,-0.86 1.57,-1.29 -0.76,-0.89 -1.46,-1.85 -2.33,-2.59 z m -2135.3,966.06 c -3.82,-2.01 -7.89,-3.62 -11.52,-5.92 -9.11,-5.77 -16.32,-4.6 -21.39,5.29 -21.95,42.95 -62.57,68.61 -94.68,102.14 -9.07,9.47 -21.19,14.97 -32.7,20.99 -46.52,24.4 -83.69,60.93 -123.06,94.62 -12.44,10.67 -24.05,22.42 -39.79,28.64 -4.43,1.74 -11.15,3.32 -9.94,9.9 1.11,6.09 7.26,6.53 12.55,6.8 2.6,0.12 5.2,0.02 2.73,0.02 25.89,0.92 42.21,-9.6 55.15,-23.69 12.57,-13.68 26.4,-24.32 42.69,-32.99 12.83,-6.83 25.03,-14.81 35.79,-25.4 12.26,-12.08 27.31,-20.7 44.59,-25.45 30.27,-8.33 59.11,-18.89 76.26,-48.93 5.33,-9.35 15.63,-16.01 24.1,-23.4 19.17,-16.72 34.1,-36.84 46.76,-58.6 7.72,-13.25 5.95,-16.9 -7.54,-24.02 z m -40.98,-58.34 c -8.02,-24.98 -7.57,-51.34 -12.94,-76.69 -5.07,-23.88 -14.78,-46.1 -27.89,-66.76 -18.44,-29.06 -30.2,-60.41 -31.6,-95.08 -1.15,-28.75 -13.6,-51.56 -35.71,-69.25 -24.57,-19.65 -45.08,-43.24 -64.45,-67.64 -33.07,-41.71 -71.61,-77.5 -113.28,-110.29 -32.03,-25.19 -63.36,-51.32 -90.69,-81.71 -25.67,-28.53 -58.53,-48.6 -86.19,-74.92 -62.72,-59.7 -129,-115.62 -189.2,-178 -22.26,-23.05 -44.03,-46.58 -65.95,-69.97 -14.12,-15.05 -29.13,-29.01 -47.87,-41.77 -4.34,10.98 1.3,16.58 3.87,22.54 25.94,60.41 52.77,120.44 78.26,181.05 10.53,25.04 14.89,51.35 8.39,78.83 -5.84,24.73 -7.1,49.87 0.34,74.66 5.95,19.84 -1.15,38.51 -7.8,55.73 -10.79,27.91 1.89,53.02 5.21,79.08 0.86,6.72 11.03,12.64 17.55,18.16 18.51,15.68 37.23,31.12 56.11,46.35 21.69,17.5 41.1,36.93 56.34,60.55 8.54,13.23 21.04,23.02 33.84,32.04 29.47,20.77 64.39,20.78 94.68,0.56 43.16,-28.81 87.16,-56.38 128.28,-88.18 7.21,-5.57 15.75,-15.41 24.62,-6.87 8.76,8.42 3.22,18.91 -3.58,27.87 -14.14,18.61 -28.3,37.11 -44.94,53.69 -12.87,12.81 -26.23,25.6 -36.62,40.34 -28.47,40.44 -67.41,66.4 -111.8,85.68 -16.66,7.23 -31.28,18.41 -48.67,24.48 -10.93,3.82 -17.48,13.52 -23.97,22.95 -13.49,19.58 -30.82,34.77 -52.29,45.53 -38.25,19.16 -38.2,39.85 -40.35,79.99 -0.3,5.76 2.94,9.88 7.55,12.83 8,5.12 15.61,10.81 24.94,13.77 21.45,6.8 42.61,14.55 64.14,21.09 16.58,5.05 26.95,14.95 29.55,32.33 2.36,15.85 8.47,29.7 19.87,41.36 10.33,10.57 13.22,24.21 12.75,38.5 -0.59,18.21 -1.86,36.38 -6.8,54.06 -10.45,37.37 -8.94,75.57 -7.72,113.73 0.11,3.38 0.77,6.91 4.93,9.66 8.5,-2.45 9.39,-9.94 10.46,-17.49 3.41,-23.96 7.64,-47.81 10.28,-71.85 3.6,-32.86 11.86,-62.76 40.68,-83.41 11.71,-8.37 16.44,-22.27 21.21,-35.19 23.05,-62.39 55.45,-119.07 100.65,-168.16 10.57,-11.47 20.82,-23.26 31.83,-34.29 4.77,-4.79 11.08,-9.91 18.45,-6.46 7.9,3.7 10.86,11.9 9.53,19.84 -5.1,30.6 -6.41,61.76 -19.7,90.97 -18.98,41.72 -35.53,84.54 -53.32,126.81 -5.8,13.77 -6.23,26.16 3.59,38.92 11.17,14.52 12.32,31.82 10.26,49.65 -1.53,13.34 -8.35,32.59 4.79,37.95 12.55,5.13 21.99,-13.55 31.49,-23.07 11.59,-11.59 22.43,-24.08 33.13,-36.46 30.49,-35.22 69.78,-58.71 106.1,-86.58 44.91,-34.45 88.75,-72.2 115.99,-124.3 2.96,-5.67 5.62,-11.09 3.67,-17.16 z m -70.67,-466.37 c 4.62,-2.93 7.81,-7.02 4.95,-12.26 -6.5,-14.89 -1.46,-27.75 3.76,-40.79 9.64,-24.07 17.33,-48.67 23.39,-74.01 5.78,-24.18 21.3,-45.12 25.79,-70.24 4.16,-23.28 -4.24,-44.18 -10.12,-65.62 -0.43,-1.58 -4.35,-3.43 -6.24,-3.06 -1.99,0.38 -4.78,3.1 -5.04,5.08 -3.2,24.28 -15.14,45.89 -20.82,69.39 -8.26,34.16 -30.61,47.53 -65.51,48.57 -33.21,0.98 -60.68,-9.59 -86.93,-27.42 -3.56,-2.42 -7.55,-4.23 -11.5,-5.98 -6.56,-2.91 -12.13,-0.42 -16.07,4.7 -5.19,6.75 0.33,11.14 4.69,15.26 18.22,17.19 36.65,34.15 54.8,51.41 28.8,27.38 56.29,55.91 76.74,90.38 3.1,5.21 5.63,10.85 10.95,14.25 5.57,3.58 11.6,3.84 17.16,0.34 z m -731.33,309.2 c -13.32,-37.62 -38.51,-66.5 -66.94,-91.54 -9.43,2.46 -8.19,8.49 -8.87,13.23 -1.4,9.72 -8.39,12.81 -16.53,13.54 -18.58,1.66 -35.77,-1.13 -51.11,-13.67 -26.87,-21.97 -51.64,-45.93 -74.84,-71.75 -29.48,-32.8 -59.04,-65.65 -94.21,-92.72 -1.89,-1.53 -3.78,-3.05 -5.67,-4.58 0.01,-0.01 -1.73,-0.3 -1.73,-0.3 l 0.28,1.74 c 1.65,1.77 3.3,3.53 4.96,5.29 26.82,46.28 52.51,93.22 93.69,129.3 24.01,21.05 46.97,43.36 69.34,66.15 13.25,13.5 29.39,20.24 46.17,27.46 23.79,10.22 46.35,22.66 72.43,27.5 22.04,4.07 35.63,21.1 45.25,39.85 25.3,49.26 34.86,101.2 21.32,155.81 -3.89,15.66 -4.22,29.3 3.02,44.9 10.13,21.87 14.5,44.88 9.03,70.55 -4.19,19.64 2.82,40.66 10.22,60.24 5.36,14.16 9.2,28.9 -8.88,38.06 -5.33,2.69 -4.79,6.93 -1.67,10.63 5.57,6.6 11.53,12.9 17.59,19.07 20.76,21.17 25.57,20.25 38.04,-5.91 9.13,-19.16 10.49,-38.8 1.19,-57.62 -13.22,-26.74 -12.61,-51.91 0.36,-78.79 6.58,-13.62 11.5,-28.76 12.13,-44.75 0.6,-15.1 -3.81,-27.87 -16.04,-36.27 -29.91,-20.54 -41.11,-51.08 -43.52,-84.64 -2.44,-33.97 -12.43,-63.85 -32.54,-91.31 -10.69,-14.61 -16.37,-32.26 -22.47,-49.47 z m -418.54,-305.09 c -4.44,-9 -7.88,-19.26 -19.17,-26.22 0,27.23 3.33,52.8 -0.8,77.12 -5.81,34.15 8.18,57.47 30.18,80.24 26.82,27.79 46.21,60.77 57.25,97.82 5.9,19.78 8.48,40.55 12.59,60.86 1.36,6.72 0.91,14.86 7.3,18.84 21.73,13.56 27.18,37.09 36.85,58.07 2.42,5.24 2.68,13.29 10.7,12.12 6.28,-0.93 9.75,-7.16 11.42,-13.08 2.16,-7.64 1.05,-15.24 -1.26,-22.98 -5.54,-18.57 -8.13,-38.29 -2.12,-56.46 7.84,-23.73 1.72,-45.09 -7.65,-65.2 -21.97,-47.13 -46,-93.32 -79.65,-133.58 -22.38,-26.78 -40.24,-56.31 -55.64,-87.55 z m 5935.43,-509.7 c -32.56,16.27 -60.33,40.36 -93.84,55.2 -41.77,18.49 -85.14,34.71 -116.27,71.09 -6.64,7.75 -15.76,13.49 -24.09,19.68 -41.79,31 -81.03,64.91 -118.23,101.31 -29.7,29.05 -60.34,57.15 -90.53,85.69 -28.96,27.37 -60.89,51.38 -88.81,79.94 -41.16,42.1 -78.52,88.02 -123.1,126.65 -38.69,33.55 -67.15,74.32 -90.99,118.91 -3.05,5.71 -6.86,11.43 -5.96,18.18 6.59,1.45 10.17,-1.72 12.87,-4.7 37.81,-41.61 79.51,-79.68 111.56,-126.49 24.54,-35.85 51.61,-70.15 87.43,-95.41 96.94,-68.37 194.42,-136 289.62,-206.81 51.46,-38.28 107.73,-69.28 160.07,-106.27 13.33,-9.42 28.59,-16.14 43.05,-23.94 3.14,-1.69 6.91,-1.97 9.81,0.32 4.55,3.61 2.21,8.06 -0.04,11.62 -10.76,17.03 -23.81,32.06 -40.88,43 -83.88,53.73 -162.77,114.39 -242.72,173.61 -52.15,38.65 -105.03,76.41 -158.98,112.46 -43.6,29.14 -83.04,61.8 -114.46,104.14 -40.05,53.95 -89.04,98.88 -142.75,139.08 -14.39,10.77 -31.25,18.78 -41.87,34.49 -33.34,49.31 -76.93,89 -121.11,128.1 -22.71,20.09 -47.19,38.51 -67.98,60.44 -66.03,69.67 -136.91,135.09 -191.32,215.17 -14.16,20.85 -33.01,37.66 -51.21,55.02 -40.24,38.39 -76,80.3 -104.68,128.46 -19.76,33.16 -53.76,31.64 -73.99,-0.88 -3.2,-5.15 -6.39,-10.37 -10.24,-15.03 -10.68,-12.91 -14.97,-13.6 -27.52,-2.64 -31.33,27.41 -58.91,58.61 -87.5,88.72 -10.09,10.64 -16.48,24.47 -21.34,38.45 -23.82,68.47 -58.57,131.31 -102.38,188.55 -51.04,66.67 -104.13,131.67 -152.93,200.15 -32.66,45.83 -74.72,83.77 -118.54,119.47 -14.99,12.22 -34.11,12.31 -49.41,21.93 -26.88,16.91 -52.6,12.15 -78.42,-2.49 -48.14,-27.29 -89.58,-62.57 -122.37,-106.95 -61.58,-83.35 -138.4,-152.68 -207.86,-228.76 -15.4,-16.88 -22.53,-16.34 -30.84,2.09 -19.77,43.78 -49.32,81.35 -74.54,121.67 -29.43,47.05 -60.88,92.48 -98.97,133.15 -25.7,27.44 -44.13,59.73 -59.37,94.03 -12.42,27.96 -29.38,52.29 -53.73,72.17 -41.59,33.95 -82.1,69.48 -113.39,113.74 -19.05,26.95 -39.29,52.84 -62.41,76.32 -14.69,14.91 -27.39,31.2 -39.24,48.35 -15.77,22.82 -31.59,45.93 -53.54,63.33 -22.4,17.77 -44.25,36.14 -64.16,56.57 -25.68,26.36 -49.66,65.84 -87.24,62.17 -5.96,-0.59 -12.09,0.7 -18.15,1.1 -11.12,0.75 -20.15,5.36 -25.69,15.21 -12.9,22.94 -33.32,28.12 -57.65,25.87 -19.94,-1.86 -56.89,46.41 -76.28,53.85 -25.58,9.82 -124.8,-141.17 -155.85,-171.36 -41.6,-40.47 -80.66,-83.35 -119.74,-126.21 -16.89,-18.53 -37.43,-34.21 -49.37,-56.63 -26.83,-50.45 -47.61,-103.54 -66.21,-157.57 -29.3,-85.05 -71.98,-163.12 -126.67,-234.47 -9.88,-12.9 -21.54,-24.94 -36.54,-32.64 -5.88,-3.01 -11.59,-3.48 -16.71,1.61 -5.02,4.98 -5.67,11.19 -2.22,16.68 5.06,8.01 11.13,15.42 17.1,22.8 24.53,30.27 50.86,59.14 71.68,92.3 44.8,71.29 67.79,150.74 86.86,231.66 -5.97,-0.47 -11.19,-2.58 -16.43,-5.78 -50.23,-30.81 -91.6,-70.6 -123.04,-120.5 -18.57,-29.5 -38.35,-58.19 -68.02,-77.53 -41.37,-26.97 -72.36,-63.87 -102.91,-101.7 -23.55,-29.15 -50.9,-54.54 -85.96,-69.82 -13.9,-6.06 -21.19,-15.96 -24.87,-30.77 -6.06,-24.29 -14.12,-47.83 -26.27,-70.26 -40.05,-74.01 -85.84,-144.23 -136.46,-211.35 -46.54,-61.71 -98.37,-118.22 -157.23,-168.81 -55.15,-47.37 -111.3,-93.77 -163.13,-144.93 -15.42,-15.21 -29.92,-31.43 -46.03,-45.87 -15.53,-13.92 -23.36,-13.82 -33.6,3.04 -22.96,37.79 -60.73,61.37 -88.08,94.89 -8.53,10.46 -21.53,17.34 -34.75,22.28 -17.02,6.34 -33.83,13.31 -51.01,19.18 -32.74,11.17 -62.41,27.23 -81.58,56.89 -29.2,45.16 -71.23,77.5 -109.54,113.64 -14,13.21 -29.91,23.46 -46.77,32.48 -32.05,17.14 -65.72,30.9 -97.23,49.36 -32.98,19.31 -65.59,16.45 -95.63,-9.5 -14.43,-12.46 -28.97,-24.72 -42.12,-38.52 -81.87,-85.95 -165.17,-170.55 -253.59,-249.76 -67.75,-60.71 -135.86,-121 -201.36,-184.1 -82.3,-79.29 -162.85,-160.45 -249.1,-235.53 -17.29,-15.05 -31.43,-32.06 -43.38,-51.31 -17.9,-28.85 -38.47,-55.68 -63.26,-78.92 -85.887,-80.51 -163.524,-169.21 -250.219,-249.06 -80.133,-73.81 -155.598,-152.7 -240.164,-221.73 -43.59,-35.58 -87.207,-71.23 -133.719,-102.98 -27.145,-18.53 -293.172,-176.45 -282.688,-178.57 17.051,-3.45 117.778,31.1 135.188,32.19 44.117,2.72 130.461,91.25 173.894,99.31 11.868,2.2 17.563,34.45 28.914,39.08 39.25,16.04 116.153,57.45 156.336,71.66 20.465,7.22 72.071,37.46 91.469,47.44 44.133,22.69 126.531,72.38 177.027,64.37 46.227,-7.32 64.981,-139.69 95.743,-102.77 35.239,42.28 83.379,60.79 137.489,63.51 44.11,2.22 88.35,6.06 132.44,-0.02 34.72,-4.77 64.05,5.5 92.15,26.03 49.08,35.84 89.71,79.42 120.8,130.96 24.02,39.8 56.51,69.56 94.04,95.11 24.5,16.69 37.88,12.72 51.23,-13.92 4.02,-8.02 15.48,-66.74 9.97,-73.37 -45.06,-54.2 -809.104,-583.57 -834.526,-594.48 -4.742,-2.03 -10.105,-4.65 -9.461,-10.96 0.711,-6.94 5.879,-10.76 12.403,-11.24 10.34,-0.75 20.863,-1.62 31.117,-0.58 38.035,3.9 364.777,128.28 402.957,128.02 31.23,-0.21 108.78,49.75 139.76,52.6 41.13,3.78 189.92,17.31 230.39,13.39 5.43,-0.54 -248.05,-151.65 -245.49,-159.14 -2.17,-6.78 -98.7,-71.01 -100.7,-79.58 6.33,0 12.25,-0.27 18.12,0.07 6.92,0.41 13.82,1.149 20.69,2.071 112.35,15.159 463.52,218.069 575.73,199.229 21.2,-3.56 42.6,-9.81 64.18,-3.85 10.31,2.85 20.49,2.77 30.84,3.36 32.55,1.82 63.13,-9.71 94.81,-13.81 14.75,-1.91 29.77,-4.72 43.2,3.27 37.91,22.55 76.01,44.88 112.82,69.16 25.61,16.88 43.24,42.21 60.67,67.09 18.39,26.27 37.22,52.03 61.72,73.21 19.06,16.49 22.45,17.3 33.35,-6.33 18.01,-39.01 50.53,-55 89.65,-62.86 14.38,-2.89 27.84,-0.6 40.11,6.77 41.27,24.79 78.28,54.08 100.89,98.19 3.93,7.68 8.55,15.06 13.46,22.17 23.96,34.76 31.07,35.86 65.97,10.99 36.05,-25.68 75.02,-46.47 113.31,-68.45 10.4,-5.97 21.82,-5.1 32.14,-9.2 5.97,-2.37 15.24,-3.35 14.62,-12.23 -0.48,-6.94 -8.11,-7.84 -13.97,-9.61 -13.25,-4.02 -26.64,-7.74 -39.53,-12.74 -35.84,-13.9 -67.47,-34.73 -97.63,-58.48 -34.74,-27.33 -68.44,-55.73 -100.13,-86.52 -5.84,-5.68 -15,-10.64 -8.74,-21.54 7.1,-12.36 16.74,-9.22 26.95,-4.82 11.93,5.15 24.17,9.57 36.06,14.81 43.53,19.19 85.97,41.11 132.63,52.38 21.06,5.09 42.64,8.82 62.9,16.13 25.85,9.32 52.33,13.28 79.11,12.03 22.97,-1.08 37.98,8.1 49.07,26.65 3.99,6.69 7.36,13.79 11.71,20.25 37.42,55.51 62.38,117.76 95.28,175.71 12.47,21.95 19.61,24.43 40.82,11.34 3.64,-2.25 6.79,-5.31 10.15,-8.03 48.53,-39.24 98.87,-76.07 150.27,-111.42 16.38,-11.27 33.75,-21.35 53.36,-26.43 4.25,-1.1 8.83,-1.56 11.11,3.47 1.7,3.74 -0.78,6.6 -3.18,9.13 -1.79,1.88 -4.05,3.34 -5.72,5.3 -22.8,26.8 -53.8,43.38 -80.92,64.78 -37.38,29.5 -74.71,59.12 -113.34,86.92 -30.85,22.2 -65.89,19.59 -95.48,-3.93 -6.76,-5.37 -13.23,-11.14 -19.59,-16.98 -33.56,-30.78 -62.11,-66.28 -104.22,-88.57 -22.83,-12.1 -39.13,-14.01 -59.31,-1.48 -9.57,5.94 -19.76,11.1 -28.56,18.02 -50.93,40.1 -94.82,88.19 -145.72,128.46 -10.41,8.24 -18.3,20.32 -24.15,33.42 -13.5,30.2 -13.11,61.08 -3.84,91.38 8.33,27.21 2.81,48.89 -15.98,69.19 -12.31,13.31 -24.84,26.97 -34.19,42.35 -15.98,26.26 -37.7,47.31 -58.18,69.48 -21.52,23.31 -55.85,26.68 -78.96,5.62 -26.03,-23.69 -59.25,-27.12 -89.97,-37.84 -3.48,-1.21 -7,-0.38 -8.16,3.9 -0.76,2.78 0.58,5.11 2.93,6.49 4.46,2.64 9,5.18 13.65,7.47 33.86,16.72 61.9,39.84 82.5,71.99 12.15,18.95 35.1,22.08 53.9,7.46 21.14,-16.45 40.18,-35.36 58.66,-54.74 12.31,-12.91 15.14,-13.29 25.22,1.42 22.5,32.83 44.09,66.25 63.46,101.07 13.61,24.46 14.01,24.59 33.08,2.55 21.59,-24.97 44.91,-47.73 72.02,-67.01 45.52,-32.41 84.19,-71.89 115.22,-118.63 12.93,-19.48 25.33,-39.5 43.45,-54.89 7.19,-6.09 8.48,-11.99 2.2,-19.94 -29.52,-37.37 -51.14,-80.37 -82.87,-116.19 -3.43,-3.87 -5.92,-8.56 -9.15,-12.61 -6.71,-8.41 -4.74,-15.77 1.84,-23.21 7.35,-8.32 14.46,-7.1 22.77,-1.29 16.34,11.44 32.44,23.07 47.62,36.08 26.91,23.07 49.15,51.24 79.78,70.36 10.45,6.52 18.41,8.23 28.15,1.13 5.6,-4.07 12.44,-7.1 16.71,-12.26 29.73,-35.87 70.78,-52.2 113.43,-64.26 61.84,-17.5 116.55,-48.43 168.51,-84.86 21.32,-14.94 43.02,-29.13 65.55,-42.04 6.04,-3.45 12.4,-9.59 23.44,-4.67 -7.02,14.46 -16.89,24.84 -27.75,34.51 -27.94,24.88 -60.02,43.97 -91.61,63.43 -36.77,22.65 -73.6,45.6 -115.15,59.28 -42.87,14.12 -83.42,30.91 -116.33,64.89 -29.83,30.8 -56.69,29.92 -93.56,6.3 -5.09,-3.27 -9.17,-9.89 -17.32,-8.72 0.7,3.24 0.54,5.38 1.52,6.51 3.95,4.52 8.17,8.81 12.42,13.06 19.9,19.88 21.66,38.15 4.27,59.56 -13.71,16.88 -25.71,34.85 -37.64,52.94 -27.88,42.26 -61.64,78.79 -102.65,108.89 -25.09,18.41 -53.31,32.25 -76.09,54.08 -33.12,31.74 -67.16,62.5 -100.63,93.88 -10.77,10.08 -19.69,21.81 -28.45,33.73 -25.75,35.01 -40.03,76.2 -61.77,113.34 -4.13,7.04 -7.29,14.85 -2.08,21.91 5.81,7.87 15.26,6.81 23.95,5.9 6.38,-0.68 11.07,-4.5 15.5,-8.83 21.68,-21.15 44.12,-41.56 64.96,-63.51 43.99,-46.28 84.98,-95.56 136.61,-134.07 2.74,-2.04 5.01,-4.8 7.21,-7.47 40.3,-49.08 92.72,-85.77 135.37,-132.48 7.55,-8.27 16.6,-15.17 24.93,-22.72 30.39,-27.57 68.52,-43.61 101.11,-67.93 37.22,-27.78 69.03,-61.05 92.46,-100.66 11.32,-19.16 23.76,-33.66 44.16,-40.63 10.27,-3.53 17.96,-9.07 25.47,-16.72 9.19,-9.35 17.87,-22.91 35.05,-12.96 4.09,2.36 7.98,-1.44 11.31,-4.39 7.13,-6.32 14.83,-12.05 21.65,-18.66 39.97,-38.66 86.21,-69.32 130.57,-102.35 19.36,-14.43 19.85,-13.54 14.41,-37.14 -1.19,-5.19 -3.73,-9.52 -5.86,-14.22 -12.54,-27.65 -33.1,-51.44 -43.53,-79.39 -14.48,-38.8 -45.7,-67.43 -59.03,-106.32 -1.28,-3.76 -5.04,-7.39 -8.59,-9.56 -32.5,-19.84 -62.81,-43.59 -97.73,-59.02 -49.87,-22.05 -100.66,-42.01 -150.85,-63.32 -8.19,-3.48 -20.88,-6.78 -17.15,-18.84 3.9,-12.64 16.36,-10.09 26.79,-8.32 2.56,0.44 5.06,1.41 7.63,1.63 29.37,2.51 57.79,11.09 87.37,12.77 42.3,2.41 84.46,4.87 125.42,18.94 27.65,9.49 52.64,21.14 73.37,42.11 16.42,16.61 34.54,30.6 56.64,40.35 31.88,14.05 66.39,19.24 98.41,32.74 15.68,6.6 32.14,12.34 48.62,17.61 45.81,14.66 91.8,25.15 140.23,23.49 8.47,-0.3 17.08,2.63 25.59,4.29 19.15,3.74 37.43,1.53 56.34,-3.85 42.24,-11.99 83.95,-24.65 129.43,-23.29 40.4,1.21 80.89,-4.96 120.73,-15.78 29.15,-7.92 57.17,-20.5 87.61,-23.59 -3.37,7.21 -10.44,8.29 -16.97,10.54 -10.64,3.67 -21,7.82 -30.8,13.68 -40.13,23.99 -82.55,43.66 -124.75,63.58 -35.96,16.97 -72.75,32.25 -109.54,47.36 -54.4,22.35 -107.27,48.45 -163.64,66.01 -45.43,14.16 -90.77,28.63 -134.14,48.6 -23.72,10.92 -46.01,24.05 -66.68,39.94 -6.03,4.63 -11.68,9.87 -8.6,18.85 10.6,0.3 17.65,-5.51 25.73,-8.21 26.83,-8.94 49.63,-26.03 77.26,-34.35 37.23,-11.23 73.6,-25.17 111.69,-34.04 21.83,-5.09 42.72,-13.78 63.56,-22.41 36.13,-14.97 69.27,-35.63 104.25,-52.74 33.44,-16.36 66.91,-32.9 99.03,-51.63 53.3,-31.07 110.45,-48.25 171.27,-57.15 41.17,-6.04 82.5,-9.61 123.72,-14.56 39.55,-4.76 79.25,-8.14 118.91,-11.89 4.67,-0.45 10.85,-2.17 11.91,7.29 -16.33,10.77 -35.27,16.02 -54.24,21.68 -52.04,15.51 -105.94,15.9 -159.3,21.43 -50.72,5.26 -101.66,10.96 -149.67,30.66 -26.49,10.86 -51.99,23.63 -76.9,37.57 -34.75,19.48 -71.85,34.1 -106.72,53.44 -50.06,27.77 -101.46,52.43 -158.98,62.2 -19.42,3.3 -38.39,10.42 -57.94,14.5 -6.18,1.29 -13.3,2.71 -17.21,11.51 17.64,8.96 36.4,12.05 53.34,20.17 45.23,21.68 91.39,41.41 137.14,62.01 53.69,24.17 107.62,47.68 154.69,84.28 21.18,16.46 44.16,32.06 70.08,38.92 41.64,11.03 75.76,34.54 107.44,61.09 46.6,39.06 85.95,85.43 121.01,135.13 30.52,43.28 53.1,91.34 80.81,136.34 5.9,9.59 12.27,23.28 24.9,16.48 12.48,-6.72 4.66,-19.65 0.07,-29.87 -23.16,-51.56 -53.69,-98.78 -85.21,-145.45 -15.35,-22.73 -31.14,-45.23 -43.25,-70.82 12.34,-4.41 21.55,1.95 31.44,3.73 12.54,2.26 23.62,1.54 29.58,-13.54 6.97,-17.66 20.88,-29.09 38.43,-36.64 19.29,-8.31 19.01,-9.45 15.81,-29.01 -3.27,-20.06 -10.92,-38.09 -21.56,-55.23 -10.95,-17.65 -22.23,-35.22 -31.63,-53.72 -19.19,-37.74 -46.07,-69.23 -77.93,-96.26 -37.74,-32.03 -72.55,-66.97 -106.71,-102.6 -14.95,-15.59 -28.74,-32.48 -41.5,-49.91 -9.09,-12.41 -6.14,-29.7 4.82,-40.5 12.06,-11.89 22.09,-3.23 31.95,3.99 45.88,33.51 97.52,56.19 149.84,76.71 93.13,36.51 173.8,92.86 251.3,154.26 27.8,22.05 54.86,45 84.54,64.49 50.47,33.14 75.79,75.89 60.7,138.66 -8.12,33.72 -10.67,68.74 10.1,100.68 38.62,59.44 38.21,126.39 35.81,193.41 -0.52,14.83 -6.24,28.98 -18.72,38.71 -7.98,6.22 -16.01,6.28 -22.36,-2.75 -2.48,-3.54 -4.49,-7.41 -6.55,-11.22 -19.86,-36.75 -44.37,-70.28 -70.95,-102.37 -19.35,-23.36 -39.62,-45.85 -63.22,-65.04 -5.4,-4.39 -12.28,-8.53 -18.68,-2.27 -6.5,6.35 -2.04,13.39 2.15,18.62 9.18,11.48 19.57,21.98 28.93,33.32 31.32,37.95 49.32,83.19 69.37,127.32 9.65,21.23 16.94,44.23 34,60.87 7.95,7.75 10.94,14.48 8.45,24.85 -2.22,9.25 -2.55,19 -5.28,28.06 -7.61,25.28 -8,51.3 -8.79,77.25 -0.33,10.85 0.41,21.95 6.81,32.53 12.05,-4.52 12.73,-15.44 15.91,-23.54 28.73,-73.45 66.21,-142.87 98.06,-214.87 23.87,-53.92 56.55,-103.22 82.25,-156.23 26.7,-55.07 68.57,-97.41 117.63,-132.64 34.51,-24.79 69.34,-48.82 97.88,-80.89 7.27,-8.18 10.36,-15.39 6.08,-25.49 -2.35,-5.57 -4.11,-11.4 -6.55,-16.93 -24.61,-55.78 -63.75,-100.75 -107.4,-141.98 -11.8,-11.14 -26,-20.25 -41.46,-26.42 -40.95,-16.34 -82.56,-31.13 -120.39,-54.41 -11.02,-6.78 -22.73,-12.54 -34.45,-18.09 -76.39,-36.21 -144.95,-84.05 -209.81,-137.97 -23.8,-19.81 -44.38,-43.89 -72.19,-58.58 -20.82,-10.98 -39.51,-24.96 -58.57,-38.49 -13.64,-9.69 -24.38,-22.02 -33.76,-35.63 -7.46,-10.81 -5.96,-20.17 3.41,-29.86 8.3,-8.58 15.59,-4.02 22.99,1.05 2.85,1.97 5.52,4.21 8.32,6.25 65.31,47.4 137.63,79.27 215.57,99.83 43.57,11.49 88.41,16.52 131.81,28.61 22.48,6.27 46.11,7.83 68.12,16.56 6.22,2.48 13.63,2.05 20.51,2.71 4.32,0.42 9.06,0.74 10.92,-4.42 1.28,-3.57 -0.75,-6.52 -3.24,-9.14 -39.92,-42.08 -67.77,-94.12 -111.91,-133.05 -13.9,-12.26 -30.1,-20.04 -43.8,-31.79 -4.5,-3.86 -10.66,-7.35 -6.94,-14.76 3.5,-6.99 11.69,-7.57 15.71,-4.13 17.95,15.42 39.51,13.84 60.69,15.99 9.23,0.94 17.58,6.69 25.71,11.93 30.78,19.83 58.37,43.7 84.16,69.29 13.8,13.68 28.94,21.83 47.25,24.72 23.95,3.77 47.97,6.82 72.38,7.36 43.51,0.97 86.55,-4.38 129.78,-7.35 44.48,-3.07 55.89,4.72 74.95,44.29 12.35,25.64 23.43,52.09 39.74,75.65 14.76,21.32 36.14,26.03 57.56,12.81 11.03,-6.81 22.14,-13.89 31.8,-22.44 45.76,-40.52 96.5,-73.45 151.56,-99.57 35.9,-17.05 71.33,-35.73 111.35,-42.16 28.2,-4.52 56.27,-9.9 84.54,-13.97 43.87,-6.31 86.29,-16.25 127.48,-34 26.68,-11.48 56.69,-15.34 85.31,-22.14 4.56,-1.09 11.2,-2.61 13.15,4.31 1.35,4.8 -3.06,7.72 -6.56,10.12 -21.56,14.74 -44.92,25.98 -69.39,34.93 -33.37,12.21 -66.23,25.53 -97.7,42.18 -23.73,12.56 -47.93,23.98 -73.47,32.74 -19.57,6.72 -38.98,14.62 -57.31,24.18 -80.71,42.11 -148.91,101.25 -212.76,164.72 -38.14,37.92 -75.26,76.36 -119.53,107.17 -31.86,22.16 -61.04,48.53 -98.19,62.44 -6,2.24 -8.47,8.12 -11.64,13.41 -17.06,28.46 -19.67,62 -37.25,94.77 19.63,-9.29 32.71,-18.89 45.54,-28.78 44.63,-34.42 91.73,-64.9 141.31,-91.8 71.66,-38.91 138.2,-85.34 201.14,-137.28 29.98,-24.75 59.79,-50.1 93.43,-70.07 56.57,-33.59 113.15,-67.18 170.19,-99.94 17.09,-9.81 33.45,-22.03 54.01,-24.5 -3.52,3.72 -6.5,8.27 -10.67,11 -49.91,32.78 -99.05,66.86 -150.29,97.42 -59.71,35.61 -115.43,75.94 -167.28,122.22 -40.68,36.32 -83.53,70.39 -128.62,100.96 -55.14,37.38 -112.66,71.25 -168.85,107.12 -15.11,9.64 -32.44,16.87 -41.42,34.26 -28.74,55.56 -71.73,99.15 -116.98,141.28 -55.56,51.73 -100.89,112.04 -135.47,179.44 -25.71,50.1 -51.91,99.71 -82.51,146.98 -11.28,17.43 -22.01,35.28 -32.05,53.45 -36.4,65.9 -72.15,132.18 -108.7,198.01 -15.3,27.55 -28.81,33.59 -59.73,28.61 -13.67,-2.2 -26.98,-5.44 -39.59,-12.08 -18.36,-9.66 -38.21,-16.58 -56.26,-26.72 -34.54,-19.38 -72.15,-33.88 -100.97,-62.74 -8.99,-9.02 -46.09,-10.5 -56.8,-2.61 -26.47,19.53 -54.63,36.9 -78.8,59.46 -41.16,38.42 -77.55,81.4 -115.81,122.59 -10.68,11.5 -21.86,21.93 -34.52,31.19 -46.62,34.05 -83.31,75.34 -97.29,133.49 -2.31,9.59 -2.58,17.94 -0.94,27.69 3.02,17.85 5.02,36.06 3.42,54.37 -1.22,14.04 -8.69,22.41 -22.29,24.83 -8.44,1.51 -17.24,3.2 -25.64,2.39 -27.59,-2.63 -55.07,-6.39 -82.6,-9.64 -10.47,-1.24 -19.73,-4.82 -28.91,-10.43 -31.78,-19.41 -63.89,-38.55 -99.07,-51.24 -28.44,-10.27 -57.72,-18.19 -85.19,-31.19 -9.38,-4.46 -19.05,-8.39 -28.84,-11.82 -6.56,-2.3 -14.36,-4.02 -17.61,4.79 -2.87,7.75 3.84,9.91 9.27,12.92 40.19,22.32 81.92,41.03 124.74,57.84 28.95,11.36 59.33,19.66 86.15,36.21 9.58,5.91 18.51,14.93 28.86,17.04 17.63,3.59 26.94,15.22 34.79,28.51 30.74,52.07 71.1,95.77 115.61,136.12 22.72,20.6 37.3,47.6 54.68,72.35 5.61,8 1.88,13.39 -7.42,13.84 -11.29,0.56 -22.67,-0.25 -33.25,-4.55 -17.64,-7.2 -35.02,-15.03 -52.53,-22.53 -5.55,-2.37 -11.03,-5.03 -16.81,-6.66 -5.41,-1.53 -10.49,-0.06 -12.76,5.8 -2.06,5.36 -1.05,10.57 3.82,13.84 6.46,4.34 13.02,8.98 20.2,11.76 18.68,7.23 35.74,17.46 53.34,26.73 28.27,14.91 57.52,23.75 90.03,14.31 9.87,-2.86 20.85,-2.52 31.02,0 21.01,5.2 42.12,10.34 62.68,17.05 28.38,9.25 35.05,33.96 14.37,56.42 -21.06,22.88 -44.8,43.28 -66.21,65.85 -37.04,39.04 -73.14,79.41 -93.67,129.93 -16.62,40.83 -30.46,82.9 -43.4,125.07 -10.23,33.33 -14.58,67.97 -15.65,104.64 16.18,-6.9 22.23,-19.75 29.93,-30.94 46.99,-68.46 79.91,-145.94 134.5,-209.52 0.55,-0.65 0.89,-1.49 1.33,-2.23 18.58,-31.44 44.26,-55.2 76.94,-71.48 48.05,-23.94 82.52,-62.13 111.99,-105.87 6.14,-9.13 6.74,-16.15 2.14,-26.12 -15.97,-34.67 -20.99,-71.67 -16.1,-109.16 2.56,-19.69 -2.44,-34.37 -13.72,-50.07 -68.77,-95.64 -146.27,-184.69 -212.59,-282.18 -15,-22.05 -16.96,-47.04 -3.09,-69.97 2.73,-4.52 5.04,-9.45 11.09,-9.72 7.76,-0.35 9.37,6.6 12.42,11.54 1.33,2.16 2.01,4.82 2.55,7.35 11.09,52.2 45.12,88.24 84.19,121.19 51.52,43.47 106.77,83.23 145.06,140.37 6.81,10.16 12.61,9.25 20.39,1.03 49.57,-52.25 93.03,-109.95 134.26,-168.31 35.93,-50.87 74.91,-96.78 121.6,-137.45 35.79,-31.17 70.23,-63.46 90.86,-108.65 19.34,-42.38 52.26,-75.11 90.05,-102.44 20.39,-14.76 40.39,-30.35 56.85,-49.22 19.4,-22.25 39.68,-43.58 61.05,-63.78 10.01,-9.46 15.34,-20.53 19.48,-32.97 19.12,-57.38 32.36,-117.01 64.76,-169.33 2.68,-4.34 4.29,-9.52 5.55,-14.51 13,-51.43 44.55,-91.04 80.29,-128.37 36.52,-38.13 77.62,-71.71 111.89,-111.98 13.93,-16.36 26.74,-32.82 52.03,-33.48 -35.15,45.84 -62.94,95.99 -102.38,137.6 -6.58,6.94 -13.66,13.55 -14.22,23.99 -0.84,16.16 -11.23,24.43 -24.68,30.37 -15.9,7.02 -25.5,18.95 -31.71,35.48 -8.51,22.61 -17.31,45.15 -29.52,66.35 -20.3,35.21 -39.11,71.26 -58.22,107.14 -4.21,7.93 -8.66,16.2 -8.15,28 23.33,-14.01 43.83,-28.59 66.19,-39.27 37.96,-18.11 64,-47.37 82.2,-83.67 18.6,-37.09 36.79,-74.59 49.53,-114.25 15.37,-47.84 28.91,-96.28 57.3,-138.81 9.78,-14.63 20.9,-27.3 35.7,-37.07 33.53,-22.14 62.62,-49.02 86.64,-81.51 23.16,-31.35 46.19,-62.91 75.52,-89.09 40.89,-36.5 75.53,-78.65 108.83,-121.92 17.96,-23.34 33.38,-48.83 52.87,-70.76 46.64,-52.43 98.6,-99.7 151.86,-145.22 48.94,-41.82 104.29,-74.25 163.23,-100.25 16.68,-7.35 34.12,-10.62 52.69,-4.85 -14.26,8.17 -30,12.05 -44.14,20.03 -44.78,25.27 -85.09,56.73 -123.39,90.38 -40.94,35.98 -78.07,76.29 -119.04,112.22 -34.96,30.64 -63.77,65.61 -89.57,103.89 -30.04,44.59 -63.09,86.89 -101.57,124.78 -30.8,30.34 -62.83,59.46 -90.41,92.99 -29.27,35.59 -61.8,67.51 -102.01,91.23 -16.48,9.73 -28.85,24.68 -37.45,42.21 -14.58,29.71 -24.5,61.02 -31.55,93.24 -12.25,56.04 -29.33,110.66 -53.05,162.73 -20.04,44.01 -48.53,80.92 -94.93,102.33 -49.98,23.05 -91.48,58.38 -131.19,96.51 -37.49,36 -68.43,78.45 -109.27,110.81 -51.87,41.1 -84.59,95.56 -111.46,154.38 -24.17,52.92 -52.57,103.41 -87.68,149.77 -23.1,30.52 -43.11,62.63 -59.74,97 -21.13,43.69 -44.06,86.32 -72.99,125.54 -25.2,34.18 -44.18,72.52 -70.42,106.07 -5.25,6.73 -15.04,10.95 -15.67,19.95 -0.72,10.26 11.2,12 16.72,18.35 14,16.11 20.84,15.84 33.55,-0.58 42.92,-55.42 87.83,-109.29 123.06,-170.41 24.17,-41.94 54.11,-80.5 72.88,-125.67 10.63,-25.58 22.12,-50.83 34,-75.85 20.86,-43.98 43.63,-86.83 80.46,-120.09 14.11,-12.74 29.68,-23.69 40.46,-40.02 11.44,-17.33 24.07,-33.89 36.59,-50.48 26.11,-34.61 55.44,-66.42 84.73,-98.33 20.33,-22.16 48.77,-31.93 71.03,-50.87 15.15,-12.89 29.84,-27.33 47.18,-36.44 35.35,-18.54 70.16,-37.72 103.04,-60.35 28.29,-19.46 62.31,-25.49 92.94,-39.5 6.36,-2.9 11.86,-5.22 16.88,-10.65 28.19,-30.5 53.22,-63.63 79.73,-95.5 5.49,-6.59 10.11,-14.08 14.08,-21.71 3.02,-5.79 1.73,-12 -3.41,-16.56 -5.94,-5.27 -11.54,-1.71 -16.45,1.74 -3.46,2.42 -5.87,6.27 -8.98,9.23 -17.06,16.24 -28.58,37.03 -44.36,54.24 -15.12,16.49 -28.47,36.58 -49.8,44.38 -18.54,6.77 -37.71,12.62 -56.69,18.56 -4.19,1.31 -8.65,3.47 -12.35,0.67 -5.6,-4.24 -1.26,-9.13 0.21,-13.93 8.95,-29.21 24.42,-55.44 37.5,-82.76 10.2,-21.33 17.4,-43.45 15.92,-67.52 -1.28,-20.62 4.99,-39.03 14.18,-57.25 29.38,-58.31 75.69,-100.65 128.02,-137.33 11.6,-8.14 21.03,-17.26 28.32,-29.66 13.29,-22.62 31.22,-42.26 52.14,-57.4 41.97,-30.41 75.44,-68.21 106.89,-108.84 38.68,-50 77.74,-99.87 121.7,-145.48 18.82,-19.52 33.42,-41.02 44.11,-66.19 15.58,-36.75 33.85,-72.79 61.55,-101.99 40.58,-42.75 84.44,-82.17 133.39,-115.3 46.72,-31.6 99.43,-52.59 147.58,-81.76 7.77,-4.72 16.61,-6.09 24.27,0.56 5.22,4.52 10.11,5.41 16.56,2.84 19.94,-7.95 41.17,-4.3 61.78,-5.78 18.45,-1.32 26.48,8.25 26.82,26.75 0.23,12.21 -7.09,18.78 -15.86,25 -36.09,25.6 -74.5,47.45 -112.65,69.74 -44.1,25.77 -89.73,49.12 -129.62,81.57 -30.21,24.57 -58.6,51.86 -90.99,73.09 -24.43,16 -40.87,36.78 -55.61,60.21 -22.58,35.9 -44.06,72.52 -67.11,108.12 -11.96,18.46 -17.23,38.78 -23.51,59.18 9.12,3.7 14.19,-1.52 20.23,-4.57 29.69,-14.92 54.12,-37.21 80.69,-56.52 42.69,-31.01 83.28,-65.88 129,-91.54 54.43,-30.55 105.67,-65.88 159.11,-97.8 37.99,-22.7 75.67,-44.87 116.91,-61.37 31.23,-12.49 61.86,-26.69 90.41,-45.28 12.18,-7.93 26.23,-15.36 47.18,-15.74 -11.81,12.29 -22.11,18.3 -32.61,23.58 -23.29,11.69 -44.75,26.25 -66.57,40.36 -104.78,67.76 -206.01,140.19 -299.17,223.55 -52.54,47.02 -112.04,84.7 -172.7,119.75 -71.14,41.11 -146.61,74.45 -217.65,115.99 -10.2,5.98 -20.52,12.12 -24.73,25.97 23.38,8.91 46.8,11.84 69.82,11.52 83.81,-1.17 163.39,-19.73 234.7,-65.58 79.5,-51.11 163.34,-94.31 247.45,-136.93 55.84,-28.31 108.93,-60.32 156.38,-101.34 38.75,-33.5 81.5,-61.37 125.18,-87.85 6.64,-4.03 13.53,-10.43 25.93,-3.82 -10.71,10.36 -19.88,18.74 -30.25,26.48 -34.64,25.87 -72.81,47.05 -103.52,78.18 -26.72,27.08 -53.12,54.39 -81.74,79.63 -35.72,31.51 -70.44,64.4 -109.61,91.35 -52.48,36.1 -99.68,77.5 -142.08,124.85 -9.71,10.86 -19.93,21.43 -32.22,30.05 -33.96,23.84 -72.6,36.58 -111.63,47.93 -58.46,17.03 -113.66,41.98 -168.33,67.99 -57.68,27.44 -103.88,71.57 -153.84,110.16 -15.25,11.78 -27.49,26.28 -38.83,41.63 -4.07,5.51 -8.26,11.28 -4.8,18.42 20.98,0 41.64,-0.57 62.25,0.15 20.85,0.73 29.8,9.01 32.77,29.48 2.56,17.64 0.46,34.03 -11.35,49.05 -25.15,31.97 -48.29,65.57 -74.07,97 -36.27,44.24 -55.81,92.89 -49.01,150.98 3.31,28.3 -8.74,52.5 -25.04,74.64 -10.35,14.04 -23.29,25.65 -37.24,35.99 -24.91,18.46 -43.99,41.34 -56.04,70.1 -9.19,21.9 -22.27,41.11 -41.48,55.64 -9.99,7.54 -16.42,17.58 -21.13,29.04 -9.54,23.2 -19.21,46.35 -29.11,69.4 -9.3,21.64 -46.04,44.4 -67.54,38.42 -24.06,-6.68 -48.97,-10.06 -72.13,-21.22 -30.32,-14.62 -61.81,-27.19 -93.67,-38.11 -17.17,-5.87 -33.33,-13.81 -50.35,-19.75 -4.04,-1.41 -8.97,-2.02 -11.89,2.2 -3.83,5.52 -0.38,10.07 3.7,13.43 12.21,10.07 26.27,16.14 41.65,20.28 39.57,10.65 76.91,27.29 110.52,50.45 31.91,21.98 63.23,42.04 104.37,39.82 17.04,-0.92 20.58,3.12 21.08,19.24 0.81,25.94 1.64,51.84 -1.89,77.88 -4.43,32.63 -5.95,65.62 -4.68,98.6 0.53,13.68 6.97,16.65 18.08,9.07 3.51,-2.41 6.3,-5.88 9.32,-8.95 15.47,-15.73 27.37,-34.25 33.66,-55 15.7,-51.89 43.22,-98.13 66.74,-146.33 14.13,-28.93 31.13,-55.9 49.94,-81.97 24.75,-34.32 50.39,-67.75 63.79,-109.31 19.65,-60.88 66.69,-102.14 110.93,-144.9 53.61,-51.83 113.27,-96.71 168.37,-146.84 11.94,-10.87 20.1,-22.67 25.65,-37.95 18.96,-52.11 31.02,-106.42 50.37,-158.32 16.02,-42.97 34.24,-85.15 52.39,-127.29 4.36,-10.14 11.42,-19.49 18.77,-27.86 7.46,-8.51 14.58,-6.85 20.5,2.99 6,9.96 7.57,21.17 8.52,32.42 4.4,51.54 -6.17,100.69 -30.98,145.29 -17.57,31.56 -26.45,65.49 -37.23,99.07 -2.57,8.02 -6.62,17.67 2.26,27.38 20.46,-20.53 40.09,-39.87 59.34,-59.57 52.63,-53.88 102.32,-111.02 159.64,-159.81 51.59,-43.9 102.55,-88 147.72,-138.57 26.2,-29.31 58.39,-51.06 90.77,-73.01 29.9,-20.28 56.31,-43.86 72.8,-78.74 26.77,-56.62 61.76,-108.26 110.5,-149.32 12.52,-10.54 23.26,-23.17 35.12,-34.54 36.27,-34.72 67.28,-74.62 105.92,-107.03 27.22,-22.83 54,-46.21 80.52,-69.84 8.86,-7.89 18.12,-15.17 22.42,-27.81 13.09,-38.53 28.09,-76.39 41.46,-114.83 6.97,-20.07 7.98,-40.99 -1.05,-60.79 -6.05,-13.27 -15.22,-25.01 -13.86,-40.99 0.55,-6.44 -4.84,-10.92 -10.4,-13.89 -7.62,-4.09 -15.48,-7.76 -23.19,-11.68 -13.4,-6.82 -14.62,-11.65 -5.59,-23.87 7.01,-9.47 15.63,-16.78 28.41,-14.6 53.94,9.2 109.12,5.01 162.96,15.43 7.53,1.45 15.72,1.54 23.29,0.33 24.8,-3.95 50.15,-6.5 73.97,-13.85 37.4,-11.52 76.22,-16.3 113.72,-26.98 10.68,-3.04 22.27,-3.11 33.48,-3.99 13.39,-1.06 17.58,8.84 21.1,18.98 3.7,10.69 4.07,21.93 -7.08,27.49"
         style="fill:#000000;fill-opacity:1;fill-rule:nonzero;stroke:none"
         transform="matrix(0.13333333,0,0,-0.13333333,0,666.66667)" />
      <path
         id="path11"
         d="m 6128.34,1897.9 c -6.6,-9.07 -12.84,-18.43 -18.85,-27.92 -5.91,-9.3 -4.93,-17.69 4.07,-24.9 8.57,-6.86 14.56,-0.77 20.53,3.93 11.54,9.08 22.08,19.39 34.89,26.9 36.15,21.2 77.82,7.16 89.37,-29.29 6.23,-19.65 16.08,-38.32 28.28,-55.36 56.08,-78.32 119.3,-150.37 190.22,-215.57 16.42,-15.1 33.26,-29.92 55.54,-38.07 -8.67,23.34 -25.43,41.01 -39.72,60.21 -40.82,54.81 -79.06,111.72 -125.74,161.95 -40.52,43.6 -71.36,93.2 -96.28,147.07 -8.67,18.76 -14.62,39.11 -27.47,55.75 -10.96,14.21 -20.93,30.54 -43.63,25.92 -7.22,-1.47 -13.12,3.8 -18.91,7.44 -11.77,7.41 -24.49,12.69 -37.08,18.48 -22.78,10.49 -47.63,15.71 -69.31,29.11 -10.9,6.74 -23.33,11.73 -35.73,15.09 -9.71,2.61 -21.95,4.01 -28.3,-6.73 -5.87,-9.96 2.07,-18.24 7.89,-25.5 10.52,-13.1 25.71,-20.47 39.76,-28.71 25.33,-14.83 50.16,-30.51 77.44,-42.1 25.84,-10.98 26.15,-16.71 7.93,-39.69 -4.84,-6.1 -10.33,-11.72 -14.9,-18.01"
         style="fill:#000000;fill-opacity:1;fill-rule:nonzero;stroke:none"
         transform="matrix(0.13333333,0,0,-0.13333333,0,666.66667)" />
      <path
         id="path12"
         d="m 6652.36,1366.37 c -3.91,1.82 -8.1,3.01 -12.18,4.49 -11.41,4.16 -22.85,7.89 -28.3,20.72 -1.5,3.53 -5.88,6.56 -9.65,8.28 -27.79,12.65 -50.92,32.56 -76.49,48.63 -28.63,18.02 -43.94,17.44 -70.41,-3.29 -15.94,-12.48 -15.48,-25.29 1.96,-35.72 7.36,-4.4 16.23,-6.27 23.46,-10.82 13.92,-8.75 15.41,-17.04 6.63,-32.87 -2.9,-5.25 -3.05,-9.7 0.06,-14.43 2.85,-4.32 6.18,-8.33 8.9,-12.73 11.32,-18.34 6.07,-30.3 -14.72,-34.54 -8.45,-1.73 -18.49,-1.91 -24.77,-6.74 -16.58,-12.74 -35.36,-12.19 -54.27,-13.29 -32.43,-1.89 -64.86,-4.14 -97.29,-6.23 0.12,-2.35 0.24,-4.68 0.35,-7.01 47.91,-7.62 95.93,-8.1 143.54,3.12 13.04,3.08 24.93,3.8 38.13,1.56 14.28,-2.42 28.87,-5.13 43.77,-2.12 24.57,4.96 49.2,9.85 74.02,13.34 20.6,2.9 39.31,6.84 46.71,30.02 1.17,3.66 5.7,6.24 8.64,9.35 18.33,19.37 16.45,28.91 -8.09,40.28"
         style="fill:#000000;fill-opacity:1;fill-rule:nonzero;stroke:none"
         transform="matrix(0.13333333,0,0,-0.13333333,0,666.66667)" />
      <path
         id="path13"
         d="m 2719.27,1630.72 c -4.56,-11.04 5.12,-30.52 15.66,-34.61 13.66,-5.3 17.8,6.38 24.22,14.1 18.25,21.91 36.04,44.17 57.16,63.65 16.46,15.19 25.1,34.94 25.67,51.28 -1.48,36.79 -9.18,64.21 -32.4,86.02 -20.18,18.94 -39.17,39.16 -58.54,58.96 -6.03,6.17 -13.31,16.43 -20.95,9.95 -7.27,-6.17 -15.85,-16.21 -11.37,-29.11 1.42,-4.09 2.49,-8.3 3.67,-12.47 8.27,-29.11 8.5,-57.68 -5.67,-85.33 -1.17,-2.3 -1.89,-4.83 -2.93,-7.19 -4.52,-10.19 -4.87,-20.11 1.88,-29.56 8.55,-11.94 9.76,-25.53 9.36,-39.66 -0.43,-15.54 0.47,-30.94 -5.76,-46.03"
         style="fill:#000000;fill-opacity:1;fill-rule:nonzero;stroke:none"
         transform="matrix(0.13333333,0,0,-0.13333333,0,666.66667)" />
      <path
         id="path14"
         d="m 4831.28,2364.58 c -2.66,-13.94 4.42,-19.91 8.59,-27.11 24.76,-42.71 48.09,-86.04 66.8,-131.92 16.33,-40.03 31.2,-80.93 54.03,-117.97 41.86,-67.91 90.25,-131.31 137.03,-195.8 6.23,-8.57 13.3,-17.29 28.35,-25.62 -5.65,10.07 -8.51,15.13 -11.35,20.21 -18.55,33.23 -39.63,64.98 -55.12,100.01 -43.75,98.92 -90.64,196.45 -130.78,296.98 -15.74,39.42 -35.8,76.91 -63.21,109.82 -3.86,4.63 -7.17,11.66 -18.78,10.36 26.28,-44.47 51.67,-86.99 59.01,-136.99 -26.9,30.09 -38.07,72.14 -74.57,98.03"
         style="fill:#000000;fill-opacity:1;fill-rule:nonzero;stroke:none"
         transform="matrix(0.13333333,0,0,-0.13333333,0,666.66667)" />
      <path
         id="path15"
         d="m 4830.28,1815.35 c 13.28,-7.21 21.93,-16.84 25.36,-30.79 4.74,-19.25 17.86,-30.04 35.71,-33.52 23.63,-4.61 39.8,-19.8 56.68,-34.54 9.11,-7.96 17.89,-16.31 27.13,-24.11 5.09,-4.32 10.4,-9.32 19.06,-5.42 -3.45,24.65 2.19,51.85 -22.21,70.22 -2.3,1.74 -2.72,6.24 -3.59,9.57 -2.35,9.02 -8.27,15.48 -15.92,19.69 -33.59,18.48 -61.72,43.52 -90.21,68.93 -31.32,27.92 -47.41,62.24 -58.12,101.07 -6.98,25.29 -8.78,52.89 -28.99,73 5.15,-49.6 4.35,-100.03 20.81,-148.06 1.09,-3.17 1.35,-6.96 0.85,-10.28 -4.27,-27.89 12,-44.12 33.44,-55.76"
         style="fill:#000000;fill-opacity:1;fill-rule:nonzero;stroke:none"
         transform="matrix(0.13333333,0,0,-0.13333333,0,666.66667)" />
      <path
         id="path16"
         d="m 4774.91,2029.75 c 0.1,-0.1 0.17,-0.2 0.27,-0.3 -0.01,0.14 -0.02,0.28 -0.04,0.43 l -0.23,-0.13"
         style="fill:#000000;fill-opacity:1;fill-rule:nonzero;stroke:none"
         transform="matrix(0.13333333,0,0,-0.13333333,0,666.66667)" />
      <path
         id="path17"
         d="m 5624.48,2462.68 c -20.2,23.87 -39.34,48.5 -41.8,81.62 -0.38,5.22 -2.25,10.07 -5.99,14.09 -8.5,9.11 -23.64,6.11 -26.87,-5.9 -1.3,-4.85 -0.59,-10.33 -0.28,-15.49 2.03,-33.48 16.03,-63.54 28.4,-93.77 14.42,-35.26 40.15,-62.64 68.95,-86.69 25.96,-21.68 45.65,-47.17 55.53,-79.71 15.67,-51.52 37.55,-100.5 61,-148.82 3.51,-7.24 4.24,-17.06 19.65,-21.28 -7.79,22.09 -13.53,40.03 -20.38,57.54 -25.07,64.15 -35.02,133.22 -71.5,194.15 -21.26,35.52 -39.73,72.4 -66.71,104.26"
         style="fill:#000000;fill-opacity:1;fill-rule:nonzero;stroke:none"
         transform="matrix(0.13333333,0,0,-0.13333333,0,666.66667)" />
      <path
         id="path18"
         d="m 4214.14,2609.15 c -2.99,-11.36 -0.1,-22.18 9.71,-27.16 12.69,-6.47 20.88,-18.38 33.03,-24.56 31.25,-15.91 57.02,-38.82 81.85,-62.77 19.77,-19.06 43.98,-30.24 67.91,-42.1 4.47,-2.21 10.23,-7.4 15.82,-1.27 -61.5,68.49 -122.74,136.68 -185.26,206.29 -16.17,-16.38 -18.92,-32.69 -23.06,-48.43"
         style="fill:#000000;fill-opacity:1;fill-rule:nonzero;stroke:none"
         transform="matrix(0.13333333,0,0,-0.13333333,0,666.66667)" />
      <path
         id="path19"
         d="m 4229,2930.11 c 6.72,-4.11 14.53,0.28 11.54,7.11 -7.22,16.48 -7.54,35.47 -19.16,50.25 -18.2,23.11 -35.8,46.68 -54.09,69.72 -9.94,12.51 -24.83,11.56 -30.71,-3.06 -7.71,-19.2 -21.32,-33.29 -34.89,-47.8 -5.32,-5.69 -11.1,-11.18 -15.27,-17.66 -6.89,-10.69 -1.34,-26.48 8.9,-27.63 9.23,-0.11 12.74,8.15 18.55,12.92 8.7,7.15 15.02,12.33 29.3,7.32 16.15,-5.66 30.43,-12.29 41.86,-24.19 12.46,-12.97 29.33,-18.02 43.97,-26.98"
         style="fill:#000000;fill-opacity:1;fill-rule:nonzero;stroke:none"
         transform="matrix(0.13333333,0,0,-0.13333333,0,666.66667)" />
      <path
         id="path20"
         d="m 4477.8,2565.3 c 2.4,-3.48 5.35,-6.91 8.8,-9.25 7.21,-4.89 11.03,-0.61 13.37,5.98 0.37,3.94 0.49,4.03 -6.37,13.6 -32.53,45.43 -59.45,94.81 -103.81,131.54 -27.42,22.69 -43.22,55.86 -61.56,86.2 -5.71,9.46 -13.85,14.09 -23.84,8.31 -9.35,-5.41 -4.36,-14.45 -1.03,-20.8 25.36,-48.34 51.61,-96.74 95.15,-131.25 30.87,-24.46 57.1,-52.21 79.29,-84.33"
         style="fill:#000000;fill-opacity:1;fill-rule:nonzero;stroke:none"
         transform="matrix(0.13333333,0,0,-0.13333333,0,666.66667)" />
      <path
         id="path21"
         d="m 3189.41,1353.18 c 7.38,-3.62 15.32,2.86 16.11,13.97 -3.33,9.58 -9.55,19.41 -20.39,25.99 -9.95,6.04 -20.34,10.16 -31.82,5.04 -4.92,-2.19 -4.73,-7.16 -2.08,-11.02 9.87,-14.46 22.46,-26.27 38.18,-33.98"
         style="fill:#000000;fill-opacity:1;fill-rule:nonzero;stroke:none"
         transform="matrix(0.13333333,0,0,-0.13333333,0,666.66667)" />
      <path
         id="path22"
         d="m 4150.21,1248.95 c -0.02,0.02 -0.04,0.03 -0.06,0.04 -0.02,0.01 -0.03,0.01 -0.05,0.01 0.01,-0.01 0.02,-0.02 0.02,-0.04 0.03,0 0.06,-0.01 0.09,-0.01"
         style="fill:#000000;fill-opacity:1;fill-rule:nonzero;stroke:none"
         transform="matrix(0.13333333,0,0,-0.13333333,0,666.66667)" />
      <path
         id="path23"
         d="m 4165.54,1243.81 c -0.28,0.04 -0.55,0.08 -0.82,0.11 0.17,-0.15 0.37,-0.23 0.54,-0.4 l 0.28,0.29"
         style="fill:#000000;fill-opacity:1;fill-rule:nonzero;stroke:none"
         transform="matrix(0.13333333,0,0,-0.13333333,0,666.66667)" />
      <path
         id="path24"
         d="m 4150.21,1248.95 c 4.1,-3.84 9.33,-4.34 14.51,-5.03 -4.14,3.64 -9.26,4.53 -14.51,5.03"
         style="fill:#000000;fill-opacity:1;fill-rule:nonzero;stroke:none"
         transform="matrix(0.13333333,0,0,-0.13333333,0,666.66667)" />
      <path
         id="path25"
         d="m 4176.41,1238.23 c -0.04,0.15 -0.12,0.29 -0.17,0.44 v 0 c -3.56,1.72 -7.13,3.43 -10.69,5.14 -0.01,0 -0.29,-0.29 -0.29,-0.29 3.62,-1.68 7.22,-3.35 10.82,-5.03 0.11,-0.09 0.22,-0.17 0.33,-0.26"
         style="fill:#000000;fill-opacity:1;fill-rule:nonzero;stroke:none"
         transform="matrix(0.13333333,0,0,-0.13333333,0,666.66667)" />
      <path
         id="path26"
         d="m 4178.52,1236.47 c -0.71,0.59 -1.41,1.17 -2.11,1.76 0.13,-0.52 0.22,-1.08 0.53,-1.44 0.29,-0.32 1.04,-0.22 1.58,-0.32"
         style="fill:#000000;fill-opacity:1;fill-rule:nonzero;stroke:none"
         transform="matrix(0.13333333,0,0,-0.13333333,0,666.66667)" />
      <path
         id="path27"
         d="m 5849.75,1268.93 c 1.28,2.39 0.71,2.85 -1.62,1.3 -0.01,-0.01 -0.35,-0.39 -0.35,-0.39 0.69,-0.31 1.95,-0.95 1.97,-0.91"
         style="fill:#000000;fill-opacity:1;fill-rule:nonzero;stroke:none"
         transform="matrix(0.13333333,0,0,-0.13333333,0,666.66667)" />
      <path
         id="path28"
         d="m 5848.13,1270.23 c -0.53,0.15 -1.06,0.28 -1.59,0.43 0.41,-0.27 0.82,-0.55 1.23,-0.82 0.01,0 0.35,0.38 0.36,0.39"
         style="fill:#000000;fill-opacity:1;fill-rule:nonzero;stroke:none"
         transform="matrix(0.13333333,0,0,-0.13333333,0,666.66667)" />
      <path
         id="path29"
         d="m 5838.01,1276.37 c -0.77,-0.92 -1.55,-1.83 -2.32,-2.75 3.63,-0.99 7.24,-1.97 10.85,-2.96 -2.85,1.9 -5.69,3.81 -8.53,5.71"
         style="fill:#000000;fill-opacity:1;fill-rule:nonzero;stroke:none"
         transform="matrix(0.13333333,0,0,-0.13333333,0,666.66667)" />
      <path
         id="path30"
         d="m 5826.66,1280.14 c -0.04,0.03 -0.08,0.06 -0.13,0.1 -0.03,0 -0.05,0.01 -0.08,0.01 0.02,-0.02 0.04,-0.04 0.05,-0.06 0.06,-0.01 0.11,-0.03 0.16,-0.05"
         style="fill:#000000;fill-opacity:1;fill-rule:nonzero;stroke:none"
         transform="matrix(0.13333333,0,0,-0.13333333,0,666.66667)" />
      <path
         id="path31"
         d="m 5838,1276.37 c -3.78,1.25 -7.56,2.51 -11.34,3.77 3.02,-2.18 6.02,-4.34 9.03,-6.52 0.77,0.92 1.55,1.83 2.31,2.75"
         style="fill:#000000;fill-opacity:1;fill-rule:nonzero;stroke:none"
         transform="matrix(0.13333333,0,0,-0.13333333,0,666.66667)" />
      <path
         id="path32"
         d="m 4103.55,2300.9 c 1.09,-0.68 2.18,-1.36 3.28,-2.05 -2.61,-2.85 -2.82,0.22 -3.74,1.52 -38.09,14.47 -65.36,40.97 -67.02,69.18 25.47,-22.83 50.14,-41.91 67.48,-68.65 z m -156.18,23.07 c 3.4,-0.62 6.9,-1.13 10.33,-1.02 48.25,1.59 85.98,-21.85 121.38,-50.86 12.04,-9.86 24.19,-18.23 39.86,-23.14 19.38,-6.08 38.05,-14.83 52.41,-31.78 11.75,-13.86 26.08,-26.38 42.59,-34.22 4.71,4.45 3.07,7.86 1.67,10.91 -14.22,30.84 -34.8,58.14 -57.02,82.68 -31.81,35.12 -68.55,65.87 -103.79,97.82 -25.06,22.72 -50.22,45.11 -65.5,76.19 -1.61,3.28 -2.73,8.65 -9.47,6.27 -2.82,-15.07 6.63,-26.46 13.43,-37.8 7.29,-12.14 -0.16,-14.41 -8.12,-18.84 -10.86,-6.05 -14.59,1.4 -16.63,8.94 -3.15,11.64 -2.84,24.42 -7.16,35.47 -9.52,24.35 -18.56,48.43 -15.79,75.24 0.26,2.53 -0.04,5.28 -0.78,7.72 -1.92,6.32 -5.83,10.62 -13.01,10.48 -8.01,-0.15 -13.37,-3.94 -13.98,-12.22 -0.44,-5.99 -0.45,-12.19 0.56,-18.1 4.07,-24.01 5.95,-48.15 1.13,-72.12 -4.87,-24.29 2.06,-48.43 -0.62,-72.57 -3.52,-31.65 -2.27,-33.46 28.51,-39.05"
         style="fill:#000000;fill-opacity:1;fill-rule:nonzero;stroke:none"
         transform="matrix(0.13333333,0,0,-0.13333333,0,666.66667)" />
      <path
         id="path33"
         d="m 3723.66,1840.81 c -6.35,-2.59 -12.1,-6.69 -18.04,-10.23 -4.93,-2.93 -7.95,-6.99 -5.17,-12.83 2.71,-5.71 8.16,-5.99 13.4,-4.99 4.21,0.8 8.48,2.12 12.28,4.06 16.94,8.65 34.49,16.42 50.4,26.69 44.37,28.63 92,51.51 137.08,78.97 27.45,16.72 54.74,32.73 78.57,54.3 25.07,22.7 50.95,44.2 82.68,57.34 3.9,1.62 7.59,4.19 10.74,7.04 3.24,2.92 5.6,7 4.13,11.58 -1.47,4.55 -5.32,6.83 -10.02,6.68 -12.1,-0.41 -24.18,-1.18 -36.28,-1.67 -26.26,-1.07 -48.36,4.95 -57.15,33.67 -1.01,3.28 -2.55,6.5 -4.37,9.41 -3.25,5.23 -7.08,10.67 -14.26,8.88 -8.69,-2.18 -9.33,-9.69 -8.34,-16.72 1.43,-10.25 3.88,-20.37 6.28,-32.41 -5.31,-11.02 -4.03,-25.28 -11.32,-37.91 -18.8,-32.55 -39.68,-62.89 -72.9,-82.62 -5.92,-3.51 -11.27,-7.98 -16.83,-12.08 -44.59,-32.87 -89.05,-65.91 -140.88,-87.16"
         style="fill:#000000;fill-opacity:1;fill-rule:nonzero;stroke:none"
         transform="matrix(0.13333333,0,0,-0.13333333,0,666.66667)" />
      <path
         id="path34"
         d="m 3615.05,1876.41 c 5.8,-11.53 14.89,-4.71 22.24,-1.06 21.62,10.73 43.18,21.6 64.42,33.04 31.86,17.17 66.44,29.2 96.28,50.11 21.85,15.3 44.03,30.33 62.73,49.66 4.3,4.44 8.5,9.12 5.06,15.9 -2.83,5.57 -8.3,5.37 -13.49,5.37 -8.91,0.13 -16.59,-2.29 -23.98,-7.85 -33.84,-25.47 -70.82,-45.96 -107.35,-67.17 -32.05,-18.61 -63.7,-37.89 -95.31,-57.25 -7.38,-4.51 -15.66,-10.7 -10.6,-20.75"
         style="fill:#000000;fill-opacity:1;fill-rule:nonzero;stroke:none"
         transform="matrix(0.13333333,0,0,-0.13333333,0,666.66667)" />
      <path
         id="path35"
         d="m 2068.56,1907.33 c -23.29,13.06 -38.67,5.6 -39.46,-21.24 -0.82,-28.07 -11.07,-52.06 -26.53,-74.73 -12.18,-17.87 -23.38,-36.41 -35.26,-54.5 -21.56,-32.83 -33.42,-70.22 -50.33,-105.22 -7.17,-14.82 -10.58,-28.53 -7.89,-46.47 9.41,4.07 13.92,9.4 17.93,14.94 47.85,66.16 104.99,124.21 160.39,183.77 8.95,9.63 16.96,19.87 22.27,31.67 5.55,12.34 6.55,25.66 -3.18,36.69 -11.4,12.94 -22.38,26.36 -37.94,35.09"
         style="fill:#000000;fill-opacity:1;fill-rule:nonzero;stroke:none"
         transform="matrix(0.13333333,0,0,-0.13333333,0,666.66667)" />
      <path
         id="path36"
         d="m 2302.49,2184.61 c -10.46,3.58 -24.68,-1.43 -27.31,-13.36 -6.88,-31.14 -33.32,-49.98 -45.55,-77.42 -2.55,-5.73 -7.06,-7.22 -12.4,-7.53 -6.91,-0.38 -13.86,-0.13 -20.76,-0.57 -24.08,-1.57 -29.65,-11.76 -14.93,-31.36 14.99,-19.94 31.87,-38.58 49.03,-56.75 10.89,-11.53 20.37,-9.9 29.43,3.99 8.95,13.7 16.87,27.94 20.83,44.28 6.29,26.01 13.71,51.75 20.58,77.62 3.31,12.48 11.36,23.55 11.01,37.16 -0.31,9.19 2.26,19.77 -9.93,23.94"
         style="fill:#000000;fill-opacity:1;fill-rule:nonzero;stroke:none"
         transform="matrix(0.13333333,0,0,-0.13333333,0,666.66667)" />
      <path
         id="path37"
         d="m 1193.49,889.77 c 73.31,0.921 146.05,9.371 219.06,16.671 100.14,10.008 205.19,17.161 302.86,41.719 66.11,16.629 131.34,37.531 197.48,53.6 27.95,6.8 49.41,14.48 78.08,14.55 54.61,0.14 107.92,17.44 161.57,25.42 17.97,2.67 29.62,1.3 46.67,-5.29 21.14,-8.18 43.88,-8.25 66.3,-7.29 24.92,1.06 45.87,11.98 70.07,14.46 10.16,1.03 21.15,-0.47 31.46,-0.5 14.38,-0.05 32.07,3.4 45.89,0.47 9.81,-2.07 19.39,-12.48 29.44,-17.07 46.86,-21.4 96.67,-24.36 147,-30.061 39.14,-4.429 78.11,-7.09 117.49,-6.84 29.13,0.2 65.14,-5.961 93.57,0.743 25.1,5.898 37.73,8.449 63.21,-3.09 36.62,-16.59 84.31,-16.801 124.08,-17.68 108.54,-2.383 216.58,-13.141 325.48,-13.141 111.18,0 220.97,6.668 332.17,6.668 -46.09,0 -92.19,-0.359 -138.27,0.153 -25.65,0.289 -50.08,-6.582 -75.88,-7.082 -29.62,-0.59 -55.98,0.582 -85,-4.93 -48.33,-9.16 -104.34,-1.449 -153.75,-1.48 -55.15,-0.032 -107.43,-2.899 -161.08,-13.168 -34.23,-6.571 -68.48,-17.821 -103.67,-12.141 -28.5,4.598 -56.27,13.348 -84.89,17.488 -42.81,6.192 -88.8,1.16 -132.07,1.16 -52.69,0 -106.01,-4.289 -157.59,8.2 -23.65,5.742 -41.87,17.55 -63.95,27.121 -25.27,10.961 -56.43,17.05 -83.99,18.172 -83.04,3.347 -165.39,6.508 -248.73,6.508 -24.61,0 -49.22,-0.15 -73.82,0.15 -43.19,0.51 -75.48,-18.74 -115.73,-28.479 -99.27,-24.011 -200.9,-46.832 -302.96,-57.601 -77.69,-8.2 -155.45,-15.078 -233.24,-22.379 -41.34,-3.879 -81.66,-5.231 -123.16,-4.852 -24.71,0.231 -47.24,-5.41 -71.3,-7.09 -38.84,-2.718 -76.99,-0.39 -115.98,-4.937 -57.7,-6.711 -118.92,-1.481 -177.044,-1.481 -30.352,0 -65.805,-4.589 -96.121,-0.339 -16.547,2.308 -29.981,7.128 -47.157,6.98 -12.675,-0.113 -25.355,0.027 -38.031,0.027 46.563,0 93.176,-0.679 139.731,-0.25 26.617,0.243 51.621,7.34 78.035,7.071 19.031,-0.2 38.067,-0.16 57.107,-0.16 76.67,0 153.33,0 156.66,0"
         style="fill:#000000;fill-opacity:1;fill-rule:nonzero;stroke:none"
         transform="matrix(0.13333333,0,0,-0.13333333,0,666.66667)" />
      <path
         id="path38"
         d="m 3780.16,956.441 c 110.32,0.848 223.73,8.399 332.76,26.75 23.77,3.989 49.91,12.239 73.59,13.528 14.42,0.781 26.38,-5.957 39.96,-9.707 23.69,-6.532 48.23,-3.91 72.67,-3.891 40.36,0.027 86.84,6.258 125.54,-4.851 21.96,-6.309 43.9,-8.282 65.24,-14.36 23.89,-6.808 48.49,-14.48 73.39,-14.199 27.33,0.301 54.69,0.059 82.03,0.059 25.36,0 53.89,-3.469 78.99,1.16 35.46,6.558 63.89,20.711 95.84,35.699 15.31,7.172 31.32,13.043 46.78,19.971 10.23,4.57 28.37,12.97 40.16,10.47 10.62,-2.26 8.22,-7.69 14.4,-14.16 8.55,-8.93 19.62,-11.191 32.06,-12.629 18.71,-2.179 37.69,0.43 56.51,-1.082 31.41,-2.519 64.04,-4.969 95.14,-10.008 60.64,-9.832 121.48,-18.711 182.22,-27.941 15.7,-2.379 30.43,-2.891 45.77,-7.781 12.77,-4.059 24.78,-10.188 38.11,-12.559 14.89,-2.629 30.7,-1.031 45.72,-2.59 29.58,-3.09 57.25,-11.629 87.31,-12.199 35.08,-0.68 70.29,0.32 105.4,0.32 64.18,0 128.35,0 192.54,0 104.18,0 209.13,-3.57 313.28,0.161 -51.45,3.578 -104.36,-19.883 -155.97,-20.692 -65.48,-1.012 -130.43,-6.25 -195.96,-6.109 -94.21,0.187 -188.42,-0.031 -282.62,-0.031 -54.51,0 -109.04,0.332 -163.55,-0.059 -16.55,-0.129 -29.76,1.578 -45.73,4.918 -27.75,5.793 -56.61,5.473 -83.91,13.34 -34.5,9.941 -66.85,25.031 -102.3,31.863 -20.8,4 -42.49,9.277 -63.67,10.258 -19.25,0.898 -38.93,-2.539 -58.02,0.269 -24.88,3.653 -48.86,12.352 -74.01,12.813 -35.06,0.637 -66.06,0.387 -99.75,-10.012 -17.16,-5.289 -35.57,-8.109 -51.52,-16.351 -13.79,-7.137 -26.39,-15.18 -41.14,-20.68 -33.89,-12.649 -74.79,-13.391 -110.96,-13.09 -32.18,0.27 -59.66,1.859 -91.17,8.563 -38.41,8.179 -81.39,-3.442 -118.2,7.929 -11.4,3.508 -19.73,9.27 -32.17,10.457 -12.84,1.223 -16.56,0.602 -28.52,7.442 -40.5,23.14 -68.13,29.691 -113.09,22.34 -16.42,-2.688 -32.18,-1.098 -48.36,-2.961 -20.31,-2.329 -37.56,-7.399 -58.69,-7.2 -50.41,0.5 -100.03,-7.121 -150.24,-6.66 -57.85,0.531 -114.45,-6.508 -165.86,13.492"
         style="fill:#000000;fill-opacity:1;fill-rule:nonzero;stroke:none"
         transform="matrix(0.13333333,0,0,-0.13333333,0,666.66667)" />
      <path
         id="path39"
         d="m 7043.49,1049.77 c -26.18,5.63 -44.28,3.88 -71.28,1.47 -44.21,-3.93 -89.06,-6.37 -133.44,-6.69 -37.91,-0.27 -76.37,-1.91 -114.19,0.74 -49.73,3.47 -99.22,10.94 -148.67,16.94 -34.19,4.16 -72.27,4.61 -104.59,17.67 -11.28,4.56 -20.92,12.89 -31.46,18.87 -13.43,7.64 -23.3,8.48 -37.87,12.09 -11.39,2.85 -21.64,9.14 -32.22,14.03 -14.43,6.66 -29.21,9.49 -43.64,14.87 -14.02,5.23 -27.51,6.65 -42.84,5.25 -29.36,-2.67 -58.8,-14.55 -88.01,-19.25 -18.34,-2.96 -38.19,-10.18 -56.42,-11.17 -19.98,-1.08 -38,0.09 -57.72,-3.61 -12.44,-2.33 -21.9,-1.38 -34.01,-5.95 -8.65,-3.27 -16.98,-7.24 -25.73,-10.32 -68.7,-24.09 -147.39,-14.94 -218.92,-14.94 -153.04,0 -306.07,0 -459.11,0 77.86,0 157.41,4.89 235.01,-1.11 48.67,-3.76 96.85,-3.89 145.65,-3.89 43.46,0 86.93,-0.34 130.37,0.12 29.38,0.31 58.54,-5.28 88.31,-5.12 27.25,0.15 55.33,2.31 82.42,-1 15.18,-1.85 29.86,-6.32 45.06,-8.12 38.88,-4.58 80.41,3.27 119.01,7.9 40.6,4.86 79.78,24.86 121.34,21.6 12.37,-0.98 21.6,-7.25 33.84,-9.42 15.04,-2.69 29.14,-1.65 43.99,-5.82 33.34,-9.37 68.42,-11.08 102.38,-17.58 31.62,-6.05 63.76,-13.47 94.45,-22.79 39.5,-12.02 86.46,-4.77 127.19,-4.77 75.73,0 153.12,-0.22 227.31,16.38 42.66,9.54 85.31,8.62 103.79,3.62"
         style="fill:#000000;fill-opacity:1;fill-rule:nonzero;stroke:none"
         transform="matrix(0.13333333,0,0,-0.13333333,0,666.66667)" />
    </g>
  </g>
</svg>
