<svg xmlns="http://www.w3.org/2000/svg" version="1.1" xmlns:xlink="http://www.w3.org/1999/xlink" xmlns:svgjs="http://svgjs.dev/svgjs" viewBox="0 0 800 800"><g transform="matrix(-0.12186934340514717,-0.9925461516413221,0.9925461516413221,-0.12186934340514717,-18.270723294469917,802.7661980185877)"><rect width="14" height="14" x="742" y="677" stroke-width="6" stroke="#f2ff00" fill="none" opacity="0.1" rx="9" ry="9" transform="matrix(-0.13917310096006535,0.9902680687415704,-0.9902680687415704,-0.13917310096006535,682.6124145622714,30.614080952305358)"></rect><rect width="50.5" height="50.5" x="703.6666666666666" y="629.8333333333334" stroke-width="5.541666666666667" stroke="#ebff1f" fill="none" opacity="0.175" rx="13.25" ry="13.25" transform="matrix(0.0101811806327504,0.9999957692054863,-0.9999746148749171,0.002908877984361963,633.7298078547439,-16.90618223052047)"></rect><rect width="87" height="87" x="665.3333333333334" y="582.6666666666666" stroke-width="5.083333333333333" stroke="#e3ff2c" fill="none" opacity="0.25" rx="17.5" ry="17.5" transform="matrix(0.15932371943029275,0.9894416385809445,-0.9873335414833588,0.1449318593072467,577.646691446569,-57.75559755841073)"></rect><rect width="123.5" height="123.5" x="627" y="535.5" stroke-width="4.625" stroke="#dbff36" fill="none" opacity="0.32499999999999996" rx="21.75" ry="21.75" transform="matrix(0.30493686574439527,0.958819734868193,-0.952622498000872,0.28401534470392253,515.8837269838064,-91.10566058439122)"></rect><rect width="160" height="160" x="588.6666666666666" y="488.33333333333337" stroke-width="4.166666666666667" stroke="#d3ff3e" fill="none" opacity="0.4" rx="26" ry="26" transform="matrix(0.4437804117433448,0.9087511289735644,-0.8966078201784883,0.4173384544818178,450.0610362913998,-116.27996810165632)"></rect><rect width="196.5" height="196.5" x="550.3333333333334" y="441.16666666666663" stroke-width="3.7083333333333335" stroke="#cbff45" fill="none" opacity="0.475" rx="30.25" ry="30.25" transform="matrix(0.5727630119557177,0.8402513082009656,-0.8205277707479195,0.542197140407957,381.85402724491144,-132.76793689719932)"></rect><rect width="233" height="233" x="512" y="394" stroke-width="3.25" stroke="#c2ff4c" fill="none" opacity="0.5499999999999999" rx="34.5" ry="34.5" transform="matrix(0.6890103608851208,0.754709580222772,-0.7260654244134036,0.6560590289905073,312.9492738841713,-140.23515935810747)"></rect><rect width="269.5" height="269.5" x="473.66666666666674" y="346.8333333333333" stroke-width="2.791666666666667" stroke="#b9ff52" fill="none" opacity="0.625" rx="38.75" ry="38.75" transform="matrix(0.7899286382367231,0.6538608952570697,-0.615311785454809,0.7566147828674928,245.0016368532445,-138.53018589897658)"></rect><rect width="306" height="306" x="435.33333333333337" y="299.66666666666663" stroke-width="2.3333333333333335" stroke="#afff57" fill="none" opacity="0.7" rx="43" ry="43" transform="matrix(0.8732618345084927,0.5397506579515129,-0.49071993870751307,0.8418249385952574,179.59367809756503,-127.68759664981656)"></rect><rect width="342.5" height="342.5" x="397" y="252.5" stroke-width="1.875" stroke="#a5ff5d" fill="none" opacity="0.7749999999999999" rx="47.25" ry="47.25" transform="matrix(0.937141702006313,0.414693242656239,-0.3550512299352354,0.9099612708765432,118.19841107115855,-107.92730010472792)"></rect><rect width="379" height="379" x="358.66666666666674" y="205.33333333333331" stroke-width="1.416666666666667" stroke="#9aff62" fill="none" opacity="0.85" rx="51.5" ry="51.5" transform="matrix(0.9801292358667919,0.2812250534756307,-0.2113146454175773,0.9596418442823492,62.146227721984076,-79.65007295609985)"></rect><rect width="415.5" height="415.5" x="320.33333333333337" y="158.16666666666663" stroke-width="0.9583333333333339" stroke="#8eff66" fill="none" opacity="0.9249999999999999" rx="55.75" ry="55.75" transform="matrix(1.0012467729936738,0.14205308113105247,-0.06270070917907772,0.9898590415514598,12.596769759512426,-43.42943157504061)"></rect><rect width="452" height="452" x="282" y="111" stroke-width="0.5" stroke="#81ff6b" fill="none" opacity="0.9999999999999999" rx="60" ry="60" transform="matrix(1,0,0.08748866352592401,1,-29.483678940750906,0)"></rect></g></svg>