<svg xmlns="http://www.w3.org/2000/svg" viewBox="0 9.699999809265137 142.5500030517578 48.75" data-asc="0.8" width="142.5500030517578" height="48.75"><defs/><g fill="red"><g transform="translate(0, 0)"><path d="M4 43.95Q1.85 43.95 0.93 43.17Q0 42.40 0 41.15Q0 40.15 0.50 38.90Q1 37.65 1.80 36.30Q3.55 33.30 5.78 30.02Q8 26.75 10.15 23.55Q11.30 21.80 12.58 19.97Q13.85 18.15 14.97 16.42Q16.10 14.70 16.75 13.30Q16.25 13.25 15.75 13.25Q15.25 13.25 14.70 13.25Q12.55 13.25 10.25 13.57Q7.95 13.90 5.97 14.60Q4 15.30 2.80 16.42Q1.60 17.55 1.60 19.15Q1.60 20.15 2.18 20.75Q2.75 21.35 3.48 21.70Q4.20 22.05 4.55 22.30Q4.95 22.55 4.95 22.70Q4.95 22.80 4.75 22.80Q4.35 22.80 3.33 22.27Q2.30 21.75 1.45 20.80Q0.60 19.85 0.55 18.60Q0.55 18.50 0.45 18.30Q0.35 18.10 0.35 17.95Q0.25 16.05 1.30 14.75Q2.35 13.45 4.17 12.63Q6 11.80 8.25 11.42Q10.50 11.05 12.75 11.05Q15.25 11.05 17.50 11.45Q17.55 11.25 17.58 11.10Q17.60 10.95 17.60 10.80Q17.60 10.55 17.50 10.35Q17.45 10.25 17.45 10.10Q17.45 9.70 17.90 9.70Q18.15 9.70 18.43 9.88Q18.70 10.05 18.85 10.50Q18.90 10.60 18.90 10.85Q18.90 11.25 18.75 11.70Q19.35 11.90 19.83 12.10Q20.30 12.30 20.75 12.50Q21.15 12.65 21.65 13.13Q22.15 13.60 22.15 13.90Q22.15 14.15 21.75 14.15Q21.55 14.15 21.25 14.10Q20.95 14.05 20.55 13.90Q20.05 13.75 19.50 13.63Q18.95 13.50 18.35 13.40Q17.55 15.55 15.95 18.47Q14.35 21.40 12.50 24.15Q10.85 26.65 9.18 29.25Q7.50 31.85 6.13 34.35Q4.75 36.85 3.95 39.10Q3.75 39.75 3.65 40.27Q3.55 40.80 3.55 41.20Q3.55 42.80 5.10 42.80Q6.45 42.80 8.65 41.75Q10.85 40.70 13.15 39.15Q17.30 36.25 21.03 32.60Q24.75 28.95 27.65 24.85Q27.60 24.25 27.58 23.57Q27.55 22.90 27.55 22.15Q27.55 20.95 27.63 19.70Q27.70 18.45 27.90 17.50Q27.95 17.10 28.38 16.42Q28.80 15.75 29.38 15.20Q29.95 14.65 30.40 14.65Q30.85 14.65 31.13 15.25Q31.40 15.85 31.40 17.35Q31.40 18.80 31.13 20.72Q30.85 22.65 29.95 24.50Q29.90 27.40 30.53 30.13Q31.15 32.85 32.33 35Q33.50 37.15 35 38.38Q36.50 39.60 38.20 39.55Q40.10 39.50 41.63 38.17Q43.15 36.85 44.28 34.63Q45.40 32.40 46.00 29.75Q46.60 27.10 46.60 24.45Q46.60 21.80 45.93 19.42Q45.25 17.05 43.80 15.50Q42.20 13.80 39.70 13.80Q39.50 13.80 39.28 13.80Q39.05 13.80 38.80 13.85Q37.55 14 36.60 14.75Q36.40 14.85 36.25 14.85Q35.65 14.85 35.65 14.35Q35.65 14.15 35.85 14Q38.60 12.10 41.25 12.10Q43.20 12.10 44.80 13.15Q46.85 14.45 47.78 17Q48.70 19.55 48.70 22.60Q48.70 25.75 47.80 29.07Q46.90 32.40 45.30 35.20Q43.70 38 41.50 39.73Q39.30 41.45 36.75 41.45Q34.80 41.45 33.03 40.38Q31.25 39.30 29.95 37.35Q28.65 35.40 27.98 32.85Q27.30 30.30 27.50 27.40Q25.90 29.40 23.68 31.67Q21.45 33.95 19.03 36.08Q16.60 38.20 14.40 39.80Q11.85 41.60 9.28 42.77Q6.70 43.95 4 43.95ZM56.70 40.60Q55.85 40.60 55.20 40.23Q54.55 39.85 54.30 38.80Q54.15 38.25 54.15 37.70Q54.15 36.20 54.93 34.77Q55.70 33.35 56.75 32.13Q57.80 30.90 58.55 30.05Q58.95 29.65 59.48 29Q60 28.35 60 27.70Q60 27.30 59.60 26.92Q59.20 26.55 58.15 26.40Q57.55 26.30 57.03 26.23Q56.50 26.15 55.95 26.15Q54.55 28.05 53.23 29.98Q51.90 31.90 50.40 33.75Q50.05 34.10 49.80 34.10Q49.50 34.10 49.50 33.80Q49.50 33.50 49.80 33.20Q52.50 29.90 54.45 26.15Q54.20 26.15 53.70 26.13Q53.20 26.10 52.90 26.05Q52.55 25.95 52.35 25.75Q52.15 25.55 52.15 25.35Q52.15 25.05 52.40 25Q53.05 24.80 53.80 24.40Q54.55 24 55.20 23.35Q55.90 22.65 56.50 21.88Q57.10 21.10 57.45 20.70Q57.80 20.45 58.20 20.45Q58.45 20.45 58.68 20.60Q58.90 20.75 58.90 21.05Q58.90 21.40 58.60 21.95Q58.15 22.65 57.63 23.50Q57.10 24.35 56.65 25.05Q57.55 25.10 58.45 25.15Q59.35 25.20 60.30 25.20Q60.80 25.20 61.28 25.17Q61.75 25.15 62.25 25.15Q63.75 25.15 63.75 25.90Q63.75 26.40 63.23 27.13Q62.70 27.85 61.95 28.70Q60.25 30.65 59.05 32.80Q57.85 34.95 57.45 36.10Q57.05 37.30 57.05 37.90Q57.05 39.10 58 39.10Q58.85 39.10 60.08 38.25Q61.30 37.40 62.60 36.17Q63.90 34.95 64.95 33.77Q66 32.60 66.45 32Q66.55 31.85 66.75 31.85Q66.95 31.85 67.10 32.02Q67.25 32.20 67.10 32.45Q66.55 33.30 65.50 34.58Q64.45 35.85 63.15 37.10Q61.85 38.35 60.60 39.25Q59.95 39.75 58.83 40.17Q57.70 40.60 56.70 40.60ZM73.70 22.60Q73.05 22.60 72.35 22.47Q71.65 22.35 71.65 21.55Q71.65 21.40 72.33 20.85Q73 20.30 73.73 19.72Q74.45 19.15 74.60 19.05Q75.45 18.35 75.65 18.35Q75.90 18.35 75.65 19Q75.40 19.65 75.40 20.15Q75.40 20.40 75.10 21Q74.80 21.60 74.40 22.10Q74 22.60 73.70 22.60M68.25 40.50Q67.35 40.50 66.63 40.10Q65.90 39.70 65.55 38.60Q65.50 38.45 65.48 38.30Q65.45 38.15 65.45 37.95Q65.45 36.95 65.90 35.45Q66.35 33.95 67 32.55Q66.70 32.95 66.30 33.52Q65.90 34.10 65.15 35Q64.95 35.20 64.70 35.20Q64.35 35.20 64.35 34.80Q64.35 34.50 64.55 34.30Q65.85 32.65 66.88 31.35Q67.90 30.05 68.40 29.15Q68.40 29.10 68.38 29.07Q68.35 29.05 68.35 29Q68.35 28.85 68.50 28.55Q68.90 27.35 69.33 26.52Q69.75 25.70 70.25 25.60Q70.35 25.60 70.45 25.57Q70.55 25.55 70.65 25.55Q71.20 25.55 71.65 25.80Q72.10 26.05 72.10 26.55Q72.10 27 71.78 27.65Q71.45 28.30 70.95 29.25Q69.85 31.55 68.98 33.42Q68.10 35.30 68 36.50Q67.95 36.70 67.95 36.88Q67.95 37.05 67.95 37.25Q67.95 39.25 69.25 39.25Q70.05 39.25 71.30 38.38Q72.55 37.50 73.85 36.23Q75.15 34.95 76.23 33.77Q77.30 32.60 77.70 32Q77.85 31.85 78 31.85Q78.20 31.85 78.33 32Q78.45 32.15 78.35 32.40Q77.90 33.25 76.83 34.52Q75.75 35.80 74.43 37.08Q73.10 38.35 71.85 39.25Q71.20 39.75 70.23 40.13Q69.25 40.50 68.25 40.50ZM79.55 40.50Q78.65 40.50 77.93 40.10Q77.20 39.70 76.85 38.60Q76.80 38.45 76.78 38.30Q76.75 38.15 76.75 37.95Q76.75 36.95 77.20 35.45Q77.65 33.95 78.30 32.55Q78.00 32.95 77.60 33.52Q77.20 34.10 76.45 35Q76.25 35.20 76.00 35.20Q75.65 35.20 75.65 34.80Q75.65 34.50 75.85 34.30Q77.15 32.65 78.18 31.35Q79.20 30.05 79.70 29.15Q79.70 29.05 80.00 28.52Q80.30 28 80.80 27.05Q80.40 27.10 80.13 27.13Q79.85 27.15 79.65 27.15Q79.30 27.15 79.05 26.85Q78.80 26.55 79.00 26.10Q79.25 25.40 80.10 25.30Q80.95 25.20 81.60 25.15Q81.65 25.05 81.80 25.05Q82.40 23.95 82.95 22.90Q83.50 21.85 83.88 21.15Q84.25 20.45 84.25 20.40Q85.25 18.80 85.55 18.27Q85.85 17.75 86.35 17.65Q86.90 17.60 87.53 17.70Q88.15 17.80 88.35 18.15Q88.50 18.35 88.50 18.65Q88.50 19.10 88.30 19.52Q88.10 19.95 87.90 20.20Q87.70 20.55 87.38 20.67Q87.05 20.80 86.80 21.30Q86.30 22.25 85.70 23.35Q85.10 24.45 84.45 25.45L85.05 25.40Q86.25 25.30 87.33 25.15Q88.40 25 89.80 25.05Q90.05 25.05 90.33 25.13Q90.60 25.20 90.60 25.35Q90.60 25.55 89.30 25.90Q88.80 26.10 87.13 26.32Q85.45 26.55 83.70 26.75Q83.20 27.70 82.80 28.32Q82.40 28.95 82.25 29.25Q81.15 31.55 80.28 33.42Q79.40 35.30 79.30 36.50Q79.25 36.70 79.25 36.88Q79.25 37.05 79.25 37.25Q79.25 39.25 80.55 39.25Q81.35 39.25 82.60 38.38Q83.85 37.50 85.15 36.23Q86.45 34.95 87.53 33.77Q88.60 32.60 89.00 32Q89.15 31.85 89.30 31.85Q89.50 31.85 89.63 32Q89.75 32.15 89.65 32.40Q89.20 33.25 88.13 34.52Q87.05 35.80 85.73 37.08Q84.40 38.35 83.15 39.25Q82.50 39.75 81.53 40.13Q80.55 40.50 79.55 40.50ZM96.30 22.60Q95.65 22.60 94.95 22.47Q94.25 22.35 94.25 21.55Q94.25 21.40 94.93 20.85Q95.60 20.30 96.33 19.72Q97.05 19.15 97.20 19.05Q98.05 18.35 98.25 18.35Q98.50 18.35 98.25 19Q98 19.65 98 20.15Q98 20.40 97.70 21Q97.40 21.60 97 22.10Q96.60 22.60 96.30 22.60M90.85 40.50Q89.95 40.50 89.23 40.10Q88.50 39.70 88.15 38.60Q88.10 38.45 88.08 38.30Q88.05 38.15 88.05 37.95Q88.05 36.95 88.50 35.45Q88.95 33.95 89.60 32.55Q89.30 32.95 88.90 33.52Q88.50 34.10 87.75 35Q87.55 35.20 87.30 35.20Q86.95 35.20 86.95 34.80Q86.95 34.50 87.15 34.30Q88.45 32.65 89.48 31.35Q90.50 30.05 91 29.15Q91 29.10 90.98 29.07Q90.95 29.05 90.95 29Q90.95 28.85 91.10 28.55Q91.50 27.35 91.93 26.52Q92.35 25.70 92.85 25.60Q92.95 25.60 93.05 25.57Q93.15 25.55 93.25 25.55Q93.80 25.55 94.25 25.80Q94.70 26.05 94.70 26.55Q94.70 27 94.38 27.65Q94.05 28.30 93.55 29.25Q92.45 31.55 91.58 33.42Q90.70 35.30 90.60 36.50Q90.55 36.70 90.55 36.88Q90.55 37.05 90.55 37.25Q90.55 39.25 91.85 39.25Q92.65 39.25 93.90 38.38Q95.15 37.50 96.45 36.23Q97.75 34.95 98.83 33.77Q99.90 32.60 100.30 32Q100.45 31.85 100.60 31.85Q100.80 31.85 100.93 32Q101.05 32.15 100.95 32.40Q100.50 33.25 99.43 34.52Q98.35 35.80 97.03 37.08Q95.70 38.35 94.45 39.25Q93.80 39.75 92.83 40.13Q91.85 40.50 90.85 40.50ZM97.60 40.65Q97.25 40.65 97.40 40.30Q97.55 40 97.95 38.92Q98.35 37.85 98.88 36.35Q99.40 34.85 99.95 33.25Q100.50 31.65 100.98 30.25Q101.45 28.85 101.75 28.05Q101.85 27.75 101.95 27.17Q102.05 26.60 102.38 26.13Q102.70 25.65 103.50 25.65Q105 25.65 105 26.35Q105 26.60 104.75 27.20Q104.15 28.55 103.45 30.30Q102.75 32.05 102.20 33.60Q101.65 35.15 101.35 36Q101.85 35.30 102.98 34Q104.10 32.70 105.50 31.20Q106.90 29.70 108.43 28.30Q109.95 26.90 111.28 26.02Q112.60 25.15 113.55 25.15Q114.75 25.15 114.75 26.45Q114.75 26.90 114.50 27.80Q114.05 29.05 113.35 30.23Q112.65 31.40 112.10 32.70Q111.15 35.05 111 36.50Q110.95 36.70 110.95 36.88Q110.95 37.05 110.95 37.25Q110.95 39.25 112.30 39.25Q113.05 39.25 114.30 38.35Q115.55 37.45 116.88 36.20Q118.20 34.95 119.25 33.77Q120.30 32.60 120.70 32Q120.85 31.85 121 31.85Q121.20 31.85 121.33 32Q121.45 32.15 121.35 32.40Q120.90 33.25 119.83 34.52Q118.75 35.80 117.45 37.08Q116.15 38.35 114.90 39.25Q114.15 39.75 113.05 40.15Q111.95 40.55 110.85 40.50Q109.45 40.35 108.85 39.52Q108.25 38.70 108.25 37.55Q108.25 36.20 108.78 34.67Q109.30 33.15 109.95 31.80Q110.60 30.45 111 29.75Q111.40 28.95 111.40 28.50Q111.40 28.10 111.05 28.10Q110.70 28.10 110 28.55Q109.30 29 108.10 30.10Q107 31.05 105.75 32.58Q104.50 34.10 103.33 35.70Q102.15 37.30 101.28 38.45Q100.40 39.60 100.05 39.80Q99.80 39.95 98.92 40.30Q98.05 40.65 97.60 40.65ZM117.80 58.35Q117.20 58.20 116.75 58.05Q115.80 57.55 115.40 56.92Q115 56.30 115 55.60Q115 54.45 115.78 53.13Q116.55 51.80 117.80 50.40Q119.05 48.90 120.98 47.35Q122.90 45.80 125 44.38Q127.10 42.95 128.70 41.90Q130.45 38.35 131.80 35.17Q133.15 32 133.70 30.30Q132.65 31.45 131.45 32.88Q130.25 34.30 129.70 34.95Q128.75 35.95 127.55 37.13Q126.35 38.30 125.03 39.13Q123.70 39.95 122.45 39.95Q121.65 39.95 120.75 39.48Q119.85 39 119.30 38.25Q118.55 37.25 118.55 36.20Q118.55 34.85 119.48 33.40Q120.40 31.95 121.88 30.57Q123.35 29.20 125.03 28.07Q126.70 26.95 128.22 26.17Q129.75 25.40 130.70 25.15Q131.60 24.85 132.90 24.85Q133.50 24.85 134.35 25.05Q135.20 25.25 135.88 25.67Q136.55 26.10 136.55 26.90Q136.55 27.30 136.15 27.15Q135.80 26.55 135.13 26.38Q134.45 26.20 133.75 26.20Q131.80 26.20 129.38 27.50Q126.95 28.80 125.05 30.55Q124.45 31.05 123.40 32.27Q122.35 33.50 121.53 34.95Q120.70 36.40 120.70 37.60Q120.70 38.25 121.05 38.75Q121.20 39 121.65 39Q122.60 39 123.98 38.15Q125.35 37.30 126.90 36Q128.45 34.70 129.93 33.23Q131.40 31.75 132.55 30.50Q133.70 29.25 134.25 28.60Q134.35 28.35 134.60 28.25Q134.85 28.15 135.15 28.15Q135.95 28.15 136.83 28.57Q137.70 29 137.55 29.30Q136.60 31.35 135.33 34.05Q134.05 36.75 132.65 39.70Q133.30 39.35 134.80 38.15Q136.30 36.95 138.10 35.27Q139.90 33.60 141.45 31.80Q142.05 31.15 142.35 31.15Q142.65 31.15 142.50 31.67Q142.35 32.20 141.70 33Q140.90 33.95 139.50 35.27Q138.10 36.60 136.55 37.98Q135 39.35 133.68 40.42Q132.35 41.50 131.60 41.90Q130.05 45.20 128.60 48.13Q127.15 51.05 125.95 52.85Q125.15 54.10 124 55.40Q122.85 56.70 121.50 57.58Q120.15 58.45 118.65 58.45Q118.45 58.45 118.25 58.42Q118.05 58.40 117.80 58.35M117.30 57.05Q117.60 57.25 118.18 57.05Q118.75 56.85 119.65 56.15Q121.60 54.60 123 52.52Q124.40 50.45 125.55 48.17Q126.70 45.90 127.75 43.80Q125.80 45.25 123.35 47.23Q120.90 49.20 118.90 51.15Q117.90 52.15 117.23 53.38Q116.55 54.60 116.55 55.60Q116.55 56.65 117.30 57.05Z"/></g></g></svg>