<svg xmlns="http://www.w3.org/2000/svg" version="1.1" xmlns:xlink="http://www.w3.org/1999/xlink" xmlns:svgjs="http://svgjs.dev/svgjs" viewBox="0 0 1422 800" opacity="0.87"><g fill="none" stroke-width="4.75" stroke="hsl(335, 77%, 50%)" stroke-linecap="round" stroke-dasharray="0 5"><line x1="818.5" y1="400" x2="603.5" y2="400" transform="rotate(0, 711, 400)" opacity="0.43"></line><line x1="490" y1="400" x2="932" y2="400" transform="rotate(1, 711, 400)" opacity="0.38"></line><line x1="969.5" y1="400" x2="452.5" y2="400" transform="rotate(2, 711, 400)" opacity="0.15"></line><line x1="240.5" y1="400" x2="1181.5" y2="400" transform="rotate(3, 711, 400)" opacity="0.40"></line><line x1="577" y1="400" x2="845" y2="400" transform="rotate(4, 711, 400)" opacity="0.46"></line><line x1="263" y1="400" x2="1159" y2="400" transform="rotate(5, 711, 400)" opacity="0.84"></line><line x1="1021.5" y1="400" x2="400.5" y2="400" transform="rotate(6, 711, 400)" opacity="0.11"></line><line x1="291" y1="400" x2="1131" y2="400" transform="rotate(7, 711, 400)" opacity="0.32"></line><line x1="419.5" y1="400" x2="1002.5" y2="400" transform="rotate(8, 711, 400)" opacity="0.68"></line><line x1="510" y1="400" x2="912" y2="400" transform="rotate(9, 711, 400)" opacity="0.86"></line><line x1="734" y1="400" x2="688" y2="400" transform="rotate(10, 711, 400)" opacity="0.39"></line><line x1="260" y1="400" x2="1162" y2="400" transform="rotate(11, 711, 400)" opacity="0.41"></line><line x1="1015" y1="400" x2="407" y2="400" transform="rotate(12, 711, 400)" opacity="0.27"></line><line x1="847.5" y1="400" x2="574.5" y2="400" transform="rotate(13, 711, 400)" opacity="0.40"></line><line x1="501.5" y1="400" x2="920.5" y2="400" transform="rotate(14, 711, 400)" opacity="0.64"></line><line x1="332.5" y1="400" x2="1089.5" y2="400" transform="rotate(15, 711, 400)" opacity="0.15"></line><line x1="25.5" y1="400" x2="1396.5" y2="400" transform="rotate(16, 711, 400)" opacity="0.65"></line><line x1="92.5" y1="400" x2="1329.5" y2="400" transform="rotate(17, 711, 400)" opacity="0.80"></line><line x1="1045.5" y1="400" x2="376.5" y2="400" transform="rotate(18, 711, 400)" opacity="0.23"></line><line x1="636.5" y1="400" x2="785.5" y2="400" transform="rotate(19, 711, 400)" opacity="0.40"></line><line x1="915.5" y1="400" x2="506.5" y2="400" transform="rotate(20, 711, 400)" opacity="0.42"></line><line x1="340" y1="400" x2="1082" y2="400" transform="rotate(21, 711, 400)" opacity="0.24"></line><line x1="151" y1="400" x2="1271" y2="400" transform="rotate(22, 711, 400)" opacity="0.42"></line><line x1="797" y1="400" x2="625" y2="400" transform="rotate(23, 711, 400)" opacity="0.41"></line><line x1="1087.5" y1="400" x2="334.5" y2="400" transform="rotate(24, 711, 400)" opacity="0.46"></line><line x1="399.5" y1="400" x2="1022.5" y2="400" transform="rotate(25, 711, 400)" opacity="0.20"></line><line x1="216" y1="400" x2="1206" y2="400" transform="rotate(26, 711, 400)" opacity="0.34"></line><line x1="179" y1="400" x2="1243" y2="400" transform="rotate(27, 711, 400)" opacity="0.59"></line><line x1="246" y1="400" x2="1176" y2="400" transform="rotate(28, 711, 400)" opacity="0.80"></line><line x1="257" y1="400" x2="1165" y2="400" transform="rotate(29, 711, 400)" opacity="0.22"></line><line x1="292" y1="400" x2="1130" y2="400" transform="rotate(30, 711, 400)" opacity="0.74"></line><line x1="89.5" y1="400" x2="1332.5" y2="400" transform="rotate(31, 711, 400)" opacity="0.24"></line><line x1="145.5" y1="400" x2="1276.5" y2="400" transform="rotate(32, 711, 400)" opacity="0.93"></line><line x1="845" y1="400" x2="577" y2="400" transform="rotate(33, 711, 400)" opacity="0.27"></line><line x1="629" y1="400" x2="793" y2="400" transform="rotate(34, 711, 400)" opacity="0.99"></line><line x1="146.5" y1="400" x2="1275.5" y2="400" transform="rotate(35, 711, 400)" opacity="0.83"></line><line x1="904" y1="400" x2="518" y2="400" transform="rotate(36, 711, 400)" opacity="0.48"></line><line x1="374.5" y1="400" x2="1047.5" y2="400" transform="rotate(37, 711, 400)" opacity="0.87"></line><line x1="1060" y1="400" x2="362" y2="400" transform="rotate(38, 711, 400)" opacity="0.71"></line><line x1="66" y1="400" x2="1356" y2="400" transform="rotate(39, 711, 400)" opacity="0.64"></line><line x1="409" y1="400" x2="1013" y2="400" transform="rotate(40, 711, 400)" opacity="0.65"></line><line x1="514.5" y1="400" x2="907.5" y2="400" transform="rotate(41, 711, 400)" opacity="0.47"></line><line x1="877.5" y1="400" x2="544.5" y2="400" transform="rotate(42, 711, 400)" opacity="0.88"></line><line x1="515.5" y1="400" x2="906.5" y2="400" transform="rotate(43, 711, 400)" opacity="0.22"></line><line x1="638.5" y1="400" x2="783.5" y2="400" transform="rotate(44, 711, 400)" opacity="0.60"></line><line x1="929.5" y1="400" x2="492.5" y2="400" transform="rotate(45, 711, 400)" opacity="0.51"></line><line x1="1038" y1="400" x2="384" y2="400" transform="rotate(46, 711, 400)" opacity="0.81"></line><line x1="517.5" y1="400" x2="904.5" y2="400" transform="rotate(47, 711, 400)" opacity="0.49"></line><line x1="863.5" y1="400" x2="558.5" y2="400" transform="rotate(48, 711, 400)" opacity="0.81"></line><line x1="685" y1="400" x2="737" y2="400" transform="rotate(49, 711, 400)" opacity="0.92"></line><line x1="886" y1="400" x2="536" y2="400" transform="rotate(50, 711, 400)" opacity="0.44"></line><line x1="898.5" y1="400" x2="523.5" y2="400" transform="rotate(51, 711, 400)" opacity="0.09"></line><line x1="1004.5" y1="400" x2="417.5" y2="400" transform="rotate(52, 711, 400)" opacity="0.93"></line><line x1="313" y1="400" x2="1109" y2="400" transform="rotate(53, 711, 400)" opacity="0.28"></line><line x1="74" y1="400" x2="1348" y2="400" transform="rotate(54, 711, 400)" opacity="0.45"></line><line x1="530" y1="400" x2="892" y2="400" transform="rotate(55, 711, 400)" opacity="0.21"></line><line x1="270.5" y1="400" x2="1151.5" y2="400" transform="rotate(56, 711, 400)" opacity="0.18"></line><line x1="134.5" y1="400" x2="1287.5" y2="400" transform="rotate(57, 711, 400)" opacity="0.42"></line><line x1="724" y1="400" x2="698" y2="400" transform="rotate(58, 711, 400)" opacity="0.65"></line><line x1="1111" y1="400" x2="311" y2="400" transform="rotate(59, 711, 400)" opacity="0.63"></line><line x1="780.5" y1="400" x2="641.5" y2="400" transform="rotate(60, 711, 400)" opacity="0.73"></line><line x1="448.5" y1="400" x2="973.5" y2="400" transform="rotate(61, 711, 400)" opacity="0.75"></line><line x1="90.5" y1="400" x2="1331.5" y2="400" transform="rotate(62, 711, 400)" opacity="0.50"></line><line x1="546.5" y1="400" x2="875.5" y2="400" transform="rotate(63, 711, 400)" opacity="0.79"></line><line x1="62" y1="400" x2="1360" y2="400" transform="rotate(64, 711, 400)" opacity="0.10"></line><line x1="694.5" y1="400" x2="727.5" y2="400" transform="rotate(65, 711, 400)" opacity="0.62"></line><line x1="1002" y1="400" x2="420" y2="400" transform="rotate(66, 711, 400)" opacity="0.44"></line><line x1="868.5" y1="400" x2="553.5" y2="400" transform="rotate(67, 711, 400)" opacity="0.44"></line><line x1="900.5" y1="400" x2="521.5" y2="400" transform="rotate(68, 711, 400)" opacity="0.26"></line><line x1="44.5" y1="400" x2="1377.5" y2="400" transform="rotate(69, 711, 400)" opacity="0.96"></line><line x1="78.5" y1="400" x2="1343.5" y2="400" transform="rotate(70, 711, 400)" opacity="0.98"></line><line x1="232.5" y1="400" x2="1189.5" y2="400" transform="rotate(71, 711, 400)" opacity="0.45"></line><line x1="328" y1="400" x2="1094" y2="400" transform="rotate(72, 711, 400)" opacity="0.22"></line><line x1="977" y1="400" x2="445" y2="400" transform="rotate(73, 711, 400)" opacity="0.21"></line><line x1="625.5" y1="400" x2="796.5" y2="400" transform="rotate(74, 711, 400)" opacity="0.66"></line><line x1="269" y1="400" x2="1153" y2="400" transform="rotate(75, 711, 400)" opacity="0.10"></line><line x1="562" y1="400" x2="860" y2="400" transform="rotate(76, 711, 400)" opacity="0.88"></line><line x1="704.5" y1="400" x2="717.5" y2="400" transform="rotate(77, 711, 400)" opacity="0.63"></line><line x1="1052.5" y1="400" x2="369.5" y2="400" transform="rotate(78, 711, 400)" opacity="0.35"></line><line x1="280" y1="400" x2="1142" y2="400" transform="rotate(79, 711, 400)" opacity="0.84"></line><line x1="241.5" y1="400" x2="1180.5" y2="400" transform="rotate(80, 711, 400)" opacity="0.84"></line><line x1="487" y1="400" x2="935" y2="400" transform="rotate(81, 711, 400)" opacity="0.83"></line><line x1="121" y1="400" x2="1301" y2="400" transform="rotate(82, 711, 400)" opacity="0.10"></line><line x1="139.5" y1="400" x2="1282.5" y2="400" transform="rotate(83, 711, 400)" opacity="0.61"></line><line x1="1099" y1="400" x2="323" y2="400" transform="rotate(84, 711, 400)" opacity="0.34"></line><line x1="233.5" y1="400" x2="1188.5" y2="400" transform="rotate(85, 711, 400)" opacity="0.38"></line><line x1="200" y1="400" x2="1222" y2="400" transform="rotate(86, 711, 400)" opacity="0.66"></line><line x1="859" y1="400" x2="563" y2="400" transform="rotate(87, 711, 400)" opacity="0.67"></line><line x1="472" y1="400" x2="950" y2="400" transform="rotate(88, 711, 400)" opacity="0.25"></line><line x1="382.5" y1="400" x2="1039.5" y2="400" transform="rotate(89, 711, 400)" opacity="0.80"></line><line x1="119.5" y1="400" x2="1302.5" y2="400" transform="rotate(90, 711, 400)" opacity="0.25"></line><line x1="950.5" y1="400" x2="471.5" y2="400" transform="rotate(91, 711, 400)" opacity="0.24"></line><line x1="848" y1="400" x2="574" y2="400" transform="rotate(92, 711, 400)" opacity="0.91"></line><line x1="261" y1="400" x2="1161" y2="400" transform="rotate(93, 711, 400)" opacity="0.33"></line><line x1="157" y1="400" x2="1265" y2="400" transform="rotate(94, 711, 400)" opacity="0.22"></line><line x1="414.5" y1="400" x2="1007.5" y2="400" transform="rotate(95, 711, 400)" opacity="0.29"></line><line x1="772.5" y1="400" x2="649.5" y2="400" transform="rotate(96, 711, 400)" opacity="0.96"></line><line x1="106.5" y1="400" x2="1315.5" y2="400" transform="rotate(97, 711, 400)" opacity="0.55"></line><line x1="1118.5" y1="400" x2="303.5" y2="400" transform="rotate(98, 711, 400)" opacity="0.11"></line><line x1="423" y1="400" x2="999" y2="400" transform="rotate(99, 711, 400)" opacity="0.28"></line><line x1="21" y1="400" x2="1401" y2="400" transform="rotate(100, 711, 400)" opacity="0.75"></line><line x1="946" y1="400" x2="476" y2="400" transform="rotate(101, 711, 400)" opacity="0.13"></line><line x1="447" y1="400" x2="975" y2="400" transform="rotate(102, 711, 400)" opacity="0.26"></line><line x1="626" y1="400" x2="796" y2="400" transform="rotate(103, 711, 400)" opacity="0.93"></line><line x1="1115.5" y1="400" x2="306.5" y2="400" transform="rotate(104, 711, 400)" opacity="0.31"></line><line x1="747.5" y1="400" x2="674.5" y2="400" transform="rotate(105, 711, 400)" opacity="0.84"></line><line x1="168.5" y1="400" x2="1253.5" y2="400" transform="rotate(106, 711, 400)" opacity="0.84"></line><line x1="890" y1="400" x2="532" y2="400" transform="rotate(107, 711, 400)" opacity="0.51"></line><line x1="529" y1="400" x2="893" y2="400" transform="rotate(108, 711, 400)" opacity="0.14"></line><line x1="1081" y1="400" x2="341" y2="400" transform="rotate(109, 711, 400)" opacity="0.92"></line><line x1="1083.5" y1="400" x2="338.5" y2="400" transform="rotate(110, 711, 400)" opacity="0.63"></line><line x1="1092" y1="400" x2="330" y2="400" transform="rotate(111, 711, 400)" opacity="0.76"></line><line x1="912" y1="400" x2="510" y2="400" transform="rotate(112, 711, 400)" opacity="0.32"></line><line x1="198" y1="400" x2="1224" y2="400" transform="rotate(113, 711, 400)" opacity="0.91"></line><line x1="642" y1="400" x2="780" y2="400" transform="rotate(114, 711, 400)" opacity="0.50"></line><line x1="943.5" y1="400" x2="478.5" y2="400" transform="rotate(115, 711, 400)" opacity="0.97"></line><line x1="577.5" y1="400" x2="844.5" y2="400" transform="rotate(116, 711, 400)" opacity="0.84"></line><line x1="482" y1="400" x2="940" y2="400" transform="rotate(117, 711, 400)" opacity="0.69"></line><line x1="543" y1="400" x2="879" y2="400" transform="rotate(118, 711, 400)" opacity="0.53"></line><line x1="640.5" y1="400" x2="781.5" y2="400" transform="rotate(119, 711, 400)" opacity="0.30"></line><line x1="990" y1="400" x2="432" y2="400" transform="rotate(120, 711, 400)" opacity="0.78"></line><line x1="449" y1="400" x2="973" y2="400" transform="rotate(121, 711, 400)" opacity="0.94"></line><line x1="627" y1="400" x2="795" y2="400" transform="rotate(122, 711, 400)" opacity="0.36"></line><line x1="671.5" y1="400" x2="750.5" y2="400" transform="rotate(123, 711, 400)" opacity="0.53"></line><line x1="92" y1="400" x2="1330" y2="400" transform="rotate(124, 711, 400)" opacity="0.96"></line><line x1="366" y1="400" x2="1056" y2="400" transform="rotate(125, 711, 400)" opacity="0.23"></line><line x1="310" y1="400" x2="1112" y2="400" transform="rotate(126, 711, 400)" opacity="0.43"></line><line x1="1069.5" y1="400" x2="352.5" y2="400" transform="rotate(127, 711, 400)" opacity="0.30"></line><line x1="390" y1="400" x2="1032" y2="400" transform="rotate(128, 711, 400)" opacity="0.22"></line><line x1="256.5" y1="400" x2="1165.5" y2="400" transform="rotate(129, 711, 400)" opacity="0.57"></line><line x1="820" y1="400" x2="602" y2="400" transform="rotate(130, 711, 400)" opacity="0.45"></line><line x1="245.5" y1="400" x2="1176.5" y2="400" transform="rotate(131, 711, 400)" opacity="0.21"></line><line x1="241" y1="400" x2="1181" y2="400" transform="rotate(132, 711, 400)" opacity="0.16"></line><line x1="580" y1="400" x2="842" y2="400" transform="rotate(133, 711, 400)" opacity="0.23"></line><line x1="69" y1="400" x2="1353" y2="400" transform="rotate(134, 711, 400)" opacity="0.86"></line><line x1="315" y1="400" x2="1107" y2="400" transform="rotate(135, 711, 400)" opacity="0.19"></line><line x1="232.5" y1="400" x2="1189.5" y2="400" transform="rotate(136, 711, 400)" opacity="0.46"></line><line x1="504.5" y1="400" x2="917.5" y2="400" transform="rotate(137, 711, 400)" opacity="0.41"></line><line x1="513" y1="400" x2="909" y2="400" transform="rotate(138, 711, 400)" opacity="0.99"></line><line x1="49.5" y1="400" x2="1372.5" y2="400" transform="rotate(139, 711, 400)" opacity="0.73"></line><line x1="804.5" y1="400" x2="617.5" y2="400" transform="rotate(140, 711, 400)" opacity="0.22"></line><line x1="459.5" y1="400" x2="962.5" y2="400" transform="rotate(141, 711, 400)" opacity="0.50"></line><line x1="276" y1="400" x2="1146" y2="400" transform="rotate(142, 711, 400)" opacity="0.48"></line><line x1="252.5" y1="400" x2="1169.5" y2="400" transform="rotate(143, 711, 400)" opacity="0.34"></line><line x1="641.5" y1="400" x2="780.5" y2="400" transform="rotate(144, 711, 400)" opacity="0.25"></line><line x1="45" y1="400" x2="1377" y2="400" transform="rotate(145, 711, 400)" opacity="0.41"></line><line x1="680" y1="400" x2="742" y2="400" transform="rotate(146, 711, 400)" opacity="0.32"></line><line x1="546.5" y1="400" x2="875.5" y2="400" transform="rotate(147, 711, 400)" opacity="0.13"></line><line x1="1018" y1="400" x2="404" y2="400" transform="rotate(148, 711, 400)" opacity="0.45"></line><line x1="953.5" y1="400" x2="468.5" y2="400" transform="rotate(149, 711, 400)" opacity="0.43"></line><line x1="370.5" y1="400" x2="1051.5" y2="400" transform="rotate(150, 711, 400)" opacity="0.28"></line><line x1="632.5" y1="400" x2="789.5" y2="400" transform="rotate(151, 711, 400)" opacity="0.39"></line><line x1="216" y1="400" x2="1206" y2="400" transform="rotate(152, 711, 400)" opacity="0.72"></line><line x1="596.5" y1="400" x2="825.5" y2="400" transform="rotate(153, 711, 400)" opacity="0.24"></line><line x1="593" y1="400" x2="829" y2="400" transform="rotate(154, 711, 400)" opacity="0.14"></line><line x1="835" y1="400" x2="587" y2="400" transform="rotate(155, 711, 400)" opacity="0.24"></line><line x1="356.5" y1="400" x2="1065.5" y2="400" transform="rotate(156, 711, 400)" opacity="0.21"></line><line x1="825.5" y1="400" x2="596.5" y2="400" transform="rotate(157, 711, 400)" opacity="0.08"></line><line x1="281" y1="400" x2="1141" y2="400" transform="rotate(158, 711, 400)" opacity="0.15"></line><line x1="386" y1="400" x2="1036" y2="400" transform="rotate(159, 711, 400)" opacity="0.62"></line><line x1="536" y1="400" x2="886" y2="400" transform="rotate(160, 711, 400)" opacity="0.30"></line><line x1="256.5" y1="400" x2="1165.5" y2="400" transform="rotate(161, 711, 400)" opacity="0.48"></line><line x1="254" y1="400" x2="1168" y2="400" transform="rotate(162, 711, 400)" opacity="0.58"></line><line x1="708" y1="400" x2="714" y2="400" transform="rotate(163, 711, 400)" opacity="0.39"></line><line x1="525" y1="400" x2="897" y2="400" transform="rotate(164, 711, 400)" opacity="0.35"></line><line x1="449" y1="400" x2="973" y2="400" transform="rotate(165, 711, 400)" opacity="0.42"></line><line x1="352" y1="400" x2="1070" y2="400" transform="rotate(166, 711, 400)" opacity="0.85"></line><line x1="1005.5" y1="400" x2="416.5" y2="400" transform="rotate(167, 711, 400)" opacity="0.16"></line><line x1="600" y1="400" x2="822" y2="400" transform="rotate(168, 711, 400)" opacity="0.53"></line><line x1="338.5" y1="400" x2="1083.5" y2="400" transform="rotate(169, 711, 400)" opacity="0.86"></line><line x1="487.5" y1="400" x2="934.5" y2="400" transform="rotate(170, 711, 400)" opacity="0.16"></line><line x1="805.5" y1="400" x2="616.5" y2="400" transform="rotate(171, 711, 400)" opacity="0.43"></line><line x1="528.5" y1="400" x2="893.5" y2="400" transform="rotate(172, 711, 400)" opacity="0.09"></line><line x1="75.5" y1="400" x2="1346.5" y2="400" transform="rotate(173, 711, 400)" opacity="0.76"></line><line x1="765" y1="400" x2="657" y2="400" transform="rotate(174, 711, 400)" opacity="0.27"></line><line x1="1064.5" y1="400" x2="357.5" y2="400" transform="rotate(175, 711, 400)" opacity="0.12"></line><line x1="922.5" y1="400" x2="499.5" y2="400" transform="rotate(176, 711, 400)" opacity="0.36"></line><line x1="1124.5" y1="400" x2="297.5" y2="400" transform="rotate(177, 711, 400)" opacity="0.45"></line><line x1="1004" y1="400" x2="418" y2="400" transform="rotate(178, 711, 400)" opacity="0.60"></line><line x1="488.5" y1="400" x2="933.5" y2="400" transform="rotate(179, 711, 400)" opacity="0.94"></line><line x1="723" y1="400" x2="699" y2="400" transform="rotate(180, 711, 400)" opacity="0.56"></line><line x1="405" y1="400" x2="1017" y2="400" transform="rotate(181, 711, 400)" opacity="0.26"></line><line x1="51" y1="400" x2="1371" y2="400" transform="rotate(182, 711, 400)" opacity="0.70"></line><line x1="250" y1="400" x2="1172" y2="400" transform="rotate(183, 711, 400)" opacity="0.49"></line><line x1="768.5" y1="400" x2="653.5" y2="400" transform="rotate(184, 711, 400)" opacity="0.53"></line><line x1="327" y1="400" x2="1095" y2="400" transform="rotate(185, 711, 400)" opacity="0.92"></line><line x1="158.5" y1="400" x2="1263.5" y2="400" transform="rotate(186, 711, 400)" opacity="0.99"></line><line x1="373.5" y1="400" x2="1048.5" y2="400" transform="rotate(187, 711, 400)" opacity="0.78"></line><line x1="335" y1="400" x2="1087" y2="400" transform="rotate(188, 711, 400)" opacity="0.71"></line><line x1="831.5" y1="400" x2="590.5" y2="400" transform="rotate(189, 711, 400)" opacity="0.23"></line><line x1="151.5" y1="400" x2="1270.5" y2="400" transform="rotate(190, 711, 400)" opacity="0.18"></line><line x1="1124" y1="400" x2="298" y2="400" transform="rotate(191, 711, 400)" opacity="0.52"></line><line x1="21" y1="400" x2="1401" y2="400" transform="rotate(192, 711, 400)" opacity="0.94"></line><line x1="659.5" y1="400" x2="762.5" y2="400" transform="rotate(193, 711, 400)" opacity="0.51"></line><line x1="841.5" y1="400" x2="580.5" y2="400" transform="rotate(194, 711, 400)" opacity="0.27"></line><line x1="617" y1="400" x2="805" y2="400" transform="rotate(195, 711, 400)" opacity="0.41"></line><line x1="624.5" y1="400" x2="797.5" y2="400" transform="rotate(196, 711, 400)" opacity="0.68"></line><line x1="828.5" y1="400" x2="593.5" y2="400" transform="rotate(197, 711, 400)" opacity="0.57"></line><line x1="443" y1="400" x2="979" y2="400" transform="rotate(198, 711, 400)" opacity="0.07"></line><line x1="111" y1="400" x2="1311" y2="400" transform="rotate(199, 711, 400)" opacity="0.90"></line><line x1="31" y1="400" x2="1391" y2="400" transform="rotate(200, 711, 400)" opacity="0.65"></line><line x1="195" y1="400" x2="1227" y2="400" transform="rotate(201, 711, 400)" opacity="0.71"></line><line x1="1106.5" y1="400" x2="315.5" y2="400" transform="rotate(202, 711, 400)" opacity="0.52"></line><line x1="1075" y1="400" x2="347" y2="400" transform="rotate(203, 711, 400)" opacity="0.43"></line><line x1="1020" y1="400" x2="402" y2="400" transform="rotate(204, 711, 400)" opacity="0.46"></line><line x1="1113" y1="400" x2="309" y2="400" transform="rotate(205, 711, 400)" opacity="0.98"></line><line x1="568" y1="400" x2="854" y2="400" transform="rotate(206, 711, 400)" opacity="0.26"></line><line x1="935" y1="400" x2="487" y2="400" transform="rotate(207, 711, 400)" opacity="0.49"></line><line x1="739" y1="400" x2="683" y2="400" transform="rotate(208, 711, 400)" opacity="0.89"></line><line x1="1064.5" y1="400" x2="357.5" y2="400" transform="rotate(209, 711, 400)" opacity="0.92"></line><line x1="488" y1="400" x2="934" y2="400" transform="rotate(210, 711, 400)" opacity="0.43"></line><line x1="1006" y1="400" x2="416" y2="400" transform="rotate(211, 711, 400)" opacity="0.27"></line><line x1="480" y1="400" x2="942" y2="400" transform="rotate(212, 711, 400)" opacity="0.68"></line><line x1="965" y1="400" x2="457" y2="400" transform="rotate(213, 711, 400)" opacity="0.14"></line><line x1="532.5" y1="400" x2="889.5" y2="400" transform="rotate(214, 711, 400)" opacity="0.67"></line><line x1="796.5" y1="400" x2="625.5" y2="400" transform="rotate(215, 711, 400)" opacity="1.00"></line><line x1="197" y1="400" x2="1225" y2="400" transform="rotate(216, 711, 400)" opacity="0.17"></line><line x1="216.5" y1="400" x2="1205.5" y2="400" transform="rotate(217, 711, 400)" opacity="0.79"></line><line x1="200" y1="400" x2="1222" y2="400" transform="rotate(218, 711, 400)" opacity="0.18"></line><line x1="513" y1="400" x2="909" y2="400" transform="rotate(219, 711, 400)" opacity="0.66"></line><line x1="941.5" y1="400" x2="480.5" y2="400" transform="rotate(220, 711, 400)" opacity="0.51"></line><line x1="496.5" y1="400" x2="925.5" y2="400" transform="rotate(221, 711, 400)" opacity="0.87"></line><line x1="578.5" y1="400" x2="843.5" y2="400" transform="rotate(222, 711, 400)" opacity="0.60"></line><line x1="804.5" y1="400" x2="617.5" y2="400" transform="rotate(223, 711, 400)" opacity="0.46"></line><line x1="134" y1="400" x2="1288" y2="400" transform="rotate(224, 711, 400)" opacity="0.13"></line><line x1="1002.5" y1="400" x2="419.5" y2="400" transform="rotate(225, 711, 400)" opacity="0.17"></line><line x1="568.5" y1="400" x2="853.5" y2="400" transform="rotate(226, 711, 400)" opacity="0.20"></line><line x1="826" y1="400" x2="596" y2="400" transform="rotate(227, 711, 400)" opacity="0.39"></line><line x1="694" y1="400" x2="728" y2="400" transform="rotate(228, 711, 400)" opacity="0.41"></line><line x1="549" y1="400" x2="873" y2="400" transform="rotate(229, 711, 400)" opacity="0.21"></line><line x1="449.5" y1="400" x2="972.5" y2="400" transform="rotate(230, 711, 400)" opacity="0.56"></line><line x1="427.5" y1="400" x2="994.5" y2="400" transform="rotate(231, 711, 400)" opacity="0.09"></line><line x1="1061" y1="400" x2="361" y2="400" transform="rotate(232, 711, 400)" opacity="0.14"></line><line x1="1060.5" y1="400" x2="361.5" y2="400" transform="rotate(233, 711, 400)" opacity="0.70"></line><line x1="97" y1="400" x2="1325" y2="400" transform="rotate(234, 711, 400)" opacity="0.62"></line><line x1="665.5" y1="400" x2="756.5" y2="400" transform="rotate(235, 711, 400)" opacity="0.79"></line><line x1="919" y1="400" x2="503" y2="400" transform="rotate(236, 711, 400)" opacity="0.56"></line><line x1="378" y1="400" x2="1044" y2="400" transform="rotate(237, 711, 400)" opacity="0.78"></line><line x1="485.5" y1="400" x2="936.5" y2="400" transform="rotate(238, 711, 400)" opacity="0.92"></line><line x1="539.5" y1="400" x2="882.5" y2="400" transform="rotate(239, 711, 400)" opacity="0.72"></line><line x1="251.5" y1="400" x2="1170.5" y2="400" transform="rotate(240, 711, 400)" opacity="0.13"></line><line x1="301.5" y1="400" x2="1120.5" y2="400" transform="rotate(241, 711, 400)" opacity="0.70"></line><line x1="433.5" y1="400" x2="988.5" y2="400" transform="rotate(242, 711, 400)" opacity="0.08"></line><line x1="283" y1="400" x2="1139" y2="400" transform="rotate(243, 711, 400)" opacity="0.09"></line><line x1="1128" y1="400" x2="294" y2="400" transform="rotate(244, 711, 400)" opacity="0.77"></line><line x1="957.5" y1="400" x2="464.5" y2="400" transform="rotate(245, 711, 400)" opacity="0.81"></line><line x1="25.5" y1="400" x2="1396.5" y2="400" transform="rotate(246, 711, 400)" opacity="0.78"></line><line x1="987" y1="400" x2="435" y2="400" transform="rotate(247, 711, 400)" opacity="0.13"></line><line x1="261" y1="400" x2="1161" y2="400" transform="rotate(248, 711, 400)" opacity="0.17"></line><line x1="450" y1="400" x2="972" y2="400" transform="rotate(249, 711, 400)" opacity="0.71"></line><line x1="647" y1="400" x2="775" y2="400" transform="rotate(250, 711, 400)" opacity="0.25"></line><line x1="109.5" y1="400" x2="1312.5" y2="400" transform="rotate(251, 711, 400)" opacity="0.52"></line><line x1="403" y1="400" x2="1019" y2="400" transform="rotate(252, 711, 400)" opacity="0.31"></line><line x1="1012" y1="400" x2="410" y2="400" transform="rotate(253, 711, 400)" opacity="0.41"></line><line x1="1030" y1="400" x2="392" y2="400" transform="rotate(254, 711, 400)" opacity="0.89"></line><line x1="529" y1="400" x2="893" y2="400" transform="rotate(255, 711, 400)" opacity="0.39"></line><line x1="924" y1="400" x2="498" y2="400" transform="rotate(256, 711, 400)" opacity="0.64"></line><line x1="894.5" y1="400" x2="527.5" y2="400" transform="rotate(257, 711, 400)" opacity="0.95"></line><line x1="452" y1="400" x2="970" y2="400" transform="rotate(258, 711, 400)" opacity="0.81"></line><line x1="183.5" y1="400" x2="1238.5" y2="400" transform="rotate(259, 711, 400)" opacity="0.63"></line><line x1="127.5" y1="400" x2="1294.5" y2="400" transform="rotate(260, 711, 400)" opacity="0.41"></line><line x1="704" y1="400" x2="718" y2="400" transform="rotate(261, 711, 400)" opacity="0.13"></line><line x1="246.5" y1="400" x2="1175.5" y2="400" transform="rotate(262, 711, 400)" opacity="0.98"></line><line x1="94" y1="400" x2="1328" y2="400" transform="rotate(263, 711, 400)" opacity="0.81"></line><line x1="251" y1="400" x2="1171" y2="400" transform="rotate(264, 711, 400)" opacity="0.50"></line><line x1="111" y1="400" x2="1311" y2="400" transform="rotate(265, 711, 400)" opacity="0.53"></line><line x1="982" y1="400" x2="440" y2="400" transform="rotate(266, 711, 400)" opacity="0.41"></line><line x1="90.5" y1="400" x2="1331.5" y2="400" transform="rotate(267, 711, 400)" opacity="0.69"></line><line x1="574" y1="400" x2="848" y2="400" transform="rotate(268, 711, 400)" opacity="0.51"></line><line x1="1083" y1="400" x2="339" y2="400" transform="rotate(269, 711, 400)" opacity="0.18"></line><line x1="123.5" y1="400" x2="1298.5" y2="400" transform="rotate(270, 711, 400)" opacity="0.62"></line><line x1="744.5" y1="400" x2="677.5" y2="400" transform="rotate(271, 711, 400)" opacity="0.30"></line><line x1="844" y1="400" x2="578" y2="400" transform="rotate(272, 711, 400)" opacity="0.59"></line><line x1="183.5" y1="400" x2="1238.5" y2="400" transform="rotate(273, 711, 400)" opacity="0.92"></line><line x1="477" y1="400" x2="945" y2="400" transform="rotate(274, 711, 400)" opacity="0.95"></line><line x1="498.5" y1="400" x2="923.5" y2="400" transform="rotate(275, 711, 400)" opacity="0.48"></line><line x1="1080.5" y1="400" x2="341.5" y2="400" transform="rotate(276, 711, 400)" opacity="0.80"></line><line x1="1119" y1="400" x2="303" y2="400" transform="rotate(277, 711, 400)" opacity="0.48"></line><line x1="587.5" y1="400" x2="834.5" y2="400" transform="rotate(278, 711, 400)" opacity="0.63"></line><line x1="420" y1="400" x2="1002" y2="400" transform="rotate(279, 711, 400)" opacity="0.39"></line><line x1="509" y1="400" x2="913" y2="400" transform="rotate(280, 711, 400)" opacity="0.25"></line><line x1="404" y1="400" x2="1018" y2="400" transform="rotate(281, 711, 400)" opacity="0.87"></line><line x1="437.5" y1="400" x2="984.5" y2="400" transform="rotate(282, 711, 400)" opacity="0.11"></line><line x1="1017.5" y1="400" x2="404.5" y2="400" transform="rotate(283, 711, 400)" opacity="0.62"></line><line x1="1002.5" y1="400" x2="419.5" y2="400" transform="rotate(284, 711, 400)" opacity="0.53"></line><line x1="586" y1="400" x2="836" y2="400" transform="rotate(285, 711, 400)" opacity="0.65"></line><line x1="157" y1="400" x2="1265" y2="400" transform="rotate(286, 711, 400)" opacity="0.71"></line><line x1="36.5" y1="400" x2="1385.5" y2="400" transform="rotate(287, 711, 400)" opacity="0.54"></line><line x1="1120.5" y1="400" x2="301.5" y2="400" transform="rotate(288, 711, 400)" opacity="0.72"></line><line x1="567.5" y1="400" x2="854.5" y2="400" transform="rotate(289, 711, 400)" opacity="0.77"></line><line x1="1062" y1="400" x2="360" y2="400" transform="rotate(290, 711, 400)" opacity="0.95"></line><line x1="565.5" y1="400" x2="856.5" y2="400" transform="rotate(291, 711, 400)" opacity="0.45"></line><line x1="175.5" y1="400" x2="1246.5" y2="400" transform="rotate(292, 711, 400)" opacity="0.24"></line><line x1="582.5" y1="400" x2="839.5" y2="400" transform="rotate(293, 711, 400)" opacity="0.87"></line><line x1="323.5" y1="400" x2="1098.5" y2="400" transform="rotate(294, 711, 400)" opacity="0.17"></line><line x1="588" y1="400" x2="834" y2="400" transform="rotate(295, 711, 400)" opacity="0.78"></line><line x1="212.5" y1="400" x2="1209.5" y2="400" transform="rotate(296, 711, 400)" opacity="0.35"></line><line x1="477" y1="400" x2="945" y2="400" transform="rotate(297, 711, 400)" opacity="0.41"></line><line x1="185.5" y1="400" x2="1236.5" y2="400" transform="rotate(298, 711, 400)" opacity="0.32"></line><line x1="155.5" y1="400" x2="1266.5" y2="400" transform="rotate(299, 711, 400)" opacity="0.98"></line><line x1="747.5" y1="400" x2="674.5" y2="400" transform="rotate(300, 711, 400)" opacity="0.38"></line><line x1="812.5" y1="400" x2="609.5" y2="400" transform="rotate(301, 711, 400)" opacity="0.53"></line><line x1="1022" y1="400" x2="400" y2="400" transform="rotate(302, 711, 400)" opacity="0.61"></line><line x1="543.5" y1="400" x2="878.5" y2="400" transform="rotate(303, 711, 400)" opacity="0.72"></line><line x1="613" y1="400" x2="809" y2="400" transform="rotate(304, 711, 400)" opacity="0.14"></line><line x1="908" y1="400" x2="514" y2="400" transform="rotate(305, 711, 400)" opacity="0.47"></line><line x1="726.5" y1="400" x2="695.5" y2="400" transform="rotate(306, 711, 400)" opacity="0.54"></line><line x1="441.5" y1="400" x2="980.5" y2="400" transform="rotate(307, 711, 400)" opacity="0.66"></line><line x1="331" y1="400" x2="1091" y2="400" transform="rotate(308, 711, 400)" opacity="0.64"></line><line x1="665.5" y1="400" x2="756.5" y2="400" transform="rotate(309, 711, 400)" opacity="0.92"></line><line x1="30.5" y1="400" x2="1391.5" y2="400" transform="rotate(310, 711, 400)" opacity="0.73"></line><line x1="316" y1="400" x2="1106" y2="400" transform="rotate(311, 711, 400)" opacity="0.34"></line><line x1="803" y1="400" x2="619" y2="400" transform="rotate(312, 711, 400)" opacity="0.10"></line><line x1="848" y1="400" x2="574" y2="400" transform="rotate(313, 711, 400)" opacity="0.23"></line><line x1="1126" y1="400" x2="296" y2="400" transform="rotate(314, 711, 400)" opacity="0.41"></line><line x1="469" y1="400" x2="953" y2="400" transform="rotate(315, 711, 400)" opacity="0.79"></line><line x1="342.5" y1="400" x2="1079.5" y2="400" transform="rotate(316, 711, 400)" opacity="0.63"></line><line x1="1076" y1="400" x2="346" y2="400" transform="rotate(317, 711, 400)" opacity="0.25"></line><line x1="664.5" y1="400" x2="757.5" y2="400" transform="rotate(318, 711, 400)" opacity="0.17"></line><line x1="94" y1="400" x2="1328" y2="400" transform="rotate(319, 711, 400)" opacity="0.58"></line><line x1="279.5" y1="400" x2="1142.5" y2="400" transform="rotate(320, 711, 400)" opacity="0.64"></line><line x1="878" y1="400" x2="544" y2="400" transform="rotate(321, 711, 400)" opacity="0.77"></line><line x1="88.5" y1="400" x2="1333.5" y2="400" transform="rotate(322, 711, 400)" opacity="0.25"></line><line x1="401" y1="400" x2="1021" y2="400" transform="rotate(323, 711, 400)" opacity="0.23"></line><line x1="517" y1="400" x2="905" y2="400" transform="rotate(324, 711, 400)" opacity="0.82"></line><line x1="1066.5" y1="400" x2="355.5" y2="400" transform="rotate(325, 711, 400)" opacity="0.82"></line><line x1="800.5" y1="400" x2="621.5" y2="400" transform="rotate(326, 711, 400)" opacity="0.09"></line><line x1="679.5" y1="400" x2="742.5" y2="400" transform="rotate(327, 711, 400)" opacity="0.79"></line><line x1="1061" y1="400" x2="361" y2="400" transform="rotate(328, 711, 400)" opacity="0.15"></line><line x1="293" y1="400" x2="1129" y2="400" transform="rotate(329, 711, 400)" opacity="0.19"></line><line x1="952" y1="400" x2="470" y2="400" transform="rotate(330, 711, 400)" opacity="0.62"></line><line x1="593.5" y1="400" x2="828.5" y2="400" transform="rotate(331, 711, 400)" opacity="0.49"></line><line x1="590" y1="400" x2="832" y2="400" transform="rotate(332, 711, 400)" opacity="0.17"></line></g></svg>